<?xml version="1.0" encoding="UTF-8"?>
<!DOCTYPE svg PUBLIC "-//W3C//DTD SVG 1.1//EN" "http://www.w3.org/Graphics/SVG/1.1/DTD/svg11.dtd">
<!-- Creator: CorelDRAW -->
<svg xmlns="http://www.w3.org/2000/svg" xml:space="preserve" width="374.374mm" height="230.839mm" version="1.1" style="shape-rendering:geometricPrecision; text-rendering:geometricPrecision; image-rendering:optimizeQuality; fill-rule:evenodd; clip-rule:evenodd"
viewBox="0 0 37439.8 23085.44"
 xmlns:xlink="http://www.w3.org/1999/xlink"
 xmlns:xodm="http://www.corel.com/coreldraw/odm/2003">
 <defs>
  <style type="text/css">
   <![CDATA[
    .str1 {stroke:black;stroke-width:70.56;stroke-miterlimit:22.9256}
    .str0 {stroke:black;stroke-width:70.56;stroke-linecap:square;stroke-miterlimit:22.9256}
    .fil0 {fill:none}
   ]]>
  </style>
 </defs>
 <g id="Camada_x0020_1">
  <metadata id="CorelCorpID_0Corel-Layer"/>
  <path class="fil0 str0" d="M10514.53 7941.91c296.49,170.58 104.53,48.52 423.37,176.4 68.95,-36.89 139.87,-75.47 211.67,-105.84 115.95,59.49 203.74,88.21 317.52,141.12 249.87,-109.04 66.61,-1.65 423.37,-70.56 87.71,305.02 315.28,214.59 423.36,282.24l282.24 282.25c101.15,68.34 181.1,143.33 282.24,211.67 50.13,63.42 62.73,76.63 105.85,141.12 127.2,73.41 381.18,148.44 529.19,176.4 143.59,129.43 79.23,83.08 246.97,141.12 134.25,134.26 118.86,142.6 282.24,211.68 120.69,-157.09 100.63,-132.38 282.24,35.28 70.47,13.61 105.93,21.96 176.4,35.28 76.38,82.9 83.3,90.83 141.12,176.39 150.82,43.37 86.23,18.4 211.68,141.13 155.58,77.42 94,34.45 211.68,176.39 217.85,422.58 -40.74,22.07 317.52,352.8 -40.4,159.72 -38.9,19.17 0,176.4 -82.91,76.38 -90.83,83.3 -176.4,141.12 -137.6,138.29 -41.58,211.3 -352.8,176.4l-246.97 317.52c-107.27,-88.85 -28.85,13.58 -105.84,-141.12 -42.74,66.75 -54.27,77.21 -105.84,141.12 -124.74,-51.14 -69.07,-21.13 -176.4,-105.84l-246.97 246.96c-123.12,50.48 -70.11,20.09 -176.39,105.85 -95.25,-30.88 -181.54,-51.53 -282.25,-70.56l-141.12 141.12c-150.24,-85.54 -137.32,-70.55 -282.24,-70.55 -166.8,-210.32 116.54,22.49 -388.09,-141.13 -118.22,67.18 -110.06,70.12 -211.67,105.85 2.17,99.86 4.31,144.18 0,211.67 -106.1,62.59 -59.92,46.01 -176.4,70.56 -84.74,-152.09 -63.61,-148.87 -246.97,-246.96 -50.12,63.41 -62.72,76.62 -105.84,141.12 -368.36,-28.3 -423.12,-365.82 -352.8,-458.64 148.77,-100.54 257.48,-161.72 352.8,-317.52 -255.14,-56.4 -19.51,89.05 -317.52,-105.85 0,-295.59 6.24,-313.5 105.84,-564.48 -398.77,-194.12 -231.72,-68.06 -388.08,-105.85 -116.64,-59.85 -107.29,-67.51 -246.97,-70.55 -125.79,-46.15 -317.22,-281.98 -317.52,-282.24 -183.33,-115.91 -347.68,-175.75 -564.48,-317.52l-141.12 0c-243.6,-173.55 -360.78,-31.55 -599.76,-246.97 101.5,-73.92 69.3,-53.7 176.4,-105.84 57.47,-85.99 64.83,-93.77 141.12,-176.4 110.89,-74.93 145.55,-110.28 246.96,-211.68 -33.03,-174.79 -66.49,-110.95 0,-282.24 76.69,-10.79 181.49,-29.25 282.24,-70.55 65.76,-165.72 12.34,-220.49 176.4,-388.09 -33.96,-89.97 19.41,-36.59 -70.55,-70.56 -129.29,-46.45 -78.49,-2.54 -176.4,-141.12 -139.3,-128.59 -248.31,-191.16 -388.09,-211.67l-35.28 -35.28c-121.5,-121.51 -33.25,-53.06 -105.84,-35.28 -137.92,-28.91 0.86,41.65 -141.12,-70.55 -156.2,-12 -74.65,8.52 -211.68,-70.56 -18.39,-182.5 40.89,-94.31 -105.84,-141.12 -113.81,-85.66 -15.75,-163.98 -317.52,-211.68l-141.12 0c-160.07,-147.77 -228,-134.46 -388.09,-282.24 -167.71,83.92 -32.39,55.38 -211.67,35.28 -161.16,39.87 -138.89,41.8 -246.97,-105.85 -146.97,-131.06 -201.62,-105.84 -317.52,-105.84 -173.97,-173.97 -285.1,-127.14 -458.64,-211.68 -200.88,-97.86 49.98,-36.6 -352.8,-176.39 -142.04,-60.06 -88.57,-27.47 -211.67,-141.13 -136.75,-51.86 -131.88,-36.75 -246.97,-105.84 -46.25,-163.91 19.15,-40.46 -70.55,-141.12 -121.62,71.75 -77.83,67.34 -211.68,105.84 -100.14,-60.39 -85.51,-52.2 -176.4,-141.12l0 -141.12c-130.56,-117.69 -116.53,-109.81 -282.24,-141.12 -50.25,-203.09 46.06,-222.46 211.68,-388.09 100.66,0 254.71,21.25 352.79,-105.84 170.36,-220.72 -100.71,-355.29 35.28,-705.6 -115.6,-208.16 51.71,-426.86 176.4,-635.04 106.91,-121.62 211.06,-55.54 388.09,-317.52l135.28 -285.18c99.55,-53.19 126.41,-66.27 217.51,-138.19 110.2,-131.19 128.51,-449.44 599.77,-529.19 296.17,-50.13 402.15,-38.78 670.31,-176.4l176.4 -176.4c63.15,-334.22 203.38,-564.29 388.09,-846.72 155.57,-44.73 123.01,-52.44 246.96,-176.4l141.12 0c284.64,-262.77 545.05,-243.54 882.01,-352.79l352.8 -388.09c156.2,-12 74.64,8.52 211.67,-70.56 127.81,-12.6 100.85,-13.68 211.68,-70.55 416.78,189.35 417.13,299.66 529.2,352.8 126.38,59.92 229.86,-4.06 282.24,0 86.71,31.19 60.48,19.7 141.12,35.27 86.71,-31.19 60.48,-19.7 141.12,-35.27 108.65,20.52 116.34,26.22 211.68,70.55 130.74,-42.39 100.95,-35.28 246.96,-35.28 95.59,29.27 131.83,176.01 352.8,211.68l246.96 0c139.91,48.41 255.81,62.95 388.09,105.84l174.22 -75.24c278.32,-55.82 720.11,33.07 813.62,4.69 63.74,-42.62 110.62,-70.64 176.4,-105.84 159.71,40.39 19.17,38.89 176.39,0 139.65,14.75 248.16,266.24 425.19,314.21l456.82 3.31c138.38,-138.39 236.13,-140.02 352.8,0 -77.96,114.85 -90.1,91.27 -211.68,141.12 -8.95,113.91 -61.02,340.79 -35.28,493.92 73.27,211.74 195.83,535.56 352.8,705.6 138.72,3.02 87.11,-5.11 211.68,35.28 317.24,-250.74 293.07,-306.72 423.36,-635.04 613.88,-238.31 423.36,867.78 423.36,987.84 126.49,99.83 197.58,143.69 352.8,176.4 -15.69,74.87 -5.46,58.22 -35.28,141.12 245.78,504.87 262.5,226.29 211.68,564.48 4.13,189.5 -26.13,75.95 70.56,211.68 104.16,-21.84 106.33,-2.28 141.12,0 15.88,75.78 8.61,60.67 35.27,141.12 -105.78,221.05 5.37,163.17 211.68,282.24 44.33,95.35 50.03,103.04 70.56,211.68 -21.59,9.3 -118.52,59.81 -141.12,70.55 7.25,113.42 -16.47,160.56 0,282.24 -87.52,108.48 -53.53,52.7 -105.85,176.4 249.35,201.18 354.84,175.33 317.52,352.8 -44.74,83.65 -91.78,164.58 -141.12,246.97 -74.29,24.62 -106.84,38.21 -176.4,70.55l282.24 493.92c-52.63,92.45 -26.17,54.66 -105.84,141.12l-65.65 496.43c11.63,144.92 11.63,61.74 -4.9,209.17 186.98,18.85 141.12,3.25 141.12,211.67 100.68,73.92 111,67.2 211.67,141.12 4.31,197.74 -29.98,96.28 105.85,246.97 78.23,-96.96 59.87,-79.84 141.12,-141.12 84.11,-71.97 35.19,-61.07 211.67,0 139.51,-45.23 128.59,-35.28 282.25,-35.28 50.12,-63.42 62.72,-76.63 105.84,-141.12 162.7,6.86 85.34,12.39 246.96,-70.56 42.74,66.76 54.27,77.22 105.85,141.12l740.88 -176.39c107.63,-54.42 162.8,-271.82 493.92,0 121.64,99.85 366.15,446.95 423.36,564.48 108.65,-20.53 116.35,-26.22 211.68,-70.56 112.64,44.7 33.69,32.17 176.4,35.28 117.29,143.12 4.15,119.55 176.4,35.28l176.4 176.4c-106.4,154.04 -101.48,71.13 0,246.96 75.78,-15.88 60.67,-8.61 141.12,-35.27 78.27,50.11 166.12,117.1 282.24,141.12 139.28,-9.04 15.54,-82.69 141.12,70.55 75.79,-15.88 60.68,-8.61 141.12,-35.28 145.19,94.35 11.94,72.39 176.4,35.28 104.43,181.5 82.22,204.81 282.24,246.97 -59.17,98.11 -51.69,86.98 -141.12,176.4 83.62,111.53 54.37,80.39 176.4,141.12 3.96,61.85 5.57,130.58 35.28,211.67 -198.85,215.4 -94.37,176.16 -317.52,282.25 38.86,157.07 37.89,151.7 -105.84,246.96l-35.28 -35.28"/>
  <path class="fil0 str0" d="M24556 10199.83c-16.02,65.39 -69.2,31.11 35.28,70.55l-35.28 -70.55c219.43,-63.1 176.4,-121.39 176.4,-458.64 -359.14,-200.09 -193.82,143.36 -564.49,-70.56 -196.45,65.12 -172.94,36.92 -461.58,-100.01 -105.97,139.25 -274.49,94.53 -526.26,100.01 -122.51,-65.54 -102.46,-43.1 -176.39,-141.12"/>
  <path class="fil0 str0" d="M20075.43 10411.51c33.96,89.98 -19.41,36.6 70.56,70.56 -33.97,-89.97 19.4,-36.59 -70.56,-70.56 -115.56,-102.37 -61,-90.16 -35.28,-282.24 108.56,-35.98 60.26,-26.16 176.4,-35.28 66.75,-42.74 77.21,-54.26 141.12,-105.84 127.81,-12.6 100.85,-13.68 211.68,-70.55 100.06,78.97 146.9,97.43 246.96,176.39 459.98,-223.91 316.81,-212.09 388.09,-493.91 137.26,92.75 118.93,74.41 211.68,211.67 58.73,-8.45 98.37,-14.27 176.39,-35.28 52.73,65.35 88.23,111.19 141.13,176.4 141.78,0 69.79,-6.1 176.39,35.28 21.59,-9.3 118.52,-59.81 141.13,-70.55 137.4,8.21 16.83,34.35 176.39,-35.28 63.42,50.12 76.63,62.72 141.13,105.84 14.83,147.15 34.96,123.48 141.12,141.12 50.71,141.58 77.65,89.04 246.96,-35.28 118.11,15.98 75.71,7.49 211.68,0 50.12,-63.41 62.72,-76.62 105.84,-141.12 141.78,0 69.79,6.11 176.4,-35.27 -32.07,-92.7 -51.65,-146.91 -70.56,-246.97"/>
  <path class="fil0 str0" d="M18240.87 6883.51c-150.91,46.98 -39.87,63.87 -211.68,-35.28 -184.07,-14.46 -34.78,30.33 -176.4,-70.56 -87.96,-28.12 -23.29,65.65 -279.03,-76.82 -180.52,82.92 -112.84,47.55 -214.89,217.94 -129.91,-5.28 -36.93,-98.85 -141.12,105.85 -123.12,113.66 -69.63,81.06 -211.68,141.12l-174.22 -75.25c-84.96,127.2 -138.51,176.3 -249.14,286.94 -57.3,84.79 -119.1,162.16 -176.4,246.96 -39.77,26.75 -255.83,-20.19 -141.12,282.24 210.26,-119.71 203.02,-66.71 282.24,-35.28 59.22,137.52 104.1,434.06 493.92,493.92 185.71,-14.26 153.08,-68.04 317.52,-35.27 -39.62,149.1 -72.14,122.35 -105.84,282.24l178.22 102.54c193.66,23.01 117.99,74.31 280.42,250.27 408.14,-190.96 159.51,-47.74 599.76,-141.13 100.31,137.03 16.89,72.17 176.4,141.13 89.02,74.17 126.14,197.78 423.36,352.79 150.82,43.37 86.23,18.4 211.68,141.12l178.22 -102.54c161.79,238.21 247.03,258.96 421.54,420.06l0 141.13c207.55,174.95 63.62,6.82 317.52,211.67"/>
  <path class="fil0 str0" d="M20146 10482.07c85.75,106.28 55.35,53.27 105.84,176.4 135.83,150.69 101.53,49.22 105.84,246.96 -76.38,82.9 -83.29,90.83 -141.12,176.4 60.06,142.04 27.46,88.57 141.12,211.68 -136.99,113.59 -250,149.1 -70.55,211.68l35.27 35.27c-30.46,131.81 -39.92,63.36 0,211.68 -58.96,136.92 -34.26,33.46 0,141.12 168.06,-137.92 51.81,-153.25 211.68,35.28 141.78,0 69.79,-6.1 176.4,35.28 129.5,-50.27 97.94,-35.28 246.96,-35.28 101.2,360.67 -128.72,166.34 141.13,458.64 131.55,-53.93 80.52,-34.04 176.39,-35.28 25.51,125.26 68.7,-10.83 -35.27,176.4 14.9,110.19 0,145.78 0,282.24l141.12 141.12 35.28 0c110.83,56.88 83.88,57.96 211.67,70.56 106.29,-49.42 163.21,-80.76 282.24,-105.84 3.65,16.51 32.95,124.88 35.28,141.12 107.96,-29.33 70.37,-16.15 176.4,-70.56 112.77,290.5 -61.32,41.38 35.28,423.37 121.15,-9.52 63.57,1.3 176.4,-35.28 3.87,54.64 12.05,35.97 0,141.12 -150.93,119.7 -75.94,5.7 -70.56,141.12l-141.12 141.12c30.06,159.1 13.53,187.96 105.84,317.52 82.71,-82.7 59.54,-56.63 141.13,-105.84 143.16,60.53 232.78,119.1 317.52,246.96 -102.31,179.68 -25.19,62.11 -35.28,141.12 144.23,-29.11 105.13,-68.51 282.24,-105.84 32.76,-76.07 35.28,-9.58 35.28,-141.12 148.21,-120.74 154.25,-44.65 -35.28,-141.12 126.03,-185.68 69.37,-58.49 282.24,-141.12 171.48,53.39 45.79,15.45 246.97,0 42.74,66.75 54.27,77.21 105.84,141.12 144.01,-104.89 -7.29,-52.44 176.4,-70.56 23.83,-172.3 21.35,-159.88 -105.84,-317.52 99.05,-78.18 174.19,-96.82 282.24,-141.12 -25.45,-121.41 10.03,-30.46 -70.56,-141.12 104.89,-144.01 52.44,7.29 70.56,-176.4 -245.38,-193.66 -205.1,-65.53 -246.97,-282.24 -115.97,-9.94 -192.26,6.45 -317.52,-35.28 16.44,-131.53 33.55,-181.22 141.12,-317.52 -29.93,-88.82 -29.54,-94.46 -35.27,-176.4 288.13,103.65 74.76,-70.55 423.36,-70.55 82.13,-113.21 29.07,-59.1 141.12,-141.12 82.13,113.2 29.07,59.09 141.12,141.12 108.69,-144.97 -0.73,-87.99 176.4,-105.85 189.51,-389.31 98.8,-54.4 317.52,-599.76 -197.51,-274.19 -12.24,70.77 -176.4,-282.24 174.63,-127.83 70.08,-155.48 282.24,-176.4 56.12,93.71 69.21,120.57 141.13,211.68 383.4,-383.41 -113.01,-79.77 282.24,-352.8 8.77,-402.5 98.3,-18.25 -35.28,-423.36 -121.41,-30.04 -355.48,4.23 -458.64,-70.56 -72.33,-110.61 -72.11,-84.8 -105.84,-211.68"/>
  <path class="fil0 str0" d="M14642.3 15139.04l70.56 0c8.32,14.61 62.23,126.5 70.55,141.12 -112.05,86.09 -79.63,93.09 -105.84,211.67 137.92,28.91 -0.86,-41.65 141.12,70.56 182.77,65.74 118.85,-92.83 388.09,176.4 141.87,-55.07 175.64,-55.07 317.52,0 135.41,-96.48 59.95,-90.88 211.67,-35.28 95.34,-268.56 90.88,-222.83 -35.27,-458.64 330.95,-195.26 94.15,75.35 423.36,-70.56 137.03,79.09 55.47,58.56 211.68,70.56 -40.4,-241.69 -56.4,-396.36 35.27,-564.48 -50.26,-129.5 -35.27,-97.94 -35.27,-246.97 -85.99,-57.48 -93.78,-64.83 -176.4,-141.12 18.31,-132.4 18.02,-15.69 0,-176.4 28.46,-87.79 42.09,-159.17 70.55,-246.96 -40.96,-181.54 -24.92,-64.36 35.28,-246.97 -144.97,-108.68 -87.99,0.73 -105.84,-176.4 -108.47,-87.52 -52.7,-53.53 -176.4,-105.84 2.78,-105.57 23.38,-94.66 -70.56,-211.68 -47.55,-149.07 -11.63,-105.84 -211.67,-105.84 -94.58,-163.86 -94.58,-134.67 -35.28,-317.52 -34.03,-83 -42.93,-126.47 -70.56,-211.68 56.78,-171.31 40.49,-46.36 0,-176.4 94.15,-113.54 63.22,-93.56 176.4,-176.39 -148.66,-283.38 -83.62,-107.55 -458.64,-352.8 -26.98,-267.67 26.77,21.74 -246.96,-317.52 -373.6,373.59 -191.1,283.11 -388.09,599.76 -99.1,-64.86 -223.71,-237.75 -349.49,-253.5 -232.87,58.33 -194.7,-80.34 -285.55,-275.71 -12.82,-22.52 -57.73,-116.68 -70.56,-141.12"/>
  <path class="fil0 str0" d="M20322.39 11540.47c22.4,-91.44 56.16,-57.67 -35.27,-35.27"/>
  <path class="fil0 str0" d="M21416.08 12951.67c-51.85,156.62 -58.97,155.38 -35.28,0"/>
  <path class="fil0 str0" d="M18664.23 15174.31c-47.04,47.04 -47.04,23.52 0,70.56 47.04,-47.04 47.04,-23.52 0,-70.56 41.81,-62.39 38.59,-77.81 70.55,-176.39 -16.38,-177.42 -84.22,-92.38 105.85,-176.4 108.3,-99.98 167.4,-136.59 282.24,-211.68 138.72,-3.02 87.11,5.11 211.68,-35.28 79.53,1.26 -16.24,63.06 317.52,0 9.29,21.59 59.81,118.52 70.55,141.12 311.71,0 -69.74,18.77 423.37,-141.12 109.09,78.59 25.62,-4.72 105.84,105.85 138.04,-106.05 110.9,-57.81 35.28,-211.68 216.89,-274.43 170.89,-141.45 246.96,-211.68 87.63,-151.82 99.75,-116.17 35.28,-282.24 238.31,-159.31 211.73,-112.54 317.52,-70.56 162.45,-112.19 41.99,-74 246.96,-35.27 109.1,-78.59 25.63,4.72 105.85,-105.85 237.92,-23.46 421.25,-308.36 429.9,-384.76 -37.88,-137.29 -13.89,-77.04 -77.11,-214.99 31.19,-86.71 19.71,-60.48 35.28,-141.12"/>
  <path class="fil0 str0" d="M17676.39 2791.02c85.73,-148.54 66.7,-70.08 70.56,-246.97 -52.35,-356.29 -146.93,-394.76 70.55,-670.32 -31.19,-86.71 -19.7,-60.48 -35.28,-141.12 305.77,-195.77 37.32,-61.54 317.52,-105.84 499.37,-78.94 408.05,52.02 564.49,35.28 142.04,-60.06 88.57,-27.47 211.68,-141.12 146.82,-64.15 301.25,26.45 458.64,0 59.24,-9.97 208.78,-95.68 352.79,-70.56 126.35,22.03 72.71,78.57 317.52,-35.28 290.87,174.21 265.99,181.75 458.65,70.56 -60.4,-100.14 -52.21,-85.51 -141.13,-176.4 15.01,-89.79 26.58,-149.85 35.28,-211.68l141.12 0c197.81,366.78 409.49,640.9 811.44,317.52 109.43,-88.04 95.24,-199.3 141.12,-317.52 92.46,52.63 54.66,26.17 141.12,105.85l0 141.12c123.12,113.66 69.64,81.06 211.68,141.12l141.12 -317.52c-109.08,-170.36 -14.78,-209.25 141.12,-246.97 540.21,-130.68 141.7,132.73 493.92,-70.55 354.43,280.13 -11.65,90.13 317.52,317.52 151.27,-84.29 135.65,-51.73 211.68,-211.68 184.07,-14.45 34.78,30.33 176.4,-70.55l141.12 0c144,-104.89 -7.29,-52.45 176.4,-70.56 66.98,99.13 85.62,118.87 176.4,211.68 -133.74,193.63 -74.84,83.6 70.55,282.24l141.12 0c23.65,9.25 309.76,267.16 493.92,352.8 17.53,177.79 -30.15,60.8 105.85,211.67 -116.38,269.44 -268.23,343.18 -282.25,564.49 15.89,75.78 8.62,60.67 35.28,141.12 15.18,101.01 -53.05,234.59 105.84,352.8 110.53,53.79 109.05,48.6 211.68,141.12 141.73,26.78 160.07,35.32 282.24,105.84 18.41,160.62 17.79,44.91 0,176.4 238.38,295.44 64.41,115.32 211.68,317.52 -41.29,119.34 -40.43,133.63 -105.84,246.96 -141.79,0 -69.79,6.11 -176.4,-35.27 -189.7,300.07 49.65,18.14 -246.97,423.36 43.13,174.31 1.64,137.52 -70.55,317.52 70.18,165.98 26.44,108.09 176.4,211.68 80.68,121.73 56.98,79.55 176.4,176.39 7.17,112.17 11.34,399.36 70.55,493.92 141.98,119.52 141.5,3.98 0,176.4 149.7,259.38 -25.58,202.95 282.24,352.8 -10.62,267.38 62.57,-38.69 35.28,211.68 167.9,125.52 141.12,138.56 141.12,282.24 157.07,120.67 79.72,127.6 70.56,317.52 159.27,101.24 -10.31,72.38 211.67,35.28 145.12,16.27 162.9,-5.03 282.25,0 112.58,-91.31 195.27,-146.28 317.52,-211.68 183.47,41.4 14.06,61.82 211.67,-35.28 42.74,66.75 54.27,77.21 105.85,141.12 136.25,0 69.23,6.76 141.12,35.28 96.81,-96.81 102.09,-109.35 211.67,-176.4 43.91,101.97 25.21,12.81 35.28,141.12 92.52,102.65 87.33,101.17 141.12,211.68l143.64 -65.65c97.62,68.61 160.43,79.69 244.45,100.94 48.06,158.91 18.05,163.39 -35.28,317.52 163.53,185.91 125.28,65.05 35.28,211.67 -17.53,177.8 30.15,60.81 -105.84,211.68 -39.45,119.64 -36.6,118.09 -141.13,246.97l-143.63 -65.65c-69.98,125.63 -64.54,187.18 -68.04,347.89 -116.16,125.83 -171.54,211.81 -246.97,352.8 128.29,88.62 87.79,48.11 176.4,176.39 -137.73,167.04 -77.52,164.08 0,388.09 121.95,81.53 62.68,22.76 141.12,141.12 -121.09,10.38 -206.04,36.49 -317.52,105.84 78.59,109.1 -4.72,25.63 105.85,105.85 -172.04,93.81 -37.9,-8.41 -211.68,105.84 299.57,116.29 119.28,-101.62 458.64,211.68 -592.83,480.81 -73.79,54.69 -458.64,529.19 24.02,126.24 24.02,85.45 0,211.68 82.15,101.29 129.54,180.96 211.68,282.24 -65.91,292.1 240.11,212.76 352.79,246.97 63.75,42.61 110.63,70.64 176.4,105.84 38.18,229.71 215.76,161.11 458.64,352.8 -4.81,182.36 48.12,192.8 35.28,352.8 160.63,130.85 143.39,101.18 -70.55,105.84l-178.22 102.54 104.36 181.52c186.18,32.74 356.94,97.52 497.22,139.3 -101.21,138.27 -105.97,84.02 -176.4,246.97 -14.62,-8.33 -126.5,-62.24 -141.12,-70.56 -276.03,153.79 -293.42,38.01 -458.64,70.56 -83.04,47.91 -160.41,70.35 -246.97,105.84l-282.24 -211.68c-57.48,-147.41 -80.53,-135.96 -282.24,-70.55l-76.83 137.91c-92.86,70.19 -112.6,88.83 -205.4,179.61 -152.41,-99.03 43.01,-58.85 -317.52,-35.28 58.44,132.19 63.96,104.9 176.4,176.4 -182.1,129.73 -80.16,43.22 -282.25,70.56 0.48,3.41 -0.34,134.06 0,141.12 -85.98,57.47 -93.77,64.83 -176.39,141.12 53.84,134.27 67.12,124.77 70.55,282.24 -150.69,135.83 -49.22,101.53 -246.96,105.84 -89.64,89.64 -79.01,81.54 -176.4,141.12 -117.9,-174.46 -124.25,-247.22 -317.52,-176.39 -30.75,185.05 -61.46,125.42 -246.97,211.67 36.8,194.76 114.65,237.49 105.85,388.09l-35.28 0c-301.51,-6.57 -116.83,-70.56 -493.92,-70.56 -68.61,-118.15 -31.82,-26.2 -70.56,-141.12 -3.41,0.47 -134.06,-0.35 -141.12,0 -74.71,-146.79 -47.29,-119.11 -211.67,-141.12 -134.26,134.25 -118.87,142.59 -282.25,211.68 -98.17,-267.93 87.6,-94.74 -70.55,-246.97"/>
  <path class="fil0 str0" d="M28154.57 12740c27.03,199.78 -62.07,131.35 70.56,317.52 121.15,-9.52 63.57,1.3 176.4,-35.28 145.86,8.72 24.24,54.9 176.39,-70.56 253.81,175.29 163.96,-80.73 529.2,0 28.2,138.48 31.81,-13.89 0,176.4 199.51,-24.94 209.65,-135.19 423.36,-70.55 21.93,191.28 45.66,25.15 -35.27,176.4 6.46,176.28 1.66,124.99 -176.4,211.67 -259.24,184.76 -166.83,301.17 -458.64,388.09 -28.69,290.96 -182.99,132.4 -211.68,423.36 -65.69,16.99 -82.51,24.52 -176.4,35.28 -226.18,393.14 -218.07,239.27 -493.92,493.92l-102.54 -178.22c-184.36,78.56 -65.23,107.85 -214.98,-68.74 -121.41,-25.44 -30.46,10.04 -141.12,-70.55 -146.67,32.42 -60.75,0 -352.8,0 -164.93,214.67 -345.87,36 -564.48,70.55 -124.58,40.4 -72.95,32.26 -211.68,35.28 -98.09,119.69 -38.38,63.81 -176.4,105.85 -172.29,-38.88 -71.59,-65.7 -246.96,105.84 -156.2,12 -74.65,-8.53 -211.68,70.55 -150.53,11.57 -258.47,45.57 -388.08,105.85 32.39,120.34 32.39,161.89 0,282.24 63.41,50.12 76.62,62.72 141.12,105.84 -15.89,75.79 -8.62,60.68 -35.28,141.12 42.74,66.76 54.27,77.22 105.84,141.13l-176.4 352.79c-119.2,129.36 -66.41,39.33 -105.84,176.4 -141.27,175.97 -141.27,35.71 0,211.68 30.37,144.09 14.67,96.16 105.84,211.68 59.92,128.14 -70.94,34.89 176.4,282.24 -113.2,82.13 -59.09,29.06 -141.12,141.12 -149.7,-38.06 -244.62,-1 -388.08,35.28 -102.15,219.64 -17.16,241.87 -317.52,388.08 -16.53,147.43 -16.53,64.25 0,211.68 -378.81,204.3 -186.12,51.47 -423.37,70.55 -152.32,46.07 -59.35,46.07 -211.67,0 -187.12,187.12 -120.3,150.76 -320.04,242.06 -159.94,-107.29 -93.04,-114.71 -209.16,40.19l-141.12 -141.12c-141.78,0 -69.79,6.1 -176.4,-35.28 -81.53,121.95 -22.76,62.67 -141.12,141.12 -97.37,133.01 -75.55,121.14 -211.68,141.12l100.35 -214.46c-134.66,-97.07 -51.33,-67.77 -241.47,-67.77 -303.69,303.69 -273.5,83.7 -246.96,317.52 -219.65,102.14 -293.6,102.8 -493.92,0l-35.28 -35.28c-70.05,-109.41 -14.34,-39.93 -105.84,-105.84 -142.07,38.59 -47.63,-10.24 -176.4,105.84 -100.81,-22.28 -39.91,-30.48 -141.12,35.28 -221.61,-280.4 -182.33,-152.04 -284.07,-243.66 -48.3,-66.72 -60.9,-79.94 -104.02,-144.43 -121.41,-25.45 -30.46,10.03 -141.12,-70.55 -101.97,43.91 -12.81,25.2 -141.12,35.27 -104.74,-379.37 13.25,-86.71 -176.4,-352.79 -53.8,-110.52 -48.6,-109.05 -141.12,-211.68 3.65,-16.51 32.94,-124.89 35.28,-141.12 247.19,-24.38 362.28,-185.88 529.19,-352.8 192.7,17.41 36.67,73.75 211.68,-70.55 67.45,9.49 143.88,27.35 246.96,35.27l102.54 178.22c81.75,-16.64 131.23,-30.66 214.98,-37.1 101.31,-154.91 165.37,-171.44 70.56,-282.24 -85.61,-48.73 -58.79,-23.51 -141.12,-105.84 0,-271.6 15.5,-30.55 -105.84,-317.52 295.36,-127.2 -18.79,60.12 282.24,-141.12 75.78,15.88 60.67,8.61 141.12,35.28 227.56,-347.98 115.69,-173.33 70.55,-493.92 35.9,-43.51 73.06,-90.1 141.13,-141.12 -31.19,-86.72 -19.71,-60.48 -35.28,-141.13l178.22 -102.54c5.44,-95.8 1.87,-121.99 -1.82,-179.7l176.4 0c9.29,21.59 59.8,118.52 70.55,141.12 236.59,-49.59 239.54,-12.89 388.09,-70.55 -78.59,-109.1 4.72,-25.63 -105.85,-105.85 -21.09,-157.53 -23.88,-76.03 0,-211.67 -94.34,-145.19 -72.38,-11.94 -35.27,-176.4 -34.05,-71.62 -44.44,-100.92 -70.56,-176.4"/>
  <path class="fil0 str0" d="M25014.64 14327.6c73.96,206.47 134.44,132.62 35.28,0"/>
  <line class="fil0 str0" x1="22474.48" y1="14927.36" x2="22509.76" y2= "14892.08" />
  <path class="fil0 str0" d="M5645.89 5401.74c-200.54,253.74 -202.13,215.73 -458.64,317.52 0,475.11 102.45,429.43 105.84,529.2 -47.48,146.43 -35.28,157.2 -35.28,317.52 -82.9,76.38 -90.83,83.29 -176.4,141.12 -94.47,163.69 -51.92,151.24 -105.84,317.52 -133.6,97.8 -89.77,67.03 -176.4,211.67 -347.38,67.1 -123.83,6.53 -423.36,0 -97.98,124.14 -108.81,128.91 -141.12,282.25 315.43,201.96 229.53,530.27 0,705.6 -47.87,36.56 -255.9,78.23 -348.66,354.99 -76.33,227.74 123.11,-10.17 -356.94,385.9 -256.05,211.24 -266.65,584.47 -388.08,740.88 -127.64,93.43 -123.24,111.72 -211.68,246.96 -89.46,60.45 -155.48,120.44 -246.96,176.4 -321.87,292.88 -995.97,485.4 -1270.08,705.61l-317.52 317.52c-531.79,100.48 -580.13,254.28 -670.32,317.52 -0.18,0.12 -412.86,167.23 -388.09,388.08 35.48,67.63 63.4,111.52 105.85,176.4 174.11,-141.22 457.42,-440.79 705.6,-352.8 89.18,72.33 154.79,116.13 246.97,176.4l174.22 -75.24c126.86,45.11 343.43,121.07 460.82,145.81 170.84,-68.52 330.74,-159.66 493.91,-246.97 169.63,214.62 54.87,103.81 352.8,282.25 95.19,-75.23 141.3,-135.47 317.52,-105.85 146.06,50.54 296.51,93.39 458.64,105.85 175.31,-70.31 136.92,-105.39 317.52,-35.28 23.11,58.23 46.76,118.35 70.56,176.4 107.45,-28.56 149.67,-58.48 246.96,-105.85 13.8,-215.8 -42.23,-292.37 176.4,-529.19 158.88,12.2 151.69,27.64 282.24,105.84 80.49,22.26 148.51,-39.51 458.65,105.84l282.24 246.97c280.34,90.9 263.98,-97.44 564.48,0l102.54 178.22c594.19,-133.03 430.55,83.86 638.35,104.02 83.35,8.09 69.25,-70.59 282.24,0 89.46,-60.45 155.48,-120.44 246.96,-176.4 330.46,142.74 179.28,4.42 352.8,35.28 144.44,25.69 14.33,87.03 282.24,35.28 164.11,47.19 116.3,35.24 211.68,176.4 110.83,56.87 83.88,57.95 211.68,70.55 143.59,129.43 79.22,83.08 246.96,141.12 293.68,49.38 105.25,-116.5 494.73,139.87l142.82 -64.4c277.04,239.73 216.9,-101.65 491.41,171.5 75.79,112.17 150.31,212.82 246.96,317.52 -13.61,70.46 -21.96,105.92 -35.27,176.4 112.64,44.69 33.69,32.16 176.39,35.27 123.36,39.94 97.48,243.02 348.66,-213.86 186.58,6.16 142.97,-5.16 286.38,108.03l137.91 -76.83c217.46,90.61 60.1,-42.67 285.46,182.67 147.85,-58.66 36.99,-51.07 176.4,0 136.91,-58.96 33.46,-34.26 141.12,0 9.3,-21.59 59.81,-118.51 70.55,-141.12 103.56,-34.32 64.89,-26.71 176.4,-35.27 76.38,82.9 83.3,90.82 141.12,176.39 157.47,-3.43 147.97,-16.7 282.25,-70.55 92.45,52.63 54.66,26.17 141.12,105.84 138.22,-43.99 3.38,-52.33 176.4,0l317.52 -70.55c191.07,-98.07 46.97,-82.98 211.67,-35.28 105.45,-145.34 9.17,-64.74 141.12,-105.84 51.98,38.85 88.64,67.65 141.12,105.84 1.89,-26.63 26.06,-108.46 35.28,-141.12 167.79,95.53 80.42,93.49 105.85,317.52 144.59,56.12 131.88,19.06 282.24,105.84 -12.82,22.52 -57.74,116.68 -70.56,141.12 90.97,137.26 93.16,114.72 246.97,176.4 189.93,-42.85 36.3,-53.72 246.96,70.56 163.5,72.46 84.21,53.52 246.97,35.27 66.08,299.01 215.24,229.46 317.52,388.09 34.32,103.56 26.71,64.89 35.27,176.4l102.54 178.22c3.31,139.96 -2.8,67.97 38.58,174.58 -68.17,295.6 72.04,-25.27 105.85,317.52"/>
  <path class="fil0 str0" d="M18664.23 15244.88c-28.78,162.22 0.96,121.87 105.84,282.24 -30.36,71.8 -68.94,142.72 -105.84,211.68 119.42,96.85 95.73,54.66 176.4,176.4 -162.3,84.96 -329.08,23.62 -493.92,70.55 -106.09,62.59 -59.92,46.01 -176.4,70.56 -69.78,109 -18.45,40.51 -105.84,105.84 -116.73,-90.48 -59.68,-85.92 -176.4,-176.4 -90.89,-30.44 -192.47,74.92 -388.09,105.85 -5.05,0.8 -225.1,-3.71 -352.8,70.55l-211.67 211.68c8.06,215.13 -171.62,174.5 -317.52,70.55 12.18,-158.53 25.08,-85.78 0,-211.67 102.82,-158.24 94.01,-23.24 0,-176.4 80.28,-112.69 57.41,-93.58 105.84,-211.68 -93.71,-56.12 -120.57,-69.21 -211.68,-141.12 0,-141.78 6.11,-69.79 -35.27,-176.4 69.45,-140.16 109.93,-18.88 -35.28,-141.12 -64.75,-157.93 -4.27,-62.38 -105.84,-141.12"/>
  <line class="fil0 str0" x1="22192.24" y1="15491.84" x2="22227.51" y2= "15456.56" />
  <path class="fil0 str0" d="M14995.1 17361.69l70.56 35.27c-39.45,-104.48 -5.17,-51.29 -70.56,-35.27 -167.84,-70.97 -218.99,-121.21 -317.52,-282.25 72.6,-167.96 30.25,-90.51 176.4,-211.67 -75.91,-362.13 12.06,-31.34 0,-317.52 43.44,-66.04 35.28,4.47 35.28,-141.12 -125.1,-91.57 -286.12,-343.17 -282.25,-423.37 63.59,-138.79 49.8,-91.95 70.56,-246.96 -127.8,-154.99 -147.33,-55 0,-246.97"/>
  <line class="fil0 str0" x1="21980.56" y1="16514.96" x2="21980.56" y2= "16479.68" />
  <line class="fil0 str0" x1="14818.7" y1="16585.53" x2="14853.98" y2= "16550.24" />
  <path class="fil0 str0" d="M32846.82 16620.8c-16.02,65.39 -69.2,31.12 35.27,70.56l-35.27 -70.56c-141.97,-81.93 -191.59,-75.37 -352.8,-105.84 -108.99,184.72 -53.51,73.65 -35.28,176.4 -84.54,115.13 -85.83,168.24 -211.68,246.96 -15.06,-212.32 32.58,-69.83 -65.65,-284.75 72.42,-179.94 128.22,-70.21 -75.46,-173.89 0,-211.93 -32.08,-210.22 70.56,-388.08 331.2,89.16 109.64,-78.71 493.92,-211.68 153.73,87.53 159.34,89.96 352.79,0l-76.82 -137.91c163.07,-99.47 4.61,-108.05 217.95,-3.21 23.47,-73.74 30.29,-118.33 35.27,-176.4 105.4,22.21 115.3,31.9 211.68,70.56 126.07,-164.1 50.17,-129.9 141.12,-35.28 89.39,-100.75 24.33,22.7 70.56,-141.12 74.24,-20.83 58.26,-19.72 141.12,-70.56 -26.63,-1.89 -108.46,-26.06 -141.12,-35.28 72.44,-96.91 282.2,-211.66 282.24,-211.67 177.29,-17.49 104.08,-1.35 246.96,-141.12 148.53,-97.14 219.93,-202.73 211.68,0 200.04,0 164.12,-43.24 211.68,105.84 82.89,-29.82 66.23,-19.58 141.12,-35.28 61.83,-8.7 121.9,-20.27 211.67,-35.28l70.56 0"/>
  <line class="fil0 str0" x1="34363.86" y1="14997.92" x2="34363.86" y2= "15068.48" />
  <path class="fil0 str0" d="M29601.05 16938.32l-35.28 -35.27c104.64,-61.73 59.21,-47.93 176.4,-70.56 158.2,-116.16 180.92,-85.4 352.8,-141.12 147.89,-3.22 169.63,-32.06 317.52,-35.28 131.54,0 65.04,2.52 141.12,35.28 141.89,-42.91 241.09,-12.38 388.09,35.28 269.28,42.29 208.8,-6.72 423.36,105.84 249.52,-89.76 248.04,60.2 423.36,176.4 51.3,-30.94 124.73,-75.35 176.4,-105.84 111.47,36.13 138.14,23.89 211.68,70.55 -63.96,205.33 -140.13,68.69 -211.68,317.52 80.45,122.9 21.26,58.32 141.12,141.12 183.96,-59.64 370.78,-104.52 564.49,-141.12 79.26,148.11 21.55,11.88 70.55,176.4 206.37,98.76 176.4,42.72 176.4,-176.4 -128.67,-104.36 -122.13,-68.5 -211.68,-211.68 76.64,-112.92 99.44,-93.98 211.68,-176.39 0,-145.03 11.58,-90.98 -35.28,-211.68"/>
  <path class="fil0 str0" d="M24732.41 17643.93c570.96,221.63 119.88,-216.62 493.92,141.12 156.99,-96.37 105.89,-102.93 246.96,105.84 57.75,3.78 103.06,10.85 176.4,35.28 235.42,-172.84 227.1,-2.97 458.64,-211.68 -82,-167.61 -131.11,-87.24 70.56,-176.39 89.63,-89.64 79,-81.54 176.39,-141.13 353.11,212.98 44.78,312.98 423.37,246.97 117.45,-20.48 108.93,-76.04 219.68,15.36m203.67 372.71c258.8,-103.79 465.29,-222.15 740.88,-317.52 179.03,16.54 117.12,22.16 246.97,-176.39 145.03,0 90.98,-11.58 211.68,35.27 -15.89,75.79 -8.62,60.68 -35.28,141.12 347.33,134.84 149.1,-164.6 529.19,-70.55 45.34,-95.38 39.58,-86.16 105.85,-176.4 -40.4,-159.72 -38.9,-19.17 0,-176.4 150.19,-53.97 159.71,-65.06 176.4,-282.24 151.06,-87.19 223.85,-113.93 388.08,-105.84"/>
  <line class="fil0 str0" x1="32211.78" y1="16973.6" x2="32176.5" y2= "16973.6" />
  <path class="fil0 str0" d="M16159.35 19337.37l0 70.56c73.73,-55.66 73.73,-14.9 0,-70.56 44.64,-75.65 91.44,-138.17 141.12,-211.68 -385.09,-312.32 -335.35,-160.91 -352.8,-388.08 -91.11,-71.9 -117.98,-85 -211.68,-141.12 -10,-156.45 41.36,-208.52 35.28,-352.8 -353.93,-172.29 -278.05,-203.27 -388.08,-317.52 -369.45,-383.61 -116.16,-38.04 -317.52,-529.2"/>
  <path class="fil0 str0" d="M20357.67 21806.98l-70.55 35.27c39.44,-104.48 5.16,-51.29 70.55,-35.27 53.51,66.32 87.61,110.07 141.12,176.39 -66.3,234.97 114.7,314.63 176.4,529.2 -78.59,109.1 4.73,25.62 -105.84,105.84l317.52 282.25c138.55,-77.2 248.92,-146.4 352.8,-70.56 138.99,-39.97 127.11,-60.12 246.96,-141.12 92.76,-137.26 74.42,-118.93 211.68,-211.68 116.65,-141.82 110.5,-241.51 35.28,-388.08 133.84,-97.98 151.92,-172.21 246.96,-317.52 205.7,-189.9 582.78,-480.52 811.44,-635.04l176.4 -176.4c249.68,-149.54 443.29,-266.1 705.6,-388.09 124.41,-66.55 135.85,-73.82 246.97,-176.4 231.32,-97.81 428.43,-255.78 670.32,-352.79 116.16,-168.16 266.2,-243 423.36,-388.09 153.57,-64.93 117.8,-50.05 246.96,-176.4 161.04,-52.21 106.1,-5.48 246.97,-105.84 0,-136.25 -6.76,-69.24 -35.28,-141.12 104.88,-144.01 52.44,7.29 70.56,-176.4 522.3,-482.18 1086.36,-680.65 1658.16,-1023.13"/>
  <path class="fil0 str0" d="M22015.84 18137.85c-91.45,22.39 -57.67,56.15 -35.28,-35.28"/>
  <path class="fil0 str0" d="M16159.35 19407.93c-58.59,276.21 21.65,154.75 -176.4,352.79 0,136.26 6.75,69.24 35.28,141.13 -66.76,42.74 -77.22,54.26 -141.13,105.84 27.83,146.21 11.84,292.07 35.28,458.64 144.33,42.55 39.25,-30.04 141.12,105.84 114.93,-7.35 115.58,-15.72 246.97,35.28 164.83,-227.19 189.24,-131.69 352.8,-105.84 149.02,0 117.46,-14.99 246.96,35.28l176.4 -176.4c253.42,91.16 18.62,-35.12 282.24,141.12 160.83,-52.15 246.19,-35.28 423.36,-35.28 92.43,-94.03 -27.54,-33.98 141.13,-70.56 82.12,75.81 129.05,109.39 211.67,176.4 116.01,-67.36 26.27,-52.44 141.12,0 167.81,-93.19 99,-25.15 246.97,-105.84 148.32,180.99 69.63,21.75 352.8,0 136.98,148.39 76.02,137.79 246.96,211.68 32.76,-76.07 35.28,-9.58 35.28,-141.12 138.72,-80.07 138.86,-59.35 282.24,-105.85 13.07,-184.28 -0.31,-235.26 246.96,-352.8 -80.45,-122.9 -21.25,-58.31 -141.12,-141.12 102.65,-92.52 101.17,-87.32 211.68,-141.12 -0.47,-3.41 0.35,-134.06 0,-141.12l143.63 -65.65c-2.51,-141.16 -9.26,-74.14 -37.79,-146.03 -161.92,58.25 -58.3,16.87 -141.12,0 178.71,-313.87 21.09,60.76 176.4,-388.08 -52.63,-92.45 -26.17,-54.66 -105.84,-141.12 118.15,-68.61 26.2,-31.82 141.12,-70.56 50.12,63.42 62.72,76.63 105.84,141.12 104.43,-96.41 176.33,-143.35 282.24,-246.96 307.89,102.06 394.06,-110.95 493.92,-246.97 233.15,0 292.56,-13.93 352.8,-246.96 319.39,0 72.47,-61.41 388.09,-105.84"/>
  <line class="fil0 str0" x1="17817.51" y1="20466.33" x2="17782.22" y2= "20466.33" />
  <path class="fil0 str0" d="M20287.12 21842.25c-141.49,166.85 -86.12,75.54 -246.97,211.68 -263.06,-218.1 -34.86,-74.32 -352.8,-282.24 -445.16,144.34 -276.67,141.74 -352.79,282.24l-211.68 211.68c-98.75,-107.17 -197.23,-299.38 -246.96,-423.37l141.12 -141.12c-9.52,-121.15 1.3,-63.57 -35.28,-176.4 110.9,-173.19 34.27,-64.49 35.28,-141.12 96.56,-96.25 102.06,31.29 0,-176.4 -22.28,-163.99 173.46,-277.17 246.96,-388.08 -63.83,-85.4 -42.4,-59.27 -141.12,-141.12"/>
  <line class="fil0 str0" x1="18981.75" y1="21418.89" x2="19017.03" y2= "21383.61" />
  <path class="fil0 str0" d="M20992.71 23041.78c157.78,-45.37 161.45,-71.91 246.97,-211.68"/>
  <path class="fil0 str0" d="M16265.19 7906.62c-239.72,42.54 -404.36,-263.58 -423.36,-317.52 -0.07,-0.18 45.21,-316.89 -388.09,-176.4 -137,-126.48 -173.25,-125.27 -317.52,-211.67 -99.98,-108.3 -136.58,-167.41 -211.68,-282.25l-352.79 -317.52c-215.31,-84.19 -210.22,221.39 -317.52,-70.55 -175.73,40.53 -90.83,60.67 -211.68,-141.12 -142.44,8.33 -171.37,-30.83 -317.52,-105.85 -138.34,-37.58 -48.74,11.79 -176.4,-105.84 -148.07,-27.98 -128.6,-18.94 -246.96,-105.84 -61.54,5.27 -128.36,10.08 -211.68,35.28l-208.37 -112.39c-303.17,108.21 -418.55,10.74 -497.23,-275.7 99.14,-66.98 118.88,-85.62 211.68,-176.4 -43.91,-101.97 -25.2,-12.81 -35.28,-141.12 329.19,-329.19 16.54,-103.25 317.52,-352.8 16.74,-185.27 44.98,-121.2 -141.12,-246.96 -176.43,-190.51 99.73,-64.95 -352.8,-211.68 -42.74,66.75 -54.26,77.21 -105.84,141.12 -85.22,-27.63 -128.69,-36.53 -211.68,-70.55l-137.9 76.83 -426.58 -253.24 -35.28 -35.28c-59.71,-187.19 -10.66,-33.19 -211.67,-176.4 -133.96,13.48 -38.87,63.2 -211.68,-105.84 -282.88,-148.21 -493.01,217.69 -740.88,-141.12 -104.17,21.83 -106.34,2.27 -141.13,0 -25.44,-121.41 10.04,-30.46 -70.55,-141.12l-178.22 102.54c-34.98,-91.51 -31.94,-113.58 -68.74,-208.38 -141.78,0 -69.79,6.11 -176.39,-35.28l0 -211.67c44.04,0.58 131.45,0.4 176.39,0 0,-188.53 19.46,-126.27 -70.55,-282.24 -165.77,-128.06 -368.96,6.12 -458.64,0 -86.72,-31.19 -60.48,-19.71 -141.12,-35.28l-70.56 35.28c-146.45,15.06 -120.91,40.6 -105.84,-105.85 -99.86,-140.15 -70.56,-56.83 -70.56,-246.96 -28.1,-174.1 -206.8,-376.59 -317.52,-493.92 -168.56,-126.37 -62.7,-85.26 -176.4,-282.24"/>
  <path class="fil0 str0" d="M9103.33 3249.66c65.39,16.01 31.11,69.19 70.56,-35.28"/>
  <path class="fil0 str0" d="M11502.38 4484.46c-91.44,22.39 -57.67,56.15 -35.28,-35.28"/>
  <line class="fil0 str0" x1="6316.21" y1="5754.54" x2="6316.21" y2= "5719.26" />
  <path class="fil0 str0" d="M23356.48 8471.11c141.08,16.01 69.57,38.5 211.68,-70.56 177.13,-17.85 67.72,39.13 176.4,-105.84 150.25,85.54 137.32,70.55 282.24,70.55 9.3,21.59 59.81,118.52 70.56,141.12 93.79,-135.76 84.16,-108.26 211.67,-211.67 -137.06,-240.75 3.52,156.85 -176.4,-317.52 102.31,-179.68 25.19,-62.11 35.28,-141.12 -209.06,-48.32 -159.31,51.05 -282.24,-141.12 66.75,-42.74 77.21,-54.27 141.12,-105.85 122.82,-163.82 143.46,-79.05 352.8,-176.4 0,-145.03 -11.58,-90.97 35.28,-211.67 -37.95,-168.21 -54.98,-128.76 141.12,-211.68 142.38,-117.7 219.73,-430.33 317.52,-599.76 92.45,52.63 54.66,26.17 141.12,105.84 122.5,-82.78 171.61,-136.33 282.24,-246.96"/>
  <path class="fil0 str0" d="M11890.46 8083.02c455.33,-86.04 252.74,20.47 490.7,-112.11 89.93,37.46 63.69,25.97 144.34,41.55 160.06,-390.42 -69.39,-7.42 211.67,-423.37 115.8,142.15 25.33,142.15 141.12,0 272.49,0 342.72,-48.85 564.49,-211.67 -84.35,-234.47 42.11,-191.5 105.84,-317.52 23.02,-119.16 9.71,-70.97 70.56,-176.4 -118.78,-330.2 229.68,-217.8 105.84,-599.77"/>
  <line class="fil0 str0" x1="18875.92" y1="7342.15" x2="18840.63" y2= "7342.15" />
  <path class="fil0 str0" d="M9844.21 7483.27c-72.58,17.78 15.67,86.23 -105.84,-35.28"/>
  <line class="fil0 str0" x1="9914.77" y1="7553.82" x2="9879.49" y2= "7518.55" />
  <line class="fil0 str0" x1="10443.98" y1="7906.62" x2="10443.98" y2= "7871.34" />
  <path class="fil0 str0" d="M7656.85 12104.96c0,-392.15 17.4,-225.84 35.28,-458.64 113.34,-65.41 127.62,-64.54 246.96,-105.85 108.3,-99.98 167.41,-136.58 282.25,-211.67 184.76,55.87 259.81,-20.01 458.64,-35.28 46.28,164 -8.19,31.98 70.55,176.4 54.65,3.87 35.97,12.05 141.12,0 96.18,166.64 88.41,71.31 35.28,246.96 6.02,126.2 107.82,285.49 176.4,388.09l141.12 -141.12c129.45,92.22 143.41,98.22 282.24,70.55 -1.39,-106.23 16,-41.19 -35.27,-176.4 41.82,-165.34 54.87,-34.55 -35.28,-176.4 26.41,-119.51 35.64,-0.2 0,-141.12 49.5,-143.07 15.29,-88.35 105.84,-211.67 -74.1,-123.46 -69.2,-78.24 -35.28,-211.68 78.56,-5.57 4.56,-34.57 141.13,35.28 313.01,-385.94 58.93,-332.18 176.39,-564.49 75.81,-82.12 109.39,-129.05 176.4,-211.67 -31.19,-86.72 -19.7,-60.48 -35.27,-141.12 31.58,-188.98 43.79,-34.66 0,-211.68 90.92,-185.02 71.5,-110.86 0,-317.52 46.83,-116.78 78.79,-153.9 105.84,-282.24"/>
  <path class="fil0 str0" d="M34928.34 15033.2c-63.83,-150.97 -117.69,-258.18 -246.96,-352.79l-70.56 -35.28c-77.95,-114.85 -90.1,-91.28 -211.67,-141.12 -37.98,-334.67 228.9,-211.99 282.24,-529.2l0 -211.68c19.24,-119.18 50.42,-9.42 70.56,-317.52 101.97,-43.91 12.81,-25.2 141.12,-35.27 43.29,-100.55 72.18,-173.12 214.19,-206.78 133.74,-4.9 66.72,-11.66 138.6,-40.18 176.37,20.02 129.4,8.4 282.25,-141.12 75.78,-15.89 60.67,-8.62 141.12,-35.28 183.47,41.4 154.15,-34.84 352.8,-141.12l102.54 178.22c102.43,-68.8 122.17,-87.44 214.98,-178.22 241.51,86.88 332.05,-46.64 493.91,-70.55 160.92,6.39 51.77,-6.28 246.97,-141.13 -112.35,-162.66 -111.85,-83.74 35.28,-246.96 151.84,-15.65 97.72,5.45 141.12,-105.84 116.92,-39.73 85.52,-55.04 141.12,-176.4 -105.9,-114.93 -168.67,-256.21 -458.64,-282.24 -170.57,23.07 -136.5,-21.38 -317.52,-35.28l-70.56 -35.28c-296.95,-85.99 110.96,-15.81 -388.08,105.84 -109.39,18.18 -117.11,27.06 -211.68,141.12 -357.98,-357.98 -139.28,21.33 -564.48,-176.39l0 -141.13c-365.27,-288.69 -228.84,-304.5 -420.06,-636.86 -122.07,-7.3 -131.51,-24.33 -250.27,-33.45"/>
  <line class="fil0 str0" x1="34716.66" y1="11011.27" x2="34646.1" y2= "11046.55" />
  <path class="fil0 str0" d="M34646.1 11046.55c-106.79,42.38 -35.53,35.28 -176.4,35.28"/>
  <path class="fil0 str0" d="M34469.7 11081.83c-73.14,45.53 12.48,35.28 -105.84,35.28"/>
  <path class="fil0 str0" d="M29530.49 13057.52c106.8,-42.38 35.53,-35.28 176.4,-35.28 216.98,-296.42 17.43,53.13 352.8,-282.24 89.96,91.96 128.21,148.71 211.68,211.67l102.54 -178.22c165.22,60.07 61.61,18.69 144.42,1.83 69.78,108.99 18.46,40.51 105.85,105.84 80.28,-112.69 57.41,-93.58 105.84,-211.68 110.52,-53.8 109.04,-48.6 211.68,-141.12 -34.5,-74.19 -64.15,-139.44 -105.85,-211.68 -157.47,3.44 -147.97,16.71 -282.24,70.56 -115.07,-183.38 26.4,-138.64 246.96,-317.52 141.79,0 69.8,6.1 176.4,-35.28 -53.22,-99.49 -66.73,-119.97 -141.12,-211.67 126.94,-107.44 93.45,-85.29 246.97,-105.85 73.48,200.57 2.5,88.05 0,282.24 215.94,67.24 126.78,-40.84 352.79,-105.84 91.41,-69.18 -50.35,-126.13 141.13,35.28 -186.53,186.52 -52.35,52.84 -70.56,141.12 478.89,-165.71 336.08,-214.86 529.2,-246.96 63.41,50.12 76.62,62.72 141.12,105.84 197.92,244.34 247.47,-152.05 599.76,-35.28 43.91,-101.97 25.2,-12.81 35.28,-141.12l178.22 -102.54c182.46,-21.48 141.45,-26.26 245.14,-179.7 65.57,-62.09 488.3,-281.18 811.44,-176.4 208.59,-188.02 115.45,-32.44 317.52,-176.4"/>
  <path class="fil0 str0" d="M36621.79 11787.44c-51.15,44.51 -10.1,152.31 -70.56,-35.28"/>
  <line class="fil0 str0" x1="31470.89" y1="11893.27" x2="31435.61" y2= "11893.27" />
  <path class="fil0 str0" d="M30553.61 16479.68c48.81,-293.76 389.08,-110.96 423.36,-458.64 -280.34,-78.66 -154.74,-280.01 -246.96,-388.08 -66.75,-42.75 -77.21,-54.27 -141.12,-105.85 -144.41,8.44 -40.32,37.77 -211.68,-70.55l-278.88 147.79c-77.66,-31.3 -110.2,-44.88 -179.76,-77.24 -4.21,-64.4 -5.29,-80.24 0,-176.4 -101.41,-101.41 -136.75,-136.07 -211.68,-246.96 -104.16,21.83 -106.33,2.27 -141.12,0 -112.01,-165.75 -270.51,-369.21 -458.64,-458.64 -16.98,-60.52 -18.97,-65.91 -35.28,-141.12l-352.79 -246.97"/>
  <line class="fil0 str0" x1="28683.77" y1="14292.32" x2="28648.49" y2= "14257.04" />
  <path class="fil0 str0" d="M34681.38 14680.4c-65.39,16.01 -31.11,69.19 -70.56,-35.28"/>
  <path class="fil0 str1" d="M26238.15 18556.01c47.23,-733.05 534.87,-106.81 455.74,-590.35 -235.23,-135.64 354.35,-260.91 552.5,-451.27 314.27,-301.91 58.57,121.09 248.31,-459.84 108.02,-330.69 354.04,53.97 724.26,-205.48 501.69,-351.61 1216.98,-391.61 1803.59,-459.84 527.8,-61.39 608.32,84.53 506.62,291.15"/>
 </g>
</svg>
