<?xml version="1.0" standalone="no"?>
<!DOCTYPE svg PUBLIC "-//W3C//DTD SVG 20010904//EN"
 "http://www.w3.org/TR/2001/REC-SVG-20010904/DTD/svg10.dtd">
<svg version="1.0" xmlns="http://www.w3.org/2000/svg"
 width="2079.000000pt" height="1470.000000pt" viewBox="0 0 2079.000000 1470.000000"
 preserveAspectRatio="xMidYMid meet">

<g transform="translate(0.000000,1470.000000) scale(0.100000,-0.100000)"
fill="#020202" stroke="#010101">
<path id="1" fill="252929" d="M7183 12878 c-2 -5 -12 -8 -22 -8 -10 0 -26 -9 -36 -20 -12 -13 -33
-20 -68 -22 -41 -2 -52 -7 -57 -23 -6 -25 -41 -65 -56 -65 -6 0 -28 -18 -49
-39 -34 -35 -45 -40 -103 -46 -52 -5 -65 -11 -69 -26 -5 -16 -15 -19 -73 -19
-60 0 -71 -3 -87 -24 -10 -13 -39 -32 -65 -43 -25 -12 -49 -26 -52 -32 -4 -6
-25 -11 -47 -11 -43 0 -81 -30 -92 -71 -8 -31 23 -20 43 16 14 26 23 30 64 33
33 2 50 9 59 23 6 10 22 19 34 19 12 0 25 5 28 10 4 6 10 8 15 5 5 -3 22 11
38 30 25 31 30 34 42 20 14 -17 50 -21 50 -5 0 6 10 10 23 10 12 0 33 9 47 20
14 11 40 20 58 20 39 0 69 14 97 44 25 26 60 46 81 46 11 0 14 6 9 20 -5 16
-2 20 14 20 17 0 21 6 21 31 0 32 0 32 44 26 35 -5 47 -3 61 13 11 12 31 20
52 20 18 0 33 5 33 10 0 6 13 10 28 10 20 0 37 -10 58 -35 16 -19 35 -35 42
-35 7 0 20 -9 29 -20 10 -11 27 -20 40 -20 12 0 25 -4 28 -10 3 -5 26 -10 51
-10 24 0 44 -4 44 -10 0 -6 33 -10 80 -10 47 0 80 4 80 10 0 17 36 11 55 -10
16 -17 31 -20 120 -20 l101 0 34 -35 34 -35 115 2 116 2 -96 3 -96 4 -38 39
-39 40 -99 0 c-81 0 -103 3 -122 18 -14 11 -36 18 -52 16 -151 -17 -173 -17
-194 2 -12 11 -32 17 -48 16 -32 -4 -88 26 -144 75 -21 19 -49 34 -65 34 -15
1 -42 2 -60 3 -19 0 -36 -2 -39 -6z"/>
<path id="2" fill="252929" d="M8955 12663 c-22 -3 -44 -11 -48 -19 -6 -11 -41 -14 -177 -14 -102 0
-171 -4 -175 -10 -7 -12 -201 -14 -209 -2 -6 10 -66 15 -66 5 0 -5 12 -14 27
-20 33 -16 269 -18 278 -3 4 6 72 10 171 10 153 0 165 1 176 20 10 16 24 20
63 20 48 0 54 -3 100 -51 28 -27 66 -57 85 -65 19 -9 43 -20 52 -25 10 -5 64
-9 121 -9 88 0 106 3 120 18 40 44 6 57 -38 16 -26 -24 -34 -26 -106 -22 -55
2 -82 8 -96 21 -11 9 -26 17 -34 17 -8 0 -41 27 -74 60 -64 64 -61 64 -170 53z"/>
<path id="3" d="M9568 12538 c17 -17 15 -48 -2 -48 -8 0 -27 -11 -41 -24 -20 -19 -24
-30 -19 -51 4 -18 2 -30 -6 -35 -24 -15 -13 -230 11 -230 5 0 9 -8 9 -18 0
-23 46 -116 65 -132 8 -7 15 -27 15 -45 0 -31 25 -65 48 -65 16 0 15 12 -3 36
-8 10 -15 26 -15 35 0 24 -30 80 -46 86 -8 3 -14 15 -14 27 0 13 -3 26 -7 29
-28 29 -62 210 -41 223 4 3 8 17 8 32 0 34 25 70 56 82 42 16 29 110 -15 110
-12 0 -12 -3 -3 -12z"/>
<path d="M12995 12535 c-16 -7 -48 -15 -69 -18 -50 -7 -86 -33 -110 -81 -17
-36 -20 -37 -65 -34 -38 2 -47 7 -49 24 -2 12 -19 36 -38 55 l-35 34 -117 -1
c-148 0 -197 -10 -222 -42 -21 -26 -27 -86 -10 -97 17 -10 11 -55 -11 -86 -17
-25 -27 -29 -65 -29 l-44 0 0 53 c0 64 -19 87 -72 87 -31 0 -37 -4 -48 -32
-15 -37 -68 -98 -85 -98 -6 0 -17 -16 -25 -35 -13 -33 -17 -35 -58 -35 -41 0
-47 4 -118 77 -41 42 -74 82 -74 88 0 6 -11 22 -24 34 -19 18 -33 22 -72 19
-47 -3 -48 -4 -60 -45 -11 -38 -10 -45 7 -67 10 -13 19 -29 19 -34 0 -5 9 -12
20 -15 11 -3 20 -12 20 -21 0 -26 -107 -22 -136 4 -18 17 -39 22 -126 27 -121
7 -154 1 -163 -28 -5 -15 -10 -18 -18 -10 -14 14 -54 14 -63 0 -4 -7 -22 -9
-48 -5 -22 3 -68 9 -102 12 -58 6 -63 5 -96 -25 -30 -26 -44 -31 -85 -31 -27
0 -54 5 -60 11 -15 15 -145 7 -151 -9 -2 -7 -20 -9 -51 -5 -31 3 -51 1 -55 -6
-4 -6 -15 -11 -25 -11 -29 0 -61 -42 -61 -82 0 -22 -7 -41 -20 -53 -11 -10
-20 -28 -20 -41 0 -13 -4 -26 -10 -29 -5 -3 -10 -19 -10 -35 0 -16 5 -32 10
-35 6 -3 10 -39 10 -80 0 -41 5 -77 10 -80 17 -11 11 -51 -10 -70 -20 -18 -22
-18 -75 35 -44 44 -55 61 -55 87 0 17 5 35 10 38 6 4 10 55 10 119 0 100 -2
115 -20 131 -11 10 -20 27 -20 37 0 10 -7 32 -15 48 -15 30 -16 30 -108 30
-59 0 -97 -4 -105 -12 -7 -7 -12 -31 -12 -53 0 -31 -6 -47 -25 -65 -14 -13
-25 -28 -25 -34 0 -15 -70 -89 -104 -111 -15 -10 -43 -18 -62 -17 -28 1 -34
-2 -34 -18 0 -22 34 -28 46 -9 3 6 14 9 25 6 10 -3 25 3 35 14 9 10 22 19 27
19 6 0 20 9 32 20 19 18 26 19 49 9 20 -10 26 -19 26 -46 0 -18 5 -33 10 -33
6 0 10 -14 10 -30 0 -17 6 -39 12 -50 16 -25 1 -54 -31 -58 -13 -2 -21 -11
-21 -23 0 -10 -5 -19 -11 -19 -6 0 -9 -9 -6 -20 6 -23 -39 -50 -83 -50 -15 0
-41 -7 -58 -15 -25 -13 -32 -24 -37 -59 -10 -61 -3 -89 22 -102 33 -16 63 -45
63 -61 0 -8 12 -13 30 -13 l30 0 0 -73 c0 -44 5 -78 12 -85 10 -10 10 -17 0
-32 -6 -11 -12 -45 -12 -75 0 -53 1 -56 23 -53 18 2 23 -2 25 -27 2 -16 8 -34
13 -40 5 -5 9 -22 9 -37 0 -20 5 -28 18 -28 10 0 35 -20 56 -45 35 -40 43 -45
82 -45 23 0 46 -4 49 -10 3 -5 17 -10 30 -10 13 0 27 -4 30 -10 3 -5 19 -10
34 -10 33 0 71 -37 71 -68 0 -12 5 -22 10 -22 6 0 10 -10 10 -22 0 -15 11 -29
30 -40 20 -11 30 -25 30 -41 0 -31 39 -67 73 -67 20 0 27 5 27 20 0 11 6 20
13 20 8 0 22 9 32 20 13 15 31 20 65 20 57 0 93 -16 108 -49 16 -34 15 -45 -8
-66 -12 -11 -20 -31 -20 -52 0 -24 -5 -33 -16 -33 -9 0 -25 -11 -36 -25 -11
-14 -28 -25 -38 -25 -30 0 -32 -17 -5 -38 14 -11 25 -29 25 -41 0 -14 9 -25
25 -31 17 -6 25 -17 25 -33 0 -13 9 -32 20 -42 21 -19 27 -45 10 -45 -5 0 -10
-6 -10 -14 0 -7 -9 -16 -21 -19 -12 -3 -18 -10 -15 -15 12 -19 9 -216 -3 -220
-6 -2 -11 -25 -11 -53 0 -48 -1 -49 -29 -49 -17 0 -33 5 -36 10 -3 6 -21 10
-40 10 -19 0 -37 5 -40 10 -3 6 -17 10 -31 10 -13 0 -24 5 -24 10 0 6 -15 10
-34 10 -19 0 -38 5 -41 10 -12 19 -44 11 -47 -12 -2 -13 -13 -27 -25 -33 -13
-5 -23 -14 -23 -20 0 -12 -131 -122 -167 -142 -18 -9 -25 -8 -39 8 -24 27 -85
25 -110 -2 -10 -12 -30 -25 -43 -30 -13 -5 -21 -12 -17 -16 8 -9 -24 -43 -41
-43 -7 0 -13 -8 -13 -18 0 -25 -25 -75 -47 -94 -10 -8 -32 -21 -49 -28 -22
-10 -37 -28 -55 -67 -21 -47 -49 -71 -49 -43 0 6 -6 10 -14 10 -8 0 -21 8 -28
18 -7 9 -25 23 -40 29 -30 13 -35 32 -16 51 15 15 12 75 -5 115 l-12 27 -113
0 c-109 0 -113 1 -122 24 -9 25 -60 56 -90 56 -10 0 -21 8 -24 18 -13 36 -36
66 -94 126 -33 33 -65 71 -71 84 -17 33 -55 44 -146 42 -70 -1 -83 2 -99 19
-11 12 -25 21 -33 21 -7 0 -13 8 -13 18 0 30 -21 42 -72 42 -26 0 -48 5 -48
10 0 6 -9 10 -20 10 -29 0 -54 15 -144 92 -39 33 -39 33 -133 29 -77 -2 -98 0
-113 14 -22 20 -130 34 -130 16 0 -6 -17 -11 -40 -11 -33 0 -40 3 -40 20 0 13
-7 20 -20 20 -16 0 -20 7 -20 34 0 19 -4 38 -10 41 -18 11 -11 37 15 57 14 11
34 39 45 62 10 24 26 49 35 56 8 7 22 29 31 49 26 59 30 66 52 77 53 27 81 81
52 99 -5 3 -10 15 -10 26 0 12 -7 19 -20 19 -11 0 -20 5 -20 10 0 6 -9 10 -20
10 -13 0 -20 7 -20 18 0 28 -32 52 -68 52 -17 0 -34 5 -37 10 -3 6 -15 10 -26
10 -14 0 -19 7 -19 25 0 18 5 25 20 25 15 0 20 7 20 25 0 14 5 25 10 25 6 0
10 20 10 45 0 30 -4 45 -13 45 -23 0 -67 25 -67 38 0 8 -19 12 -60 12 -46 0
-61 4 -69 17 -7 12 -27 19 -67 23 l-58 5 3 58 c2 53 0 59 -28 83 -38 31 -42
57 -8 49 31 -8 51 17 53 63 1 26 -4 36 -18 40 -10 2 -18 6 -18 8 0 7 24 48 40
67 14 18 15 91 2 112 -4 5 -7 15 -7 20 0 14 -255 19 -269 5 -5 -5 -25 -10 -43
-10 -18 0 -33 -3 -33 -7 0 -14 -53 -33 -92 -33 -27 0 -38 -4 -38 -15 0 -11
-12 -15 -45 -15 -38 0 -45 -3 -45 -20 0 -17 -7 -20 -38 -20 -26 0 -45 7 -57
20 -14 15 -31 20 -71 20 -46 0 -55 -4 -77 -30 l-26 -30 -120 0 c-74 0 -121 4
-121 10 0 6 -26 10 -59 10 -33 0 -63 -4 -66 -10 -3 -5 -33 -10 -66 -10 -33 0
-59 -4 -59 -10 0 -5 -7 -10 -15 -10 -12 0 -15 15 -15 73 0 61 -3 77 -20 92
-12 11 -18 25 -15 36 3 9 1 20 -5 24 -5 3 -10 15 -10 26 0 19 -21 49 -35 49
-12 0 -56 55 -66 83 -7 16 -18 27 -30 27 -12 0 -19 7 -19 20 0 11 -4 20 -10
20 -5 0 -10 18 -10 40 0 22 5 40 10 40 6 0 10 6 10 13 0 7 13 25 28 40 21 20
27 34 24 55 -2 19 3 33 17 46 15 14 21 31 21 63 0 23 5 43 10 43 6 0 10 11 10
24 0 14 5 28 10 31 6 3 10 22 10 41 0 28 4 34 21 34 16 0 19 4 14 21 -6 18 -3
20 21 17 15 -2 29 2 31 9 3 9 -4 11 -29 6 -40 -7 -88 -39 -89 -59 -1 -8 -3
-17 -4 -21 -1 -5 -6 -23 -10 -41 -4 -18 -12 -35 -16 -38 -5 -3 -9 -24 -9 -48
0 -30 -6 -48 -20 -61 -14 -12 -20 -31 -20 -59 0 -30 -5 -44 -20 -54 -11 -7
-20 -21 -20 -32 0 -12 -8 -23 -17 -26 -10 -3 -49 -21 -87 -40 -54 -27 -80 -34
-127 -34 -33 0 -67 -4 -77 -9 -29 -14 -87 -31 -110 -31 -25 0 -94 -36 -105
-56 -4 -8 -14 -14 -21 -14 -13 0 -54 -43 -72 -75 -19 -37 -47 -90 -54 -105 -4
-8 -16 -19 -28 -25 -12 -5 -22 -13 -22 -18 0 -24 -115 -157 -137 -157 -7 0
-22 -20 -33 -45 -11 -25 -25 -45 -30 -45 -16 0 -150 -144 -150 -162 0 -9 -4
-20 -10 -23 -5 -3 -10 -21 -10 -40 0 -19 -4 -37 -10 -40 -5 -3 -10 -19 -10
-35 0 -16 -4 -32 -10 -35 -15 -9 -12 -48 5 -71 8 -10 15 -30 15 -42 0 -13 7
-40 16 -59 13 -25 14 -37 5 -46 -6 -6 -11 -37 -11 -68 0 -50 -3 -60 -26 -78
-16 -12 -41 -21 -62 -21 -36 0 -62 -18 -168 -117 -35 -32 -44 -47 -39 -62 12
-38 -67 -136 -119 -147 -17 -4 -39 -16 -48 -27 -20 -22 -24 -62 -8 -72 6 -3
10 -33 10 -65 0 -32 4 -62 10 -65 5 -3 10 -21 10 -39 0 -17 5 -37 12 -44 9 -9
9 -15 0 -24 -7 -7 -12 -20 -12 -30 0 -21 -2 -23 -58 -88 -64 -75 -92 -116 -92
-137 0 -11 -11 -30 -24 -43 -14 -12 -28 -35 -31 -51 l-6 -28 -127 -3 -127 -3
-1 -37 c0 -21 -3 -41 -7 -45 -10 -10 -8 -71 2 -77 15 -10 81 -150 81 -172 0
-12 -7 -27 -15 -34 -9 -7 -22 -27 -31 -45 -14 -30 -42 -51 -86 -65 -25 -7
-128 -130 -128 -152 0 -42 -49 -95 -120 -129 -25 -12 -70 -43 -101 -70 -56
-49 -57 -49 -61 -114 -3 -49 -9 -70 -26 -88 -12 -13 -22 -34 -22 -48 0 -34
-22 -78 -42 -84 -18 -6 -66 -59 -112 -124 -17 -22 -35 -41 -40 -41 -6 0 -30
-16 -54 -35 -24 -18 -64 -43 -90 -55 -26 -12 -54 -26 -62 -31 -8 -5 -26 -14
-40 -20 -14 -6 -33 -15 -42 -20 -10 -5 -23 -9 -29 -9 -6 0 -29 -16 -52 -35
-22 -19 -48 -35 -57 -35 -9 0 -29 -13 -45 -30 -16 -16 -34 -30 -41 -30 -32 0
-122 -60 -189 -126 -88 -86 -101 -94 -154 -94 -22 0 -43 -4 -46 -10 -3 -5 -24
-10 -46 -10 -33 0 -50 -8 -92 -43 -29 -24 -63 -48 -77 -54 -14 -6 -52 -34 -83
-63 l-57 -52 0 -67 c0 -64 1 -67 33 -88 43 -30 61 -29 83 5 36 56 64 73 173
107 48 15 55 15 70 1 10 -9 27 -16 39 -16 11 0 24 -4 27 -10 8 -13 52 -13 60
0 8 13 62 13 70 0 3 -6 32 -10 64 -10 45 0 62 -4 76 -20 16 -17 31 -20 110
-20 71 0 96 4 105 15 24 28 101 75 124 75 27 0 46 -20 70 -72 16 -36 20 -38
63 -38 34 0 53 6 75 25 25 21 36 24 71 19 40 -5 70 -15 109 -35 24 -12 125
-11 133 1 3 6 17 10 30 10 13 0 27 5 30 10 4 7 16 3 33 -8 15 -10 35 -22 44
-25 12 -4 18 -17 18 -37 0 -29 2 -30 44 -30 25 0 48 4 51 10 3 6 19 10 34 10
43 0 51 16 51 108 0 76 2 86 28 118 26 33 64 45 77 24 3 -5 17 -10 30 -10 13
0 27 -4 30 -10 3 -5 21 -10 39 -10 34 0 126 -41 146 -65 7 -8 18 -15 25 -15 7
0 18 -7 25 -15 7 -8 22 -15 34 -15 12 0 35 -14 51 -30 26 -27 35 -30 90 -30
49 0 66 4 80 20 24 26 86 27 108 2 10 -10 17 -35 17 -55 l0 -37 44 0 c25 0 48
5 51 10 8 13 88 13 101 1 5 -5 20 -11 34 -13 19 -2 26 -10 28 -30 3 -27 5 -28
62 -28 32 0 62 4 65 10 3 6 26 10 51 10 48 0 71 10 121 51 29 25 35 26 80 17
26 -6 52 -14 57 -19 6 -5 20 -9 32 -9 13 0 26 -4 29 -10 8 -13 88 -13 102 1
18 18 66 6 79 -18 6 -13 18 -31 27 -41 10 -10 17 -24 17 -30 0 -7 16 -12 39
-12 22 0 44 -6 51 -15 22 -27 73 -45 126 -45 29 0 56 -4 59 -10 3 -5 19 -10
34 -10 15 0 51 -11 79 -25 36 -17 69 -25 106 -25 30 0 58 -4 61 -10 3 -5 39
-9 80 -8 72 2 105 -9 105 -35 0 -6 7 -19 17 -29 9 -10 21 -28 27 -41 7 -13 23
-23 39 -25 23 -3 27 -8 27 -37 0 -19 -4 -37 -10 -40 -17 -10 -11 -61 8 -78 12
-11 36 -17 65 -17 25 0 49 -4 52 -10 3 -5 19 -10 34 -10 31 0 91 55 91 83 0
14 8 33 27 66 2 2 12 -4 23 -14 21 -19 76 -24 117 -11 27 9 57 -6 104 -51 l36
-34 89 3 c86 3 89 4 102 31 16 33 60 37 87 7 16 -18 31 -20 122 -20 96 0 105
-2 110 -20 5 -17 14 -20 59 -20 35 0 66 7 89 20 20 11 53 20 75 20 22 0 55 9
73 19 26 14 59 20 136 23 l101 3 0 -26 c0 -33 56 -86 95 -91 29 -3 30 -5 35
-67 5 -59 8 -66 35 -82 17 -10 40 -18 52 -18 12 -1 25 -5 28 -11 3 -5 19 -10
34 -10 16 0 34 -7 41 -16 17 -20 78 -45 105 -43 40 3 45 -1 45 -34 0 -27 5
-34 33 -46 42 -18 97 -70 97 -92 0 -30 20 -64 43 -74 20 -9 22 -18 25 -109 3
-92 5 -102 32 -139 16 -22 27 -44 24 -49 -9 -14 6 -48 22 -48 20 0 18 -16 -7
-50 -12 -16 -19 -35 -16 -42 2 -8 -4 -31 -14 -53 -19 -39 -25 -86 -12 -99 4
-4 12 -21 18 -39 9 -26 8 -38 -7 -65 -29 -54 -24 -82 27 -132 25 -24 45 -50
45 -57 0 -7 6 -13 14 -13 21 0 30 -20 17 -33 -15 -15 -15 -154 1 -159 20 -7 0
-38 -24 -38 -17 0 -29 -12 -45 -44 -22 -44 -22 -44 -3 -69 11 -14 20 -36 20
-49 0 -35 47 -75 100 -85 38 -7 45 -12 48 -35 2 -14 12 -34 23 -44 10 -9 19
-29 19 -44 0 -15 7 -33 15 -40 8 -7 15 -22 15 -34 0 -23 52 -78 83 -89 9 -4
17 -13 17 -22 0 -8 6 -15 13 -15 8 0 22 -10 33 -21 10 -12 39 -31 64 -43 48
-23 63 -53 35 -76 -26 -22 -19 -73 16 -106 17 -16 39 -47 49 -70 24 -52 81
-104 143 -129 46 -19 62 -45 36 -60 -6 -4 -8 -14 -4 -23 8 -21 -51 -141 -86
-173 -24 -23 -29 -35 -29 -76 0 -51 -12 -73 -41 -73 -29 0 -49 -40 -49 -95 0
-37 9 -68 36 -122 36 -73 64 -103 95 -103 9 0 22 -7 29 -15 14 -17 75 -20 85
-5 3 5 17 10 29 10 13 0 29 7 36 15 10 12 38 15 133 15 120 0 121 0 152 29 36
34 75 49 75 28 0 -7 10 -23 23 -35 21 -20 34 -22 126 -22 94 0 103 2 108 20 4
16 14 20 48 20 29 0 47 -6 60 -20 16 -18 31 -20 138 -20 97 0 124 -3 138 -16
19 -17 25 -16 74 15 46 29 68 26 89 -13 13 -24 36 -43 72 -61 37 -18 51 -30
47 -40 -3 -8 -10 -15 -17 -15 -6 0 -17 -15 -24 -33 -8 -17 -22 -49 -33 -70
-11 -23 -19 -60 -19 -87 0 -27 -4 -52 -10 -55 -5 -3 -10 -33 -10 -65 0 -32 -5
-62 -11 -65 -6 -4 -8 -13 -5 -21 3 -8 -3 -20 -14 -26 -15 -10 -20 -24 -20 -60
0 -26 5 -50 10 -53 6 -3 19 -25 29 -48 21 -45 39 -65 82 -86 40 -20 62 -10 85
37 12 23 29 51 38 60 9 10 16 24 16 30 0 7 6 12 13 12 16 0 57 42 57 58 0 29
100 3 130 -33 20 -24 71 -45 110 -45 32 0 44 7 79 45 23 25 47 45 54 45 8 0
23 -10 35 -23 18 -19 22 -35 22 -88 0 -60 3 -68 30 -94 17 -16 37 -42 45 -58
13 -26 13 -28 -11 -37 -20 -8 -24 -16 -24 -48 0 -32 7 -45 48 -85 43 -42 52
-47 93 -47 l46 0 -5 -50 c-4 -46 -3 -50 17 -50 12 0 34 8 49 18 15 10 36 23
47 28 11 6 29 24 40 41 13 19 43 40 83 58 62 28 113 71 161 134 21 28 23 40
19 111 -3 68 -1 80 14 84 10 2 22 15 27 28 5 12 41 52 80 88 200 182 244 228
262 267 11 25 28 44 41 48 47 13 114 51 153 86 75 69 103 89 122 89 11 0 32
13 48 30 15 16 41 32 56 35 16 4 31 11 34 16 4 5 14 9 24 9 10 0 35 13 57 30
21 16 44 30 50 30 6 0 21 11 34 25 13 14 29 25 35 25 7 0 20 9 30 20 10 11 23
20 30 20 6 0 24 13 40 30 16 16 39 30 51 30 13 0 33 4 46 9 13 6 40 13 61 16
26 4 41 13 47 28 10 26 87 101 113 110 9 4 17 13 17 22 0 8 6 15 14 15 7 0 19
7 26 15 13 16 90 55 108 55 5 0 23 7 40 16 27 13 32 21 32 49 0 19 9 51 20 70
11 20 18 40 15 44 -7 12 33 61 49 61 7 0 23 11 36 25 13 14 66 46 117 71 51
25 93 51 93 56 0 6 8 18 18 27 10 9 21 24 25 34 4 10 17 17 34 17 18 0 40 13
65 37 26 26 46 36 68 36 30 0 30 0 30 59 0 45 -5 63 -20 78 -28 28 -93 24
-105 -7 -8 -22 2 -28 19 -14 20 17 71 10 71 -9 0 -9 -14 -17 -38 -21 -68 -11
-88 -61 -34 -87 21 -10 21 -11 2 -12 -11 0 -29 -7 -39 -15 -11 -8 -26 -15 -35
-15 -22 0 -50 -30 -44 -46 3 -9 -2 -14 -16 -14 -15 0 -21 -6 -21 -21 0 -14 -5
-19 -14 -16 -8 3 -21 -2 -30 -12 -9 -10 -35 -24 -59 -32 -23 -7 -48 -21 -55
-31 -7 -10 -19 -18 -26 -18 -6 0 -27 -16 -46 -35 -19 -19 -42 -35 -52 -35 -14
0 -18 -8 -18 -33 0 -21 -8 -41 -20 -52 -14 -12 -20 -31 -20 -59 0 -35 -4 -43
-27 -53 -42 -20 -74 -15 -105 14 -22 21 -28 36 -28 69 0 45 -3 41 89 108 38
28 40 32 38 77 -2 37 3 53 21 71 26 29 30 78 6 78 -14 0 -53 36 -54 51 0 9 94
102 118 117 12 6 31 12 42 12 18 0 20 7 20 61 0 80 11 88 113 89 75 0 77 1 77
24 0 14 5 28 10 31 6 4 10 16 8 28 -2 17 3 23 25 25 15 2 27 9 27 16 0 7 9 21
20 31 11 10 20 27 20 38 0 18 1 18 25 3 13 -9 30 -16 37 -16 29 -1 58 -38 58
-74 l0 -36 50 0 c28 0 50 3 50 8 0 4 14 13 31 21 28 12 32 12 45 -8 15 -21 54
-29 54 -12 0 5 10 11 23 13 12 2 26 13 32 26 5 12 16 22 23 22 7 0 15 7 19 16
4 11 14 14 33 11 23 -5 36 3 86 54 32 32 64 59 70 59 7 0 21 11 32 25 11 14
27 25 35 25 8 0 27 14 40 30 14 17 32 30 40 30 8 0 28 15 44 33 44 48 66 57
143 57 56 0 71 3 79 18 5 10 25 24 45 32 19 7 37 20 38 29 2 11 16 14 66 12
39 -1 62 2 62 8 0 6 9 11 20 11 22 0 61 19 72 35 5 7 14 6 28 -2 24 -15 120
-17 120 -3 0 6 14 10 30 10 17 0 30 5 30 10 0 6 31 10 74 10 41 0 78 5 81 10
4 6 11 8 16 4 16 -9 49 26 49 53 0 21 4 23 56 23 60 0 79 -7 119 -44 38 -36
29 -96 -15 -96 -8 0 -21 -9 -28 -20 -7 -11 -23 -20 -36 -20 -14 0 -28 -4 -31
-10 -3 -5 -33 -10 -66 -10 -33 0 -59 -4 -59 -10 0 -5 -18 -10 -40 -10 -23 0
-40 -5 -40 -11 0 -7 -9 -9 -24 -5 -17 4 -26 1 -30 -10 -4 -9 -13 -14 -21 -10
-9 3 -31 -3 -50 -14 -20 -11 -53 -20 -74 -20 -26 0 -41 -5 -45 -15 -3 -9 -19
-21 -36 -26 -24 -9 -30 -17 -30 -40 0 -16 -4 -29 -10 -29 -5 0 -10 -8 -10 -17
0 -10 -14 -29 -31 -42 -16 -13 -28 -30 -25 -37 3 -7 0 -14 -7 -17 -7 -2 -11
-19 -9 -41 4 -37 -21 -82 -38 -71 -4 3 -13 -1 -19 -9 -7 -8 -20 -12 -31 -9
-12 3 -23 -3 -32 -16 -8 -13 -23 -21 -40 -21 -16 0 -28 -4 -28 -10 0 -5 -7
-10 -15 -10 -8 0 -15 6 -15 13 0 8 -9 22 -20 32 -11 10 -20 29 -20 42 0 22 -3
23 -65 23 -71 0 -105 -20 -105 -60 0 -16 -5 -19 -24 -14 -13 3 -27 1 -30 -5
-4 -6 -18 -11 -32 -11 -13 0 -24 -4 -24 -10 0 -5 -13 -10 -30 -10 -16 0 -30
-4 -30 -10 0 -5 -16 -10 -35 -10 -19 0 -35 -4 -35 -10 0 -5 -8 -10 -17 -10
-10 0 -40 -12 -68 -26 -27 -13 -59 -23 -70 -20 -13 4 -27 -3 -41 -21 -16 -21
-29 -26 -59 -25 -20 1 -46 -3 -56 -9 -13 -6 -19 -6 -19 1 0 5 -7 10 -15 10
-10 0 -15 -10 -15 -30 0 -16 -4 -30 -10 -30 -5 0 -10 -11 -10 -24 0 -14 5 -28
10 -31 6 -3 10 -15 10 -26 0 -10 7 -19 15 -19 11 0 15 11 15 35 0 25 5 38 18
42 9 3 25 13 35 21 16 14 17 11 17 -41 0 -44 3 -57 15 -57 11 0 15 13 15 53 0
49 12 77 32 77 4 0 8 -18 8 -39 0 -56 15 -91 40 -91 11 0 20 7 20 15 0 8 -7
15 -15 15 -11 0 -15 12 -15 50 0 38 4 50 15 50 8 0 15 9 15 20 0 11 6 20 13
20 21 0 77 30 77 41 0 5 11 9 24 9 14 0 28 4 31 10 3 5 17 10 30 10 13 0 27 4
30 10 3 6 22 10 41 10 19 0 34 5 34 10 0 6 11 10 24 10 14 0 28 5 31 10 3 6
17 10 31 10 13 0 24 6 24 13 0 24 45 57 78 57 27 0 32 -4 32 -24 0 -15 7 -26
20 -29 15 -4 20 -14 20 -41 0 -43 19 -47 75 -16 20 11 42 20 49 20 7 0 19 7
26 15 7 8 31 20 54 26 56 15 76 35 76 77 0 42 24 97 61 137 15 17 29 41 31 55
2 13 13 30 25 36 13 6 31 18 40 26 10 9 36 18 58 21 38 4 91 20 127 38 10 5
25 9 33 9 8 0 24 5 35 10 11 6 29 15 40 20 11 6 44 10 74 10 30 0 58 5 61 10
3 6 21 10 39 10 17 0 37 5 44 12 9 9 15 9 24 0 7 -7 43 -12 89 -12 43 0 81 -4
84 -10 3 -5 32 -10 64 -10 45 0 62 -4 76 -20 10 -11 28 -20 41 -20 13 0 26 -4
29 -10 3 -5 33 -10 66 -10 56 0 59 -1 59 -25 0 -24 2 -25 74 -25 56 0 75 4 80
15 7 19 36 19 36 0 0 -20 12 -19 55 5 20 11 42 20 50 20 12 0 15 18 15 90 0
87 -1 91 -25 102 -19 9 -25 19 -25 44 0 18 -4 36 -10 39 -5 3 -10 19 -10 35 0
35 43 60 102 60 48 0 72 12 120 57 35 34 58 37 58 7 0 -12 14 -14 73 -12 l72
3 3 63 c3 54 5 62 23 62 10 0 28 -5 38 -12 26 -16 51 -3 51 27 0 24 2 25 73
25 73 0 127 15 127 36 0 6 9 19 20 29 26 24 26 55 0 62 -34 9 -19 37 25 47 62
13 107 38 125 71 41 74 168 89 181 20 4 -18 14 -20 94 -23 72 -2 97 1 130 17
22 10 48 22 58 25 15 5 -4 29 -103 126 -66 66 -127 120 -134 120 -17 0 -46 32
-46 51 0 17 50 69 66 69 34 0 62 98 34 115 -7 4 -7 12 0 25 5 10 10 37 10 59
0 22 9 56 20 76 11 20 20 47 20 61 0 14 7 27 18 31 9 3 30 16 47 27 39 27 196
106 211 106 6 0 32 11 58 25 26 14 63 25 82 25 33 0 42 3 91 28 13 7 32 12 42
12 11 0 23 5 27 12 5 7 10 4 15 -10 13 -33 54 -29 119 12 8 6 55 9 105 7 86
-2 91 -1 114 23 18 19 35 26 61 26 52 0 72 26 79 102 6 59 8 63 32 66 15 2 35
12 45 23 9 10 25 19 34 19 20 0 60 72 60 107 0 17 -16 41 -46 72 -73 73 -90
81 -169 81 -42 0 -81 6 -99 15 -15 8 -38 15 -51 15 -12 0 -28 7 -35 15 -14 16
-75 21 -85 6 -3 -6 -26 -19 -50 -30 -25 -12 -65 -30 -89 -41 -54 -25 -71 -25
-110 0 -24 14 -48 19 -102 18 -39 -1 -75 2 -81 5 -7 4 -9 21 -6 40 4 26 -1 40
-21 65 -15 17 -37 34 -49 38 -40 12 -77 55 -77 90 0 18 -10 51 -22 74 -36 67
-164 116 -198 75 -8 -10 -30 -15 -65 -15 -42 0 -60 -6 -93 -29 -22 -16 -43
-34 -47 -40 -4 -7 -58 -11 -146 -11 -133 0 -141 -1 -180 -26 -23 -14 -44 -34
-46 -45 -4 -15 -14 -19 -54 -19 -39 0 -51 -4 -59 -21 -7 -11 -9 -27 -6 -35 7
-18 -49 -54 -85 -54 -41 0 -82 -26 -105 -67 -21 -38 -21 -38 -90 -41 -47 -2
-75 -8 -89 -20 -11 -9 -30 -23 -43 -30 -20 -11 -23 -10 -32 13 -6 15 -10 31
-10 36 0 5 -6 9 -13 9 -8 0 -22 9 -32 20 -13 14 -31 20 -59 20 -36 0 -44 -4
-59 -30 -10 -16 -26 -30 -35 -30 -9 0 -30 -7 -46 -15 -27 -14 -29 -14 -48 10
-22 28 -53 32 -95 11 -63 -32 -82 -38 -91 -32 -12 7 -10 39 5 76 17 43 7 50
-72 50 -80 0 -88 -5 -99 -60 -4 -24 -1 -45 11 -67 23 -43 8 -59 -62 -65 -64
-5 -109 -40 -121 -90 -5 -25 -1 -34 27 -59 28 -23 43 -28 90 -29 30 0 60 5 66
11 8 8 13 7 18 -1 4 -6 2 -17 -4 -23 -6 -6 -11 -21 -11 -34 0 -17 -7 -24 -27
-28 -48 -10 -58 -21 -61 -61 -5 -54 -17 -63 -46 -35 -30 28 -105 45 -125 28
-10 -9 -17 -6 -31 11 -25 30 -89 31 -97 2 -3 -11 -11 -20 -18 -20 -7 0 -23
-10 -37 -22 -67 -61 -80 -66 -184 -70 -66 -2 -110 -8 -131 -19 -17 -9 -34 -14
-37 -11 -3 3 -6 27 -6 54 l0 48 -48 0 c-41 0 -53 -5 -77 -30 -16 -16 -33 -30
-39 -30 -5 0 -17 -7 -27 -16 -17 -15 -20 -15 -45 5 -28 22 -78 28 -89 11 -3
-5 -27 -10 -52 -10 l-45 0 4 67 c4 60 7 69 36 93 63 52 34 120 -50 120 -45 0
-159 48 -175 73 -11 18 29 37 77 37 25 0 51 5 58 12 22 22 14 75 -18 111 -36
42 -37 47 -5 77 14 13 25 29 25 36 0 15 -42 46 -90 64 -19 8 -53 27 -74 42
-21 15 -47 28 -56 28 -10 0 -28 11 -41 25 -13 13 -31 25 -39 25 -8 0 -23 7
-33 15 -11 7 -38 16 -60 20 -78 12 -97 26 -97 66 0 29 -8 45 -39 77 -21 22
-42 49 -46 61 -3 12 -11 21 -16 21 -5 0 -9 22 -9 48 0 47 36 142 60 157 5 3
10 16 10 29 0 22 57 86 76 86 6 0 21 11 34 25 l23 25 -48 47 c-43 43 -53 48
-94 48 -46 0 -70 17 -32 23 10 2 26 18 35 36 20 42 34 53 70 58 46 5 56 32 23
66 -15 15 -27 31 -27 35 0 9 -36 62 -63 94 -20 23 -16 43 9 43 18 0 18 34 -1
50 -8 7 -20 30 -25 51 -9 34 -8 44 13 81 12 22 31 46 42 52 32 18 42 37 48 92
8 79 20 94 70 94 35 0 49 6 71 29 42 44 76 119 76 167 0 24 5 46 10 49 6 3 10
24 10 45 0 30 -4 40 -21 45 -15 5 -18 10 -10 18 6 6 11 37 11 68 l0 57 -37 5
c-147 22 -180 39 -215 115 -19 44 -20 44 -61 39 -26 -4 -47 -14 -57 -27 l-16
-22 -37 21 c-31 17 -55 21 -132 21 -52 0 -97 -4 -100 -10 -3 -5 -13 -10 -22
-10 -8 0 -28 -11 -45 -25 -16 -14 -42 -25 -58 -25 -16 0 -32 -4 -35 -10 -8
-12 -115 -13 -115 -1 0 5 -9 11 -19 14 -16 4 -18 11 -14 51 5 44 -2 71 -28
116 -5 8 -14 27 -20 43 -6 15 -15 27 -20 27 -5 0 -9 13 -9 29 0 15 -9 40 -20
54 -11 14 -20 32 -20 40 0 9 -24 27 -55 42 l-55 26 0 87 c0 58 -5 97 -15 116
-10 19 -15 59 -15 126 0 109 -11 130 -68 130 -24 0 -35 6 -46 28 -8 15 -28 40
-45 56 -39 37 -39 64 -1 101 32 30 38 63 18 94 -9 15 -8 23 8 44 11 13 28 45
39 70 l19 46 55 3 c51 3 56 5 74 38 23 42 19 126 -7 145 -9 7 -16 19 -16 27 0
8 -7 23 -15 34 -8 11 -15 41 -15 69 0 54 -12 75 -42 75 -10 0 -18 4 -18 9 0 5
-18 16 -40 25 -22 9 -60 34 -84 56 -26 24 -53 40 -68 40 -13 0 -29 5 -36 12
-15 15 -16 54 -2 63 6 3 10 24 10 45 0 21 -4 42 -10 45 -12 7 -14 95 -2 95 4
0 15 18 25 41 10 23 27 43 37 46 17 5 20 14 20 60 0 43 -5 61 -25 87 -14 18
-25 40 -25 48 0 19 -26 41 -66 57 -17 7 -59 41 -94 77 -46 46 -72 64 -90 64
-16 0 -38 12 -58 33 -32 33 -41 57 -22 57 22 0 10 70 -17 100 -21 24 -34 30
-67 29 -23 0 -54 -7 -71 -14z m112 -38 c7 -5 10 -14 6 -21 -4 -6 -7 -31 -8
-56 0 -38 5 -51 34 -82 25 -27 43 -38 64 -38 21 0 50 -16 99 -56 38 -31 72
-62 74 -69 3 -7 19 -19 35 -25 23 -10 29 -19 29 -41 0 -22 7 -32 25 -41 31
-14 36 -63 7 -70 -10 -3 -30 -30 -45 -60 -22 -44 -27 -69 -27 -126 0 -40 5
-74 11 -78 8 -4 8 -9 0 -17 -6 -6 -11 -23 -11 -38 0 -15 -4 -30 -9 -34 -14 -8
29 -85 48 -86 9 -1 22 -1 28 0 24 3 72 -29 85 -56 8 -17 23 -29 38 -31 13 -2
35 -13 49 -23 13 -10 32 -19 42 -19 17 0 19 -8 19 -63 0 -51 3 -64 20 -75 11
-7 20 -18 20 -26 0 -7 7 -19 15 -26 16 -14 21 -60 6 -60 -5 0 -11 -10 -13 -22
-3 -20 -10 -24 -63 -28 -51 -4 -60 -8 -60 -25 -1 -20 -25 -63 -54 -98 -9 -11
-17 -42 -18 -75 -1 -30 -5 -62 -7 -69 -6 -15 -56 -18 -56 -3 0 14 -117 13
-126 -1 -10 -16 -26 5 -18 24 9 24 139 25 148 1 13 -33 28 0 24 52 -4 46 -2
56 19 74 13 11 23 25 23 31 0 6 7 17 15 25 8 9 15 26 15 39 0 31 40 55 94 55
39 0 45 3 50 26 7 27 -19 81 -57 118 -14 14 -18 29 -15 57 3 30 0 40 -13 44
-10 3 -20 12 -23 20 -3 8 -17 15 -30 15 -24 0 -76 38 -76 56 0 11 -47 34 -69
34 -9 0 -27 9 -40 19 -14 10 -31 16 -40 13 -9 -3 -12 -1 -7 6 4 7 3 12 -2 12
-6 0 -6 18 0 48 5 26 9 100 8 165 0 64 3 117 8 117 5 0 14 16 22 35 8 19 17
35 22 35 4 0 8 6 8 14 0 8 7 16 15 20 21 8 19 17 -9 47 -13 14 -26 34 -28 45
-2 10 -13 23 -26 29 -12 5 -22 13 -22 17 0 9 -73 77 -108 100 -15 10 -38 18
-52 18 -14 0 -34 7 -44 15 -11 8 -28 15 -39 15 -13 0 -17 5 -14 14 3 8 -3 26
-14 39 -13 18 -19 41 -19 76 l0 51 -40 0 c-22 0 -40 -4 -40 -10 0 -5 -8 -10
-18 -10 -31 0 -82 -30 -82 -48 -1 -9 -9 -27 -20 -40 -16 -20 -29 -23 -108 -25
l-89 -3 -13 30 c-7 17 -24 43 -38 59 -24 25 -31 27 -114 27 -52 0 -88 -4 -88
-10 0 -5 -16 -10 -35 -10 -19 0 -35 -4 -35 -10 0 -5 5 -10 10 -10 6 0 10 -27
10 -60 0 -33 -4 -60 -9 -60 -5 0 -12 -13 -16 -30 -4 -16 -13 -30 -21 -30 -8 0
-14 -4 -14 -10 0 -5 -9 -10 -20 -10 -11 0 -20 -5 -20 -10 0 -7 -29 -10 -77 -8
-77 3 -78 4 -94 35 l-16 33 -19 -25 c-10 -13 -28 -26 -41 -30 -14 -3 -23 -13
-23 -25 0 -11 -4 -20 -9 -20 -13 0 -24 34 -12 38 6 2 11 12 11 23 0 13 7 19
23 19 12 0 27 4 33 8 20 13 38 57 35 87 -1 27 0 28 14 15 8 -9 19 -43 23 -75
l7 -60 64 -3 c46 -2 68 1 80 13 10 8 20 13 23 10 2 -3 11 7 18 23 8 15 19 33
24 40 15 21 15 110 -1 116 -7 3 -13 14 -13 25 0 17 10 20 98 25 53 4 116 8
139 10 38 3 45 0 81 -38 21 -22 42 -49 45 -58 5 -15 18 -18 66 -18 70 0 111
16 111 42 0 10 5 18 10 18 6 0 10 9 10 19 0 15 10 20 49 26 28 4 55 12 61 19
5 7 21 11 34 9 13 -3 27 0 30 6 7 10 32 5 53 -12z m-1480 -129 c18 -18 33 -37
33 -43 0 -7 9 -20 20 -30 11 -10 20 -24 20 -31 0 -6 19 -24 43 -37 24 -14 49
-33 57 -41 9 -12 32 -16 92 -16 70 0 79 -2 76 -17 -6 -34 -188 -26 -188 8 0 5
-9 9 -20 9 -11 0 -20 4 -20 8 0 5 -11 14 -25 20 -14 6 -25 18 -25 27 0 8 -4
15 -10 15 -5 0 -10 -7 -10 -15 0 -8 -7 -15 -15 -15 -11 0 -15 12 -15 45 0 31
-5 47 -15 51 -25 10 -59 94 -38 94 4 0 22 -14 40 -32z m-254 -137 c9 -7 20
-10 25 -7 5 3 21 -3 34 -14 31 -23 155 -31 168 -10 4 7 15 10 24 7 30 -12 16
-26 -31 -32 -67 -9 -75 -13 -25 -14 28 -1 49 -8 62 -21 13 -13 33 -20 60 -20
22 0 40 -4 40 -10 0 -5 9 -10 20 -10 11 0 20 -5 20 -11 0 -7 -10 -9 -27 -5
-16 4 -44 7 -64 6 -24 0 -41 6 -54 20 -20 22 -98 29 -110 10 -10 -17 -44 -11
-57 10 -8 13 -24 20 -44 20 -34 0 -59 22 -51 44 4 10 -4 15 -26 19 -18 3 -50
12 -72 20 l-40 15 66 -2 c38 -1 73 -7 82 -15z m-364 -43 c40 -21 41 -21 75 -3
33 18 36 18 81 1 25 -10 56 -16 67 -13 26 7 54 -7 90 -45 14 -15 37 -28 50
-28 12 0 38 -9 56 -20 35 -22 116 -27 127 -9 5 7 16 3 31 -12 16 -15 31 -20
49 -16 27 5 85 -18 85 -33 0 -5 -4 -12 -10 -15 -5 -3 -10 -27 -10 -53 0 -36
-6 -52 -26 -73 -29 -30 -40 -102 -19 -119 7 -5 11 -25 11 -45 -2 -41 -48 -95
-82 -95 -13 0 -26 -4 -29 -10 -3 -5 -21 -10 -38 -10 -27 0 -35 -5 -44 -29 -13
-36 -65 -64 -118 -65 -36 -1 -40 -4 -43 -29 -4 -32 18 -87 34 -87 6 0 21 -11
34 -25 21 -22 22 -26 8 -38 -22 -17 -31 -96 -12 -104 11 -4 14 -21 12 -67 -3
-72 12 -106 47 -106 13 0 27 -5 30 -11 4 -5 19 -7 35 -4 35 8 40 -4 35 -83 -2
-51 0 -61 15 -65 12 -3 20 -16 22 -38 2 -27 7 -34 25 -34 13 0 22 -5 21 -10
-3 -17 -45 -45 -67 -45 -16 0 -21 -6 -21 -25 0 -14 -9 -34 -20 -45 -17 -17
-33 -20 -120 -20 -93 0 -100 -1 -100 -20 0 -11 -4 -20 -8 -20 -5 0 -14 -18
-21 -39 -7 -26 -30 -56 -66 -89 -53 -49 -55 -53 -55 -101 l0 -51 85 0 c83 0
85 0 85 -24 0 -14 5 -28 10 -31 17 -11 -10 -36 -31 -30 -9 3 -20 1 -24 -5 -4
-6 -17 -15 -30 -20 -13 -5 -29 -21 -37 -37 -7 -15 -21 -29 -31 -31 -14 -3 -17
2 -15 25 l3 28 -77 3 c-52 2 -80 7 -88 17 -7 8 -19 15 -26 15 -7 0 -29 9 -49
20 -20 11 -49 20 -65 20 -16 0 -32 5 -35 10 -3 6 -25 10 -47 10 -32 0 -47 -6
-69 -30 -27 -28 -30 -28 -56 -15 -33 17 -42 62 -15 72 30 11 62 46 62 68 0 12
9 30 20 40 24 22 27 89 6 130 -16 30 -56 55 -89 55 -12 0 -38 2 -58 6 -35 6
-62 -6 -135 -60 -17 -14 -44 11 -44 40 0 14 -10 30 -23 39 -26 17 -67 87 -67
115 0 28 -64 60 -120 60 -27 0 -52 5 -55 10 -3 6 -17 10 -30 10 -30 0 -75 20
-75 33 0 16 -41 57 -57 57 -7 0 -13 11 -13 24 0 14 -4 28 -10 31 -5 3 -10 22
-10 41 0 30 -3 34 -25 34 -32 0 -43 25 -21 49 20 21 21 71 2 96 -8 12 -11 34
-8 61 6 59 -4 93 -33 106 -14 6 -25 17 -25 25 0 7 -7 13 -15 13 -24 0 -76 59
-80 90 -4 26 -1 30 20 30 13 0 27 5 30 10 3 6 25 10 48 10 38 1 45 5 75 44 17
24 32 48 32 54 0 7 5 12 12 12 28 0 48 33 48 81 0 26 -4 51 -10 54 -5 3 -10
17 -10 30 0 13 -4 27 -10 30 -5 3 -10 20 -10 36 0 22 -9 38 -31 56 l-31 27 25
18 c32 23 57 72 57 108 0 37 15 45 80 45 53 0 54 0 61 -33 4 -18 16 -44 28
-56 18 -19 22 -36 23 -105 1 -50 -3 -86 -10 -93 -7 -7 -12 -42 -12 -80 0 -66
1 -70 29 -86 17 -9 32 -25 35 -35 2 -10 13 -21 24 -24 11 -3 22 -13 25 -24 8
-31 67 -26 100 9 22 23 25 33 20 67 -3 22 -8 97 -12 168 -5 111 -4 130 11 150
10 12 18 27 18 33 0 18 29 71 46 85 9 8 40 12 80 11 57 -2 64 0 64 17 0 16 7
18 44 16 23 -1 52 -8 64 -14 11 -6 49 -11 84 -11 58 0 67 3 93 30 36 37 85 40
144 8z m789 -171 c2 -33 -1 -47 -9 -47 -10 0 -10 -3 -1 -12 15 -15 15 -63 1
-91 -7 -12 -24 -34 -40 -49 -25 -24 -26 -30 -16 -52 7 -14 15 -26 20 -26 4 0
7 -16 7 -35 0 -19 -3 -35 -7 -35 -8 0 -33 -48 -33 -62 0 -15 -48 -58 -65 -58
-8 0 -15 -4 -15 -10 0 -5 -9 -10 -20 -10 -11 0 -20 -4 -20 -10 0 -5 -11 -10
-25 -10 -14 0 -37 -14 -58 -35 -19 -19 -41 -35 -50 -35 -26 0 -29 -18 -7 -42
19 -20 21 -30 15 -73 -3 -27 -7 -85 -8 -127 -2 -67 0 -78 15 -78 9 0 20 -4 23
-10 3 -5 22 -10 41 -10 19 0 34 -4 34 -9 0 -15 -60 -25 -73 -12 -6 6 -25 11
-42 11 l-31 0 4 70 c3 44 0 75 -7 84 -9 10 -9 16 -1 21 6 4 9 13 6 21 -3 7 2
17 10 22 10 6 14 20 12 42 -2 27 -10 37 -40 53 -46 23 -52 52 -10 42 20 -4 33
-1 42 10 7 8 17 15 23 15 16 0 57 41 57 57 0 8 12 13 31 13 17 0 43 8 57 18
15 10 35 22 45 25 9 4 25 23 35 44 9 21 20 40 25 41 11 5 8 72 -3 72 -5 0 -10
9 -10 19 0 11 -6 21 -12 24 -8 3 -1 16 20 36 17 17 32 38 32 45 0 8 5 18 11
21 6 4 10 23 9 44 -4 92 0 143 13 139 6 -3 13 -25 15 -51z m-5782 -124 c1 -13
7 -29 13 -37 6 -8 10 -20 9 -27 -2 -9 7 -15 23 -17 19 -2 29 -12 39 -37 7 -18
28 -48 47 -65 18 -17 33 -40 33 -51 0 -18 33 -84 51 -103 5 -6 9 -43 9 -83 l0
-73 43 0 c24 0 48 5 54 11 5 5 34 10 63 11 29 0 62 5 72 11 14 9 23 9 37 0 13
-8 72 -13 165 -14 148 -1 176 5 176 37 0 19 80 19 106 -1 11 -8 42 -14 75 -15
48 0 57 3 62 19 4 16 11 19 45 14 34 -5 41 -2 47 16 5 16 15 21 40 21 19 0 50
9 70 20 28 16 54 20 120 20 46 0 86 4 89 8 3 5 22 8 43 8 36 -2 38 -3 41 -40
2 -20 -1 -43 -6 -49 -11 -13 -9 -123 1 -134 4 -3 -9 -17 -28 -30 -43 -29 -46
-62 -8 -111 22 -29 26 -44 24 -92 -2 -61 7 -74 47 -63 11 2 23 0 26 -6 4 -6
18 -11 31 -11 13 0 27 -4 30 -10 3 -5 32 -10 64 -10 49 0 59 -3 64 -19 3 -12
15 -21 33 -23 26 -3 29 -6 26 -38 -1 -19 -12 -44 -22 -55 -13 -14 -20 -35 -20
-63 0 -38 2 -42 24 -42 14 0 28 -4 31 -10 3 -5 16 -10 29 -10 12 0 38 -17 61
-40 21 -22 45 -40 52 -40 7 0 19 -11 25 -25 10 -23 8 -29 -20 -58 -18 -18 -32
-38 -32 -45 0 -7 -4 -12 -10 -12 -5 0 -10 -7 -10 -16 0 -9 -20 -39 -45 -66
-25 -28 -45 -56 -45 -62 0 -7 -8 -21 -18 -32 -38 -42 -82 -102 -82 -113 0 -6
8 -11 18 -11 24 0 42 -19 42 -45 0 -12 9 -30 20 -40 11 -10 20 -24 20 -32 0
-16 135 -19 145 -3 4 7 11 8 18 2 17 -14 79 -23 185 -29 l92 -4 52 -55 c28
-30 57 -54 64 -54 8 0 14 -4 14 -8 0 -17 -30 -69 -50 -87 -15 -14 -20 -31 -20
-71 0 -29 -4 -56 -10 -59 -5 -3 -10 -32 -10 -64 0 -61 -11 -81 -46 -81 -26 0
-50 -26 -46 -51 2 -9 -2 -20 -8 -24 -5 -3 -10 -15 -10 -26 0 -11 -15 -35 -33
-53 -31 -31 -38 -33 -128 -39 -71 -6 -106 -13 -144 -32 l-49 -25 -1 -68 0 -67
-90 -3 c-49 -2 -92 -6 -95 -10 -15 -20 -56 -32 -109 -32 -33 0 -63 -4 -66 -10
-3 -5 -42 -10 -85 -10 l-79 0 -38 41 c-32 34 -42 40 -68 36 -65 -12 -91 -21
-103 -39 -7 -10 -20 -18 -28 -18 -20 0 -110 48 -126 67 -7 9 -40 29 -73 44
-37 18 -66 39 -76 56 -8 15 -33 37 -55 48 -21 11 -42 24 -45 28 -17 23 -67 37
-130 37 -38 0 -79 6 -92 13 -34 19 -67 49 -67 62 0 14 -38 50 -63 58 -9 4 -22
17 -28 30 -15 33 -85 62 -184 76 -67 10 -95 21 -95 36 0 7 -14 25 -31 40 -27
22 -40 26 -91 24 -32 -1 -64 3 -70 9 -6 6 -16 8 -23 6 -7 -3 -16 -1 -20 5 -3
6 -22 11 -42 11 -25 0 -36 5 -40 18 -5 20 -87 62 -121 62 -15 0 -29 11 -43 35
-21 35 -21 35 -94 35 -64 0 -73 2 -78 20 -3 11 -12 20 -21 20 -8 0 -39 11 -68
24 -87 38 -108 46 -128 46 -15 0 -20 7 -20 25 0 16 -7 28 -17 31 -10 3 -27 10
-38 15 -11 4 -33 10 -50 11 -24 2 -34 11 -50 45 -19 40 -23 43 -60 43 -24 0
-50 -8 -65 -20 -34 -26 -43 -25 -68 10 -15 20 -22 44 -22 74 0 35 -5 48 -20
56 -11 6 -20 17 -20 24 0 23 -37 48 -67 45 -35 -4 -43 12 -14 27 11 6 29 18
39 27 10 10 23 17 28 17 6 0 23 14 39 30 17 18 39 30 54 30 14 0 41 9 59 20
31 19 32 22 32 89 0 38 5 82 10 97 11 28 6 52 -23 112 -8 17 -8 28 1 42 7 12
12 56 12 104 0 99 5 114 37 127 13 5 26 17 30 26 8 23 104 123 118 123 6 0 21
20 35 45 14 25 29 45 34 45 14 0 56 41 56 55 0 6 14 24 30 40 17 16 30 34 30
40 0 6 13 21 29 33 16 12 42 47 57 79 30 63 61 103 79 103 6 0 24 14 40 30 16
17 39 30 51 30 13 0 26 5 29 10 4 6 11 8 16 4 6 -3 18 1 28 10 10 9 25 14 34
11 8 -4 18 -2 22 4 3 6 31 11 60 11 36 0 67 7 90 20 20 11 44 20 55 20 11 0
20 5 20 11 0 21 35 3 36 -18z m5594 -887 c0 -35 3 -71 6 -80 4 -12 0 -16 -16
-16 -16 0 -20 4 -16 16 3 9 6 45 6 80 0 36 4 64 10 64 6 0 10 -28 10 -64z
m1620 -66 c0 -6 27 -10 60 -10 75 0 79 -17 5 -22 -39 -2 -60 1 -70 11 -11 11
-21 13 -41 5 -38 -13 -52 -39 -36 -64 20 -32 15 -103 -7 -117 -16 -10 -19 -21
-16 -61 3 -48 2 -51 -50 -102 -44 -43 -60 -53 -96 -57 -40 -4 -47 -2 -78 31
-19 20 -43 36 -52 36 -21 0 -33 16 -19 25 12 7 80 -15 80 -27 0 -4 9 -17 20
-28 20 -20 60 -27 60 -11 0 5 10 11 23 13 16 2 21 9 19 26 -1 18 2 22 16 18
21 -7 44 39 44 89 0 23 8 42 23 57 18 17 22 30 19 57 -3 20 -9 40 -14 45 -32
32 21 96 78 96 17 0 32 -4 32 -10z m-1579 -60 c6 -16 15 -30 20 -30 5 0 14
-11 19 -25 8 -21 14 -24 34 -19 13 3 27 1 30 -5 4 -6 30 -11 58 -11 35 0 59
-6 79 -21 l30 -21 26 26 c14 14 30 26 35 26 5 0 16 7 24 15 19 19 110 18 129
-1 7 -8 21 -11 30 -8 16 7 115 -11 145 -25 18 -8 50 -3 50 9 0 4 12 11 26 14
34 9 124 -14 124 -31 0 -15 -36 -18 -45 -3 -11 18 -81 11 -100 -10 -19 -21
-45 -27 -45 -10 0 6 -18 10 -40 10 -22 0 -40 5 -40 10 0 6 -25 10 -55 10 -30
0 -55 4 -55 9 0 5 -22 9 -49 9 -41 1 -57 -5 -92 -31 -70 -53 -69 -53 -77 -42
-15 22 -54 35 -102 35 -27 0 -50 5 -50 10 0 6 -14 10 -32 10 -36 0 -68 24 -68
53 0 15 -5 18 -24 13 -21 -5 -23 -3 -19 17 13 57 19 61 34 17z m1644 -50 c0
-14 4 -31 8 -37 12 -20 52 -15 72 7 20 22 79 28 90 9 4 -5 18 -14 31 -19 18
-7 24 -17 24 -39 0 -21 10 -38 35 -60 19 -17 35 -37 35 -45 0 -17 43 -46 68
-46 39 0 50 -29 48 -120 -3 -68 1 -91 16 -119 17 -29 18 -38 7 -58 -10 -19
-10 -28 -1 -43 7 -11 12 -41 12 -67 0 -42 3 -50 27 -60 15 -7 34 -13 43 -13
23 0 40 -20 40 -46 0 -13 5 -26 10 -29 13 -8 -6 -35 -25 -35 -18 0 -40 -30
-37 -50 4 -25 -25 -32 -59 -15 -24 13 -33 13 -52 3 -12 -7 -29 -13 -37 -13
-10 0 -16 -12 -18 -37 -2 -21 -7 -38 -13 -38 -5 0 -9 -8 -9 -17 0 -10 -10 -38
-22 -64 -17 -34 -32 -51 -55 -60 -18 -7 -33 -18 -33 -24 0 -6 -14 -24 -31 -41
-28 -27 -30 -32 -24 -77 6 -42 4 -52 -16 -74 -13 -14 -49 -38 -79 -54 -71 -37
-90 -52 -90 -73 0 -12 -9 -16 -35 -16 -24 0 -35 5 -35 15 0 23 -76 66 -104 59
-14 -3 -37 2 -60 15 -29 17 -54 21 -120 21 -89 0 -115 -12 -108 -52 2 -13 -3
-18 -17 -18 -12 0 -21 -4 -21 -10 0 -5 -11 -10 -23 -10 -27 0 -62 -33 -53 -49
11 -17 -45 -101 -67 -101 -6 0 -18 -6 -26 -14 -12 -11 -30 -13 -71 -8 l-55 7
3 46 c3 41 0 50 -25 73 -19 18 -39 26 -64 26 -23 0 -42 7 -54 20 -19 21 -89
28 -100 10 -3 -5 -17 -10 -30 -10 -13 0 -27 5 -30 10 -3 6 -17 10 -29 10 -34
0 -46 20 -39 63 5 33 3 38 -21 47 -15 5 -29 18 -33 27 -3 10 -40 53 -82 96
l-76 77 -102 0 c-101 0 -104 -1 -115 -25 -6 -14 -19 -25 -29 -25 -10 0 -21 -4
-24 -10 -3 -5 -31 -10 -61 -10 l-54 0 0 33 c0 24 -6 35 -22 42 -19 8 -23 19
-26 65 -2 33 -13 76 -28 107 l-25 52 -95 -3 c-89 -3 -97 -5 -125 -32 -25 -24
-32 -27 -49 -16 -12 7 -55 12 -105 12 -73 0 -85 2 -85 17 0 23 -29 53 -52 53
-13 0 -18 8 -18 30 0 20 -5 30 -15 30 -9 0 -19 8 -22 18 -11 29 -64 72 -88 72
-17 0 -25 7 -27 22 -2 12 -12 27 -24 33 -24 12 -21 35 5 35 10 0 26 9 36 20
36 40 158 16 225 -45 15 -14 32 -17 81 -13 55 4 62 2 69 -17 6 -17 20 -24 55
-28 53 -8 63 -4 75 28 9 24 60 55 92 55 29 0 58 58 58 118 l0 52 -100 0 c-97
0 -100 1 -100 23 1 14 18 35 50 60 36 27 58 55 77 98 l28 59 90 0 90 0 28 34
c15 19 27 40 27 45 0 6 11 11 25 11 14 0 25 5 25 10 0 6 20 10 44 10 25 0 48
-4 51 -10 3 -5 27 -10 53 -10 29 0 59 -8 80 -20 53 -33 100 -26 151 20 44 39
92 53 106 30 3 -5 24 -10 45 -10 21 0 41 -4 44 -9 6 -10 53 -19 132 -27 46 -5
54 -3 68 18 22 32 50 14 54 -36 l3 -36 116 0 c114 0 116 0 150 -30 18 -16 38
-30 42 -30 5 0 11 -9 14 -20 3 -12 11 -18 19 -15 7 3 35 -15 62 -40 l48 -46
62 7 c40 4 66 12 76 24 8 10 20 19 26 21 6 2 30 21 53 41 37 35 41 42 41 86 0
37 5 54 21 68 16 15 20 29 19 79 -1 33 -1 64 -1 68 1 5 20 7 44 5 37 -3 42 -6
42 -28z m-758 -101 c-5 -18 2 -19 94 -19 59 0 99 -4 99 -10 0 -5 6 -10 14 -10
17 0 85 -42 86 -52 1 -17 -44 -6 -76 19 -34 25 -40 27 -140 24 l-104 -3 0 35
c0 18 3 37 6 40 12 12 26 -5 21 -24z m-7749 -362 c8 -16 20 -31 28 -34 9 -3
14 -20 14 -48 0 -27 6 -47 16 -56 9 -7 20 -22 24 -33 6 -17 15 -20 56 -17 32
2 56 10 71 23 26 24 39 18 48 -23 4 -19 15 -33 26 -36 10 -3 19 -9 19 -14 0
-5 11 -9 24 -9 14 0 28 -4 31 -10 3 -5 17 -10 30 -10 18 0 24 -6 27 -27 3 -25
7 -28 35 -25 17 2 34 -2 38 -7 3 -6 17 -11 30 -11 13 0 28 -7 33 -15 4 -9 38
-31 75 -49 55 -28 74 -33 112 -28 41 4 50 1 76 -24 16 -15 29 -34 29 -41 0 -8
12 -13 28 -13 30 0 123 -42 142 -65 6 -8 18 -11 27 -8 8 3 18 2 22 -3 16 -23
56 -34 119 -34 82 0 120 -15 124 -50 2 -18 9 -25 25 -25 11 0 25 -3 29 -7 4
-5 24 -8 45 -8 21 0 41 -4 44 -10 3 -5 14 -10 23 -10 31 0 111 -45 116 -65 3
-11 20 -27 38 -35 18 -8 38 -25 44 -38 19 -39 56 -73 75 -67 10 3 19 -1 23
-11 4 -11 13 -14 27 -11 13 4 22 0 26 -11 4 -9 11 -20 17 -24 7 -5 -5 -24 -30
-50 -23 -24 -40 -48 -37 -55 2 -6 -1 -14 -6 -18 -6 -3 -11 -23 -11 -44 0 -40
-21 -91 -45 -111 -8 -7 -15 -19 -15 -26 0 -8 -4 -14 -10 -14 -5 0 -10 -20 -10
-45 0 -43 1 -45 30 -45 20 0 30 -5 30 -15 0 -17 -48 -64 -66 -65 -7 0 -14 -9
-17 -20 -3 -11 -17 -24 -31 -30 -15 -5 -29 -17 -32 -25 -4 -8 -15 -15 -25 -15
-12 0 -19 -7 -19 -19 0 -13 -8 -21 -22 -23 -20 -3 -23 -10 -26 -56 l-3 -52 39
6 c25 4 42 2 46 -5 4 -6 23 -11 42 -11 19 0 34 -4 34 -10 0 -5 11 -10 25 -10
18 0 28 -7 35 -24 11 -29 61 -56 105 -56 17 0 35 -3 39 -7 4 -5 24 -8 44 -8
45 0 57 -18 16 -25 -25 -4 -29 -10 -32 -41 -2 -21 -12 -45 -23 -54 -10 -10
-19 -31 -19 -47 0 -15 -9 -37 -20 -48 -11 -11 -20 -31 -20 -43 0 -30 -24 -78
-50 -102 -11 -10 -20 -24 -20 -30 0 -7 -7 -18 -15 -25 -27 -22 -45 -73 -45
-127 0 -29 5 -53 10 -53 6 0 10 -4 10 -10 0 -5 -19 -10 -43 -10 -32 0 -49 -6
-64 -22 -29 -34 -57 -98 -59 -140 l-2 -38 84 0 c49 0 84 4 84 10 0 6 5 10 10
10 6 0 10 -9 10 -19 0 -11 -4 -23 -10 -26 -5 -3 -10 -19 -10 -35 0 -16 5 -32
10 -35 18 -11 11 -53 -12 -70 -19 -13 -21 -18 -10 -35 6 -11 12 -38 12 -60 0
-22 5 -40 10 -40 6 0 10 -20 10 -45 l0 -45 -40 0 c-22 0 -40 5 -40 10 0 6 -17
10 -38 10 -40 0 -62 -16 -77 -55 -11 -31 -9 -103 4 -119 16 -20 6 -36 -23 -36
-16 0 -26 -9 -36 -35 -16 -42 -25 -43 -81 -10 -24 14 -58 25 -76 25 -17 0 -35
5 -38 10 -3 6 -30 10 -59 10 -54 0 -104 18 -127 46 -7 9 -25 14 -45 12 -38 -3
-56 10 -73 54 -9 24 -26 39 -60 56 -47 22 -81 28 -81 14 0 -4 -13 -13 -29 -20
-25 -11 -34 -10 -65 8 -20 11 -50 20 -66 20 -17 0 -30 4 -30 8 0 4 -28 7 -61
7 -54 -1 -64 -4 -85 -28 -13 -15 -30 -27 -39 -27 -8 0 -15 -4 -15 -10 0 -5
-20 -10 -44 -10 -25 0 -48 -4 -51 -10 -3 -5 -20 -10 -36 -10 -22 0 -32 6 -39
24 -14 37 -63 56 -147 56 -42 0 -73 -4 -73 -10 0 -5 -9 -10 -21 -10 -18 0 -20
5 -18 40 3 36 0 42 -25 55 -16 9 -56 15 -92 15 -53 0 -66 -3 -76 -20 -20 -32
-71 -27 -101 10 -14 17 -34 30 -45 30 -10 0 -27 9 -37 20 -10 11 -23 20 -29
20 -6 0 -42 16 -80 35 -39 19 -80 35 -92 35 -13 0 -26 5 -29 10 -3 6 -19 10
-35 10 -16 0 -32 5 -35 10 -3 6 -17 10 -31 10 -13 0 -33 5 -44 12 -15 10 -23
9 -39 -6 -12 -11 -21 -25 -21 -32 0 -8 -9 -19 -20 -26 -17 -11 -20 -24 -20
-98 0 -94 -8 -110 -51 -110 -15 0 -31 -4 -34 -10 -11 -18 -25 -11 -25 13 0 23
-25 51 -67 75 -27 14 -83 16 -83 2 0 -5 -15 -10 -34 -10 -19 0 -38 -4 -41 -10
-10 -16 -52 -12 -90 10 -20 11 -49 20 -65 20 -17 0 -30 5 -30 10 0 6 -17 10
-38 10 -29 0 -45 -7 -67 -30 -40 -42 -94 -37 -96 9 0 9 -18 30 -39 47 -37 30
-42 31 -87 23 -26 -5 -56 -18 -68 -29 -12 -11 -26 -20 -33 -20 -6 0 -16 -9
-22 -20 -9 -17 -21 -20 -84 -20 -65 0 -74 2 -79 20 -4 17 -14 20 -66 20 -34 0
-61 4 -61 10 0 14 -113 13 -128 -2 -8 -8 -20 -4 -49 18 -52 40 -74 49 -104 46
-17 -2 -29 -11 -32 -23 -4 -15 -11 -19 -25 -15 -11 4 -24 0 -31 -8 -6 -8 -21
-12 -31 -9 -11 3 -20 0 -20 -6 0 -6 -8 -11 -17 -11 -9 0 -33 -18 -53 -40 -42
-46 -55 -41 -62 24 -4 36 0 45 36 83 22 24 48 43 57 43 24 0 72 27 99 55 29
31 75 55 106 55 13 0 26 5 29 10 3 6 31 10 61 10 30 0 54 5 54 10 0 6 8 10 18
10 23 0 72 50 72 73 0 9 7 17 15 17 8 0 28 14 43 30 16 17 34 30 39 30 5 0 20
11 33 25 13 14 33 25 46 25 12 0 27 7 34 15 14 17 67 45 85 45 7 0 30 16 51
35 21 19 45 35 54 35 9 0 25 9 35 20 10 11 26 20 35 20 21 0 70 23 70 33 0 4
9 7 20 7 11 0 20 5 20 10 0 6 6 10 13 10 7 0 28 16 47 35 19 19 42 35 52 35
10 0 18 4 18 9 0 5 9 11 21 14 12 3 19 10 15 15 -3 5 24 37 59 72 36 36 65 70
65 77 0 7 3 13 8 13 8 0 32 49 32 67 0 7 5 13 10 13 6 0 10 11 10 24 0 16 7
26 21 29 18 5 20 12 18 61 -2 47 1 60 21 81 13 14 29 25 36 25 7 0 19 8 26 18
7 10 29 25 49 35 20 9 42 24 50 33 7 9 23 20 36 25 13 5 23 15 23 22 0 8 9 22
19 31 11 10 17 25 14 37 -3 10 0 19 6 19 6 0 11 5 11 12 0 17 101 118 117 118
7 0 13 5 13 10 0 6 9 10 19 10 20 0 61 43 61 64 0 6 9 17 19 23 14 9 19 22 17
52 -1 21 -7 45 -14 53 -6 8 -9 24 -5 37 6 24 -27 100 -60 137 -12 15 -15 24
-8 29 6 3 11 22 11 41 0 32 2 34 35 34 19 0 35 -4 35 -10 0 -5 18 -10 40 -10
22 0 40 5 40 11 0 7 19 10 53 7 50 -3 52 -2 55 23 2 15 16 39 33 55 16 15 29
32 29 37 0 4 11 23 25 41 14 18 25 40 25 49 0 10 5 17 10 17 6 0 10 9 10 20 0
13 5 18 15 14 11 -4 19 3 26 24 6 17 16 33 24 36 8 3 11 13 8 24 -2 11 0 23 6
26 14 9 15 116 1 116 -5 0 -10 15 -10 34 0 19 -4 38 -10 41 -5 3 -8 26 -6 50
3 30 0 47 -10 56 -27 22 -16 39 25 39 31 0 44 6 64 29 13 16 33 31 43 33 12 2
20 13 22 32 4 33 23 56 46 56 9 0 16 5 16 11 0 21 35 3 48 -24z m9119 -429
c24 -23 33 -41 33 -65 0 -18 5 -33 10 -33 6 0 10 -24 10 -53 0 -43 5 -58 23
-75 21 -20 32 -22 125 -19 63 2 106 7 114 15 7 7 25 12 41 12 24 0 28 3 24 20
-4 17 0 20 28 20 19 0 37 5 40 10 3 6 30 10 60 10 42 0 65 -7 105 -30 69 -40
107 -39 123 3 9 24 31 17 35 -12 7 -47 72 -91 133 -91 22 0 39 -4 39 -10 0 -5
16 -10 36 -10 35 0 36 -1 30 -27 -18 -73 -18 -80 4 -101 14 -13 18 -22 11 -27
-6 -3 -11 -35 -11 -70 0 -47 -4 -64 -15 -69 -8 -3 -15 -13 -15 -21 0 -9 -12
-31 -27 -49 -23 -30 -30 -33 -65 -28 -44 5 -78 -17 -78 -53 0 -11 -4 -25 -9
-30 -5 -6 -11 -28 -13 -49 -2 -31 -9 -43 -31 -55 -29 -17 -57 -61 -57 -92 0
-10 -4 -21 -10 -24 -20 -12 -11 -87 13 -113 15 -17 18 -26 10 -29 -17 -6 -17
-64 0 -94 29 -55 69 -110 82 -116 22 -8 9 -21 -17 -16 -35 7 -93 -37 -91 -69
1 -20 -6 -28 -33 -38 -38 -15 -45 -42 -17 -72 12 -14 31 -18 82 -18 62 0 67
-2 78 -27 7 -15 12 -27 10 -27 -19 -6 -44 -28 -53 -45 -7 -13 -17 -28 -23 -34
-6 -6 -11 -21 -11 -32 0 -12 -13 -34 -30 -50 -16 -16 -30 -35 -30 -42 0 -7 -4
-13 -10 -13 -14 0 -13 -150 2 -181 6 -13 31 -40 54 -59 39 -32 43 -39 43 -82
1 -61 36 -98 93 -98 21 0 52 -9 70 -19 17 -11 36 -17 41 -14 4 3 26 -9 47 -26
21 -17 43 -31 48 -31 15 0 53 -22 93 -52 20 -16 43 -28 52 -28 25 0 30 -18 7
-30 -36 -19 -22 -79 30 -126 21 -19 22 -24 11 -38 -9 -10 -22 -14 -38 -10 -25
7 -63 -7 -95 -35 -11 -9 -18 -28 -18 -50 1 -34 4 -38 53 -60 29 -13 68 -31 87
-41 21 -10 51 -16 74 -14 47 4 83 -17 45 -26 -38 -9 -57 -56 -58 -139 -1 -68
1 -77 26 -103 21 -22 36 -28 70 -28 24 0 43 4 43 9 0 18 52 22 76 6 33 -21 57
-19 84 10 26 27 116 76 125 67 9 -9 6 -50 -5 -57 -5 -3 -10 -22 -10 -41 0 -33
1 -34 39 -34 22 0 41 3 43 8 7 15 91 52 120 52 l30 0 -4 -54 c-6 -66 -20 -86
-64 -86 -24 0 -36 -6 -45 -22 -16 -33 -88 -97 -126 -114 -18 -8 -33 -21 -33
-29 0 -8 -7 -15 -15 -15 -8 0 -26 -17 -39 -38 -17 -27 -31 -39 -46 -38 -16 1
-28 -11 -47 -46 -14 -27 -31 -48 -39 -48 -8 0 -14 -10 -14 -23 0 -13 -13 -36
-30 -52 -16 -16 -30 -33 -30 -39 0 -14 -41 -56 -55 -56 -7 0 -20 -9 -30 -20
-10 -11 -32 -27 -48 -35 -28 -14 -32 -14 -52 5 -23 21 -85 28 -85 9 0 -22 -29
12 -32 38 l-3 26 -137 0 c-96 0 -143 -4 -153 -13 -8 -7 -15 -9 -15 -4 -1 5
-11 -4 -25 -20 l-24 -29 -34 26 c-33 25 -94 33 -113 14 -4 -4 -31 -7 -60 -7
-43 0 -55 -4 -64 -20 -9 -17 -21 -20 -75 -20 -54 0 -67 -3 -77 -20 -8 -12 -24
-20 -40 -20 -15 0 -29 -4 -33 -10 -3 -5 -11 -7 -18 -4 -7 2 -22 -4 -32 -16
-14 -15 -30 -20 -70 -20 -36 0 -55 -4 -58 -14 -8 -21 -65 -46 -104 -46 -26 0
-41 -8 -64 -35 -34 -38 -54 -46 -45 -17 4 12 -4 28 -24 47 -23 22 -30 36 -25
53 4 16 -3 36 -23 66 l-29 43 46 -5 c61 -6 84 17 79 79 -3 41 -5 44 -33 47
-16 1 -48 11 -70 21 -65 31 -105 44 -112 38 -12 -13 -42 14 -45 40 -3 25 -7
28 -48 31 -32 2 -53 11 -73 30 -36 34 -117 44 -117 13 0 -10 -8 -21 -17 -25
-10 -3 -23 -9 -30 -12 -7 -3 -13 7 -15 28 l-3 33 -87 3 c-76 2 -88 5 -93 22
-6 18 -16 20 -95 20 -49 0 -92 5 -95 10 -3 6 -17 10 -30 10 -13 0 -37 13 -53
30 -26 26 -29 35 -25 69 5 39 -13 101 -31 101 -4 0 -6 9 -3 20 3 10 -1 24 -9
31 -8 6 -14 17 -14 25 0 26 -38 41 -85 34 -41 -6 -47 -4 -77 27 -17 18 -37 33
-43 33 -7 0 -20 9 -30 20 -26 29 -61 26 -77 -7 -16 -32 -40 -43 -38 -17 5 42
1 44 -64 44 -36 0 -68 -4 -71 -10 -3 -5 -24 -10 -45 -10 -21 0 -42 -4 -45 -10
-12 -20 -32 -9 -45 25 -7 19 -20 35 -28 37 -11 2 -14 19 -14 65 0 33 4 67 8
75 38 58 41 74 17 100 -21 24 -73 23 -118 -2 l-35 -20 0 73 c0 40 5 78 11 84
16 16 2 33 -25 33 -13 0 -31 9 -41 20 -20 22 -74 27 -93 8 -8 -8 -15 -8 -24 0
-7 6 -29 12 -48 14 -28 2 -36 8 -38 27 -2 13 -12 26 -23 28 -11 3 -19 14 -19
28 0 12 -7 36 -16 53 -13 27 -20 31 -42 26 l-27 -5 25 15 c14 8 33 15 43 16
25 0 26 117 0 122 -26 5 -27 78 -1 78 16 0 18 9 18 73 0 71 -15 127 -35 127
-14 0 -95 82 -95 97 0 7 -6 13 -14 13 -25 0 -29 19 -12 55 16 34 63 65 97 65
10 0 23 9 29 21 10 18 18 20 63 14 29 -3 102 -9 162 -11 103 -5 112 -4 129 15
11 12 23 21 29 21 14 0 57 43 57 58 0 14 51 17 66 3 5 -5 20 -11 34 -13 16 -2
26 -10 28 -23 4 -29 46 -43 138 -46 57 -2 87 1 98 10 11 9 29 11 56 7 32 -5
40 -3 40 9 0 33 44 93 77 106 13 5 30 26 39 47 24 54 86 82 97 42 4 -17 14
-20 66 -20 57 0 64 3 96 35 19 19 35 42 35 52 1 28 34 61 66 65 17 2 33 12 40
25 6 13 18 31 28 42 14 15 16 35 14 102 l-3 84 -37 -2 c-25 -2 -38 2 -38 10 0
18 21 37 41 37 9 0 19 8 21 18 3 11 25 25 54 36 27 10 59 23 72 29 18 8 30 7
60 -8 78 -39 101 -44 131 -29 16 8 34 21 41 29 7 8 18 15 25 15 19 0 75 74 75
98 0 24 -23 44 -52 46 -20 1 -22 6 -19 64 1 39 -2 62 -8 62 -6 0 -11 9 -11 20
0 17 -7 20 -50 20 -27 0 -50 2 -50 5 0 15 34 55 46 55 8 0 14 4 14 10 0 9 57
39 101 53 25 8 49 64 49 114 0 36 6 49 28 71 16 15 32 34 35 44 3 9 18 22 34
30 18 9 29 22 31 40 2 14 12 34 23 44 10 9 19 23 19 31 0 7 5 13 10 13 6 0 10
13 10 29 0 55 22 82 33 41 8 -31 77 -28 105 5 12 14 22 34 22 44 0 16 10 27
30 30 2 1 19 -13 37 -31z m-5357 2 c0 -5 20 -10 45 -10 38 0 45 -3 45 -20 0
-23 36 -63 50 -55 5 3 14 -4 20 -15 11 -21 54 -28 65 -10 9 14 91 12 118 -2
32 -18 157 -140 157 -154 0 -6 9 -19 20 -29 11 -10 20 -23 20 -30 0 -15 37
-47 75 -65 17 -8 45 -27 63 -42 31 -26 38 -28 130 -28 96 0 97 -1 110 -27 8
-18 9 -30 2 -37 -14 -14 -12 -76 3 -110 8 -18 32 -38 69 -57 48 -24 69 -29
131 -29 55 0 78 4 87 15 12 14 15 14 31 -1 11 -10 19 -22 19 -28 0 -6 9 -17
20 -24 11 -7 20 -20 20 -31 0 -45 31 -79 104 -115 71 -35 136 -47 136 -26 0
12 47 13 54 1 3 -5 -1 -14 -10 -21 -8 -7 -12 -20 -9 -28 3 -8 -2 -23 -11 -33
-14 -16 -14 -19 6 -39 11 -11 25 -18 30 -15 13 8 90 -42 90 -59 0 -7 6 -19 14
-26 8 -6 16 -21 18 -33 3 -23 56 -43 72 -27 6 6 20 10 31 10 12 0 30 9 40 20
26 29 155 29 203 0 18 -11 37 -20 43 -20 19 0 79 -55 79 -72 0 -10 5 -18 10
-18 6 0 29 -14 52 -30 23 -17 58 -33 79 -36 23 -4 48 -18 65 -35 28 -29 76
-39 89 -19 20 33 90 -10 97 -60 2 -18 15 -31 46 -46 63 -32 82 -52 82 -91 0
-21 5 -33 13 -33 8 0 22 -9 32 -20 10 -11 23 -20 30 -20 20 0 70 -59 59 -70
-6 -6 -8 -31 -4 -61 6 -46 13 -57 83 -127 71 -72 77 -81 77 -119 0 -32 -4 -42
-17 -45 -16 -3 -18 -13 -15 -73 2 -42 10 -76 18 -86 22 -24 17 -38 -21 -53
-33 -14 -35 -18 -35 -60 0 -41 2 -46 23 -46 23 0 47 -37 47 -72 0 -15 -8 -18
-48 -18 -37 0 -54 -5 -68 -21 -39 -43 -52 -43 -71 1 -10 22 -23 40 -29 40 -6
0 -19 9 -29 20 -10 11 -28 20 -39 20 -12 0 -30 7 -40 15 -11 8 -28 15 -38 15
-9 0 -33 9 -53 20 -52 29 -70 25 -102 -22 -28 -43 -29 -43 -96 -46 -65 -3 -67
-2 -78 25 -13 36 -25 43 -76 43 -36 0 -43 -3 -43 -20 0 -11 -9 -35 -20 -54
-18 -32 -18 -37 -4 -66 16 -32 16 -35 -15 -85 -10 -17 -18 -49 -18 -72 0 -48
-7 -61 -38 -73 -13 -5 -29 -22 -37 -37 -11 -24 -19 -28 -55 -28 -23 -1 -43 -3
-45 -5 -20 -32 -28 -56 -28 -87 0 -31 -5 -40 -27 -50 -15 -7 -43 -13 -63 -13
-20 0 -41 -5 -48 -12 -9 -9 -19 -5 -45 20 -30 29 -38 32 -99 32 -37 0 -70 5
-73 10 -4 6 -19 9 -33 8 -26 -3 -27 -2 -30 58 -3 54 -6 63 -28 72 -13 7 -29
23 -34 37 -5 14 -14 25 -20 25 -5 0 -10 12 -10 26 0 42 -42 74 -96 74 -28 0
-44 -4 -44 -12 -1 -33 -86 -98 -127 -98 -12 0 -25 -4 -28 -10 -3 -5 -24 -10
-45 -10 -21 0 -41 -4 -44 -9 -5 -8 -60 -21 -98 -22 -9 0 -24 -9 -34 -20 -10
-11 -30 -19 -51 -19 -37 0 -44 18 -13 38 15 9 20 23 20 56 0 25 5 48 10 51 6
3 10 32 10 64 0 59 -15 87 -50 90 -45 3 -81 15 -96 32 -9 10 -23 19 -31 19 -7
0 -13 7 -13 15 0 8 -20 33 -45 56 -25 23 -45 50 -45 60 0 29 -46 24 -75 -7
-14 -15 -25 -31 -25 -36 0 -4 -17 -15 -37 -23 l-38 -15 3 -56 c3 -42 0 -60
-14 -75 -24 -27 -35 -24 -79 21 -35 36 -43 39 -99 42 -46 2 -61 7 -62 18 -1 8
-2 21 -3 28 0 6 -10 12 -21 12 -12 0 -20 6 -19 13 2 19 -12 57 -22 57 -5 0 -9
19 -9 43 1 40 3 43 49 65 40 18 65 22 149 22 97 0 101 1 121 26 11 15 18 31
15 36 -3 5 2 18 12 29 14 16 31 19 96 19 l78 0 0 33 c0 38 15 57 44 57 32 0
66 39 66 76 0 18 -4 36 -10 39 -5 3 -10 21 -10 40 0 20 -6 38 -16 43 -8 5 -16
15 -17 24 -2 8 -15 26 -30 40 -15 14 -27 32 -27 39 0 8 -13 20 -30 26 -27 10
-30 15 -27 55 2 42 1 43 -32 46 -33 3 -111 45 -111 60 0 4 -16 16 -35 26 -19
10 -37 28 -41 40 -10 32 -45 66 -69 66 -12 0 -32 11 -45 25 -13 14 -33 25 -44
25 -12 0 -32 9 -46 20 -20 15 -23 21 -12 31 30 31 5 139 -33 139 -6 0 -22 12
-36 26 -37 40 -56 47 -94 34 -19 -6 -35 -17 -35 -23 0 -20 -63 -77 -85 -77
-12 0 -30 -9 -40 -20 -26 -29 -95 -28 -122 3 -11 12 -23 30 -26 39 -3 9 -18
18 -34 20 -17 2 -32 12 -39 26 -15 31 -85 102 -99 102 -6 0 -22 11 -34 24 -12
13 -40 31 -62 41 -21 10 -39 22 -39 27 0 5 -11 13 -25 18 -18 7 -24 16 -22 32
1 18 -3 23 -20 23 -13 0 -28 6 -35 13 -7 7 -23 12 -35 12 -25 0 -73 40 -73 61
0 6 7 8 16 5 9 -4 32 3 51 14 26 15 52 20 105 20 96 0 108 11 108 102 l0 68
29 -2 c16 -1 36 4 45 11 9 7 23 10 32 7 9 -4 23 -1 31 6 8 6 38 10 66 9 47 -2
56 2 82 29 16 16 34 30 40 30 7 0 20 9 30 20 14 16 15 22 5 34 -10 12 -8 21
10 46 12 16 28 30 36 30 8 0 14 5 14 10 0 6 9 10 20 10 18 0 20 7 20 65 0 37
4 65 10 65 6 0 10 28 10 64 0 54 3 64 19 69 20 5 51 59 51 89 0 10 7 18 15 18
8 0 15 -4 15 -10z m-1805 -558 c31 -26 63 -42 85 -42 15 0 20 -7 20 -25 0 -28
49 -65 85 -65 11 0 26 -9 33 -20 7 -11 18 -20 25 -20 7 0 26 -13 42 -30 16
-16 38 -30 50 -30 12 0 25 -3 29 -7 13 -13 95 -11 107 3 6 8 24 20 40 28 24
12 30 12 40 0 6 -7 32 -25 57 -39 44 -25 54 -26 155 -23 l109 3 28 -31 c29
-34 87 -67 101 -58 14 8 59 -27 59 -46 0 -11 19 -28 53 -45 28 -15 68 -42 87
-61 20 -19 40 -34 46 -34 5 0 39 -29 74 -65 35 -36 70 -65 77 -65 7 0 13 -4
13 -9 0 -5 12 -23 26 -40 25 -30 28 -31 108 -31 70 0 86 3 101 20 10 11 28 20
40 20 26 0 53 28 76 76 14 31 17 33 29 20 7 -9 18 -16 24 -16 7 0 30 -18 51
-40 30 -31 36 -43 27 -52 -7 -7 -12 -30 -12 -52 0 -44 30 -86 61 -86 10 0 34
-10 52 -22 19 -13 49 -31 66 -40 17 -9 40 -33 52 -52 11 -19 35 -44 52 -55 18
-12 47 -32 66 -46 19 -14 47 -25 62 -25 25 0 29 -4 29 -28 0 -19 12 -40 35
-62 19 -19 35 -40 35 -47 0 -6 19 -30 42 -53 34 -33 40 -43 28 -50 -12 -8 -13
-13 -2 -30 25 -40 8 -80 -34 -80 -27 0 -41 -17 -46 -55 l-3 -30 -75 -3 c-80
-3 -110 -18 -110 -56 -1 -48 -20 -56 -128 -56 -56 0 -104 -4 -107 -10 -3 -5
-14 -10 -24 -10 -26 0 -82 -30 -88 -47 -4 -9 -1 -24 5 -34 7 -10 12 -37 12
-59 0 -45 14 -75 48 -103 12 -10 22 -28 22 -39 0 -41 57 -77 75 -48 20 33 125
-23 146 -77 12 -33 47 -29 86 9 30 29 33 37 33 94 0 64 7 74 51 74 12 0 19 7
19 20 0 36 28 21 106 -55 56 -55 84 -75 103 -75 56 0 117 -63 81 -85 -5 -3
-10 -25 -10 -49 0 -30 -6 -48 -20 -61 -15 -13 -20 -31 -20 -65 0 -34 5 -52 20
-65 21 -19 26 -50 10 -60 -5 -3 -10 -23 -10 -44 0 -20 -5 -42 -11 -48 -25 -25
-2 -42 62 -45 58 -3 64 -5 80 -35 15 -26 16 -36 6 -57 -7 -14 -15 -26 -20 -26
-4 0 -26 -17 -50 -39 -23 -21 -52 -43 -64 -50 -17 -9 -23 -21 -23 -46 0 -40
-20 -55 -74 -55 l-36 0 0 -68 c0 -37 -5 -73 -11 -79 -12 -12 -99 -6 -113 8
-24 22 -156 1 -156 -24 0 -5 20 -28 43 -52 58 -58 76 -99 53 -124 -9 -9 -16
-22 -16 -28 0 -6 -14 -23 -31 -37 -23 -20 -37 -24 -57 -19 -32 7 -42 20 -42
54 0 16 -12 36 -35 56 -22 19 -35 40 -35 55 0 30 -60 90 -92 92 -19 1 -23 7
-24 36 -1 60 -1 60 -54 60 -37 0 -61 7 -90 25 -22 14 -51 25 -64 25 -14 0 -28
5 -31 10 -3 6 -19 10 -34 10 -15 0 -39 6 -54 13 -23 11 -27 17 -25 57 1 62
-16 100 -44 100 -54 0 -112 64 -78 85 16 10 12 36 -7 51 -26 19 -57 17 -78 -6
-16 -17 -31 -20 -111 -20 -75 0 -100 -4 -129 -20 -20 -11 -53 -20 -75 -20 -22
0 -55 -9 -75 -20 -20 -11 -42 -20 -50 -20 -8 0 -20 9 -27 20 -11 18 -24 20
-109 20 -83 0 -98 3 -114 20 -11 12 -31 20 -50 20 -17 0 -36 5 -42 11 -6 6
-23 9 -39 7 -26 -3 -29 -7 -29 -38 l0 -35 -59 -3 c-56 -3 -61 -1 -100 35 -23
21 -51 44 -63 51 -31 17 -98 15 -113 -3 -11 -13 -16 -12 -39 8 -40 34 -102 26
-120 -14 -7 -16 -10 -32 -7 -37 3 -5 -7 -21 -23 -36 -25 -24 -35 -27 -82 -24
l-54 3 -3 83 c-3 78 -4 82 -26 82 -27 0 -58 31 -83 85 -15 34 -23 40 -53 43
-19 2 -39 8 -45 13 -12 12 -48 12 -61 -1 -7 -7 -21 -5 -42 6 -33 16 -35 34 -4
34 26 1 52 25 52 48 0 12 -9 37 -20 56 -11 21 -15 38 -10 41 6 4 10 14 10 23
0 25 38 46 55 32 7 -6 39 -10 72 -8 l58 3 3 64 c2 36 -2 69 -7 74 -18 18 -13
103 9 142 22 38 26 80 10 90 -5 3 -10 22 -10 41 0 19 5 34 10 34 6 0 10 7 10
15 0 11 -12 15 -49 15 -28 0 -52 -4 -55 -8 -7 -11 -102 -8 -97 4 2 5 6 16 8
24 21 66 40 83 103 90 44 5 45 6 48 43 2 21 -1 37 -7 37 -6 0 -11 19 -11 43 0
33 6 49 24 66 13 12 32 38 42 57 10 18 23 34 29 34 13 0 35 48 35 77 0 12 9
38 20 58 11 20 20 41 20 48 0 7 9 29 19 49 11 19 17 39 14 42 -8 8 27 46 41
46 19 0 32 43 21 67 -8 18 -18 23 -52 23 -23 0 -45 5 -48 10 -3 6 -17 10 -29
10 -13 0 -34 6 -47 13 -44 24 -107 66 -114 77 -3 5 -17 7 -30 4 -12 -3 -26 -1
-29 5 -4 6 -27 11 -52 11 -24 0 -44 3 -44 7 0 12 73 83 85 83 7 0 20 9 30 20
10 11 23 20 29 20 6 0 16 10 21 22 6 12 19 26 30 32 35 19 45 40 42 86 -2 41
-4 45 -29 48 -16 2 -28 7 -28 11 0 17 31 68 54 90 19 18 23 30 19 56 -3 19 -1
35 6 39 6 4 11 17 11 30 0 12 11 33 25 46 32 30 55 75 55 108 0 21 3 23 28 17
15 -3 36 -14 47 -23z m4421 -1895 c8 3 25 -3 37 -13 33 -28 64 -44 87 -44 13
0 20 -7 20 -20 0 -11 6 -30 13 -43 6 -12 13 -23 14 -25 0 -2 21 -5 45 -7 51
-3 78 8 78 35 0 18 7 20 60 20 39 0 74 -7 98 -19 20 -10 43 -16 49 -14 7 3 23
-3 35 -11 25 -18 59 -21 74 -7 5 6 21 4 41 -4 l32 -14 3 -93 3 -93 39 -3 c21
-2 43 1 49 7 14 14 57 14 57 1 0 -5 -4 -10 -9 -10 -5 0 -9 -27 -8 -60 0 -34
-5 -66 -11 -72 -25 -25 -14 -64 25 -89 21 -13 40 -35 43 -48 5 -21 12 -25 53
-26 26 -2 50 1 53 6 3 5 23 9 44 9 21 0 42 5 45 10 10 16 20 12 51 -17 35 -33
79 -38 115 -12 15 10 31 19 37 19 5 0 26 -20 46 -45 34 -41 41 -45 82 -45 24
0 44 5 44 10 0 6 4 10 9 10 13 0 51 -67 51 -90 0 -10 5 -22 11 -26 7 -4 9 -24
6 -55 -5 -37 -2 -53 12 -71 10 -13 20 -31 24 -40 3 -10 22 -20 44 -24 21 -4
44 -11 51 -17 7 -6 50 -11 94 -11 l82 -1 8 -32 c11 -44 49 -54 82 -24 18 17
33 22 62 19 36 -3 39 -6 44 -38 5 -33 7 -35 45 -37 48 -2 102 21 107 45 3 14
11 10 39 -20 26 -28 44 -38 66 -38 17 0 37 -8 47 -19 22 -24 104 -64 119 -58
7 2 28 -4 47 -15 19 -10 45 -18 57 -18 13 0 23 -4 23 -8 0 -20 -28 -32 -77
-32 l-53 0 0 -37 c0 -20 8 -45 17 -55 10 -11 20 -40 23 -66 4 -36 10 -49 27
-57 23 -10 43 -44 43 -75 0 -28 11 -50 25 -50 24 0 73 31 78 49 5 20 64 54 78
45 5 -3 9 -32 9 -64 0 -52 3 -62 31 -89 28 -28 30 -36 27 -88 -1 -32 2 -64 6
-72 6 -9 4 -18 -6 -25 -8 -6 -17 -19 -21 -28 -3 -10 -13 -18 -22 -18 -9 0 -15
-9 -15 -23 0 -13 -11 -34 -25 -47 -14 -13 -25 -27 -25 -32 0 -5 -11 -25 -24
-46 l-24 -38 33 -71 c18 -39 44 -88 59 -109 14 -21 26 -51 26 -65 0 -15 7 -29
15 -33 13 -5 9 -13 -19 -41 -34 -33 -39 -35 -104 -35 -53 0 -72 -4 -84 -17
-19 -22 -48 -82 -48 -98 0 -7 -7 -26 -16 -43 -14 -29 -19 -32 -52 -26 -33 5
-38 2 -49 -22 -7 -16 -13 -44 -13 -64 0 -31 -5 -38 -32 -52 -24 -11 -41 -12
-63 -6 -16 5 -65 10 -108 11 -77 2 -78 2 -72 -21 8 -32 -19 -51 -72 -52 -23 0
-45 -4 -48 -10 -3 -5 -28 -10 -54 -10 -26 0 -52 -5 -59 -12 -9 -9 -17 -7 -35
10 -13 12 -31 22 -40 22 -10 0 -26 6 -37 13 -19 11 -25 7 -63 -35 -24 -27 -46
-48 -49 -48 -4 0 -8 19 -10 43 l-3 42 -54 3 c-64 4 -118 -18 -131 -53 -5 -13
-22 -31 -37 -39 -15 -8 -39 -26 -53 -41 -34 -36 -72 -55 -112 -55 -41 0 -48 6
-72 53 -32 62 -130 92 -158 47 -7 -11 -21 -20 -30 -20 -10 0 -18 -4 -18 -10 0
-19 -31 -10 -39 13 -10 24 -36 48 -73 68 -13 7 -33 21 -45 33 -57 54 -70 64
-95 70 -16 3 -31 7 -35 7 -23 3 -43 22 -43 42 0 14 -17 39 -40 62 -30 29 -39
46 -38 67 1 17 -6 36 -20 51 -12 13 -19 26 -16 30 16 16 -18 35 -52 30 -27 -4
-42 -1 -64 16 -23 17 -43 21 -98 21 -104 0 -151 33 -152 106 0 31 -13 49 -52
69 -27 13 -26 27 1 41 12 6 32 21 45 33 20 19 23 29 18 69 -3 30 -12 52 -24
60 -12 9 -17 21 -13 39 5 32 23 45 46 32 10 -5 39 -9 64 -9 40 0 53 6 93 40
43 38 112 131 112 151 0 5 14 12 30 16 21 4 30 11 30 24 0 22 -58 62 -78 54
-18 -7 -92 32 -92 49 0 8 -19 24 -42 36 -24 12 -64 42 -90 68 -38 36 -48 53
-48 79 0 17 -4 35 -10 38 -5 3 -10 15 -10 26 0 11 -12 33 -27 48 -27 27 -30
27 -135 25 -73 -2 -116 -8 -137 -18 -16 -9 -39 -16 -50 -16 -11 0 -23 -4 -26
-10 -3 -5 -17 -10 -31 -10 -13 0 -24 -4 -24 -8 0 -5 -12 -14 -27 -22 -76 -35
-76 -35 -80 -22 -3 8 -26 12 -68 12 -69 0 -104 14 -136 54 -16 20 -29 26 -58
26 -21 0 -41 3 -44 7 -13 12 -158 10 -184 -4 -14 -7 -30 -10 -35 -7 -5 4 -20
1 -33 -6 -20 -11 -29 -10 -57 7 -33 19 -33 20 -36 101 -2 54 1 82 8 82 7 0 10
34 8 103 l-3 102 -68 1 c-37 0 -70 -3 -73 -8 -3 -4 -43 -8 -90 -8 -76 0 -84
-2 -84 -19 0 -11 -4 -22 -9 -26 -6 -3 -9 -49 -8 -102 0 -70 -3 -98 -12 -101
-7 -2 -16 -15 -21 -28 -13 -34 -31 -30 -64 16 -17 22 -33 40 -38 40 -4 0 -8 8
-8 19 0 10 -7 24 -15 31 -20 16 -45 68 -45 93 0 18 -5 19 -74 15 l-75 -5 -3
41 c-3 41 -3 41 -43 41 l-40 0 0 55 c0 47 3 56 24 66 33 17 109 94 126 128 21
41 19 89 -5 111 -11 10 -20 24 -20 32 0 9 -16 13 -55 13 -52 0 -55 1 -55 24 0
14 5 28 10 31 6 3 10 31 10 61 0 50 2 54 23 54 12 0 33 7 45 16 23 16 32 18
105 30 20 3 40 10 43 15 3 5 20 9 37 9 35 0 130 31 153 51 8 6 14 16 14 22 0
15 41 57 55 57 13 0 40 -48 37 -66 -1 -6 7 -19 18 -29 11 -10 20 -24 20 -32 0
-8 13 -22 30 -31 27 -15 29 -22 32 -77 3 -68 -8 -62 129 -71 68 -5 80 -9 105
-35 23 -24 36 -29 75 -29 26 0 51 5 54 10 3 6 21 10 40 10 19 0 37 5 40 10 3
6 17 10 31 10 23 0 24 3 24 65 l0 65 49 0 c45 0 53 3 77 35 14 19 31 35 38 35
15 0 36 47 36 81 0 15 14 53 30 84 33 63 36 76 18 105 -10 16 -10 24 0 40 6
11 12 29 12 40 0 13 5 18 15 14 8 -4 15 -12 15 -19 0 -29 48 -45 132 -45 72 1
87 4 112 24 16 13 25 29 22 35 -16 25 6 32 40 12 19 -11 41 -18 50 -14z m7389
3 c3 -5 1 -10 -4 -10 -6 0 -11 5 -11 10 0 6 2 10 4 10 3 0 8 -4 11 -10z
m-1985 -60 c0 -5 -5 -10 -11 -10 -5 0 -7 5 -4 10 3 6 8 10 11 10 2 0 4 -4 4
-10z m-7230 -950 c5 -21 12 -25 45 -26 40 0 40 -1 45 -45 4 -39 8 -44 33 -47
15 -2 27 1 27 7 0 6 20 11 45 11 39 0 45 -3 45 -21 0 -12 14 -37 30 -56 17
-18 30 -43 30 -53 0 -11 4 -20 9 -20 5 0 16 -16 25 -35 12 -26 23 -35 41 -35
13 0 27 -4 30 -10 3 -5 18 -10 33 -10 22 1 31 9 50 51 20 41 23 62 21 124 -3
69 -1 77 21 99 22 22 37 25 138 32 l112 7 0 -72 c0 -41 -4 -71 -10 -71 -6 0
-10 -32 -10 -75 0 -43 -4 -75 -10 -75 -5 0 -10 -12 -10 -27 0 -21 9 -34 35
-52 40 -27 115 -44 130 -30 5 5 21 9 35 9 14 0 31 5 37 11 7 7 39 9 84 6 115
-7 137 -13 173 -52 32 -34 35 -35 109 -35 42 0 79 -4 82 -10 15 -25 135 11
135 41 0 5 15 9 34 9 19 0 38 5 41 10 4 6 15 8 24 5 11 -3 25 3 36 15 16 17
31 20 116 20 94 0 98 -1 118 -27 21 -26 25 -36 36 -105 4 -28 14 -42 40 -58
19 -12 35 -27 35 -34 0 -15 62 -59 98 -70 12 -4 25 -18 28 -32 4 -17 13 -24
29 -24 13 0 27 -4 30 -10 3 -5 17 -10 31 -10 30 0 33 -30 4 -48 -11 -7 -20
-18 -20 -26 0 -8 -7 -16 -15 -20 -8 -3 -15 -13 -15 -22 0 -19 -45 -64 -63 -64
-7 0 -18 -9 -25 -20 -13 -21 -66 -28 -77 -10 -3 6 -24 10 -45 10 -35 0 -40 -3
-45 -27 -3 -16 -9 -39 -14 -53 -9 -30 6 -70 26 -70 7 0 13 -10 13 -23 0 -25
-24 -52 -63 -71 -18 -9 -22 -20 -22 -56 0 -37 4 -45 20 -48 31 -6 45 -22 45
-51 1 -38 32 -90 64 -106 17 -9 57 -15 101 -15 59 0 75 -4 90 -20 13 -15 31
-20 67 -20 46 0 49 -2 54 -29 4 -17 12 -32 20 -35 8 -3 14 -19 14 -37 0 -23
11 -44 40 -75 22 -24 40 -52 40 -63 0 -25 15 -34 75 -50 27 -7 57 -19 66 -27
8 -8 21 -14 27 -14 7 0 12 -9 12 -20 0 -13 11 -25 28 -33 15 -6 38 -22 52 -34
l24 -22 -24 -27 c-22 -23 -60 -46 -82 -48 -11 -2 -33 -26 -34 -39 0 -7 -2 -22
-2 -34 -1 -13 -5 -22 -9 -21 -5 1 -19 -4 -32 -11 -14 -8 -40 -11 -62 -8 -42 6
-59 -6 -59 -41 0 -15 -7 -26 -20 -29 -11 -3 -20 -9 -20 -14 0 -5 -13 -9 -29
-9 -16 0 -31 -6 -34 -15 -3 -8 -25 -23 -49 -35 -24 -11 -56 -29 -73 -40 -23
-14 -50 -19 -117 -19 -81 -1 -88 -3 -88 -21 0 -11 5 -29 12 -40 10 -15 9 -22
-3 -37 -30 -37 -57 -99 -62 -146 -4 -44 -3 -49 19 -57 27 -11 31 -25 10 -33
-8 -3 -17 -19 -21 -35 -9 -44 -66 -85 -104 -75 -33 8 -27 -32 9 -59 17 -12 30
-27 30 -33 0 -14 -32 -44 -63 -59 -18 -10 -22 -21 -25 -69 -3 -48 -6 -57 -21
-57 -29 0 -70 -25 -108 -65 -19 -20 -39 -35 -45 -33 -6 2 -16 19 -22 38 -11
34 -13 35 -68 38 -49 3 -57 0 -63 -18 -7 -21 -39 -28 -50 -10 -4 6 -58 10
-129 10 l-122 0 -22 30 c-24 32 -49 39 -58 15 -5 -11 -16 -13 -50 -8 -40 5
-44 4 -44 -16 0 -20 -5 -21 -79 -21 -77 0 -80 1 -109 34 -39 45 -66 53 -89 27
-10 -12 -25 -21 -35 -21 -9 0 -22 -9 -28 -20 -10 -18 -21 -20 -130 -20 -73 0
-120 -4 -120 -10 0 -5 -9 -10 -20 -10 -11 0 -20 -4 -20 -10 0 -5 -9 -10 -20
-10 -11 0 -20 -4 -20 -10 0 -18 -29 -11 -40 10 -6 11 -21 20 -34 20 -30 0 -50
24 -92 107 -49 98 -42 153 18 153 29 0 51 45 47 99 -3 42 16 75 38 67 8 -3 13
2 13 14 0 11 5 20 10 20 6 0 10 9 10 20 0 11 3 20 8 20 13 0 32 53 32 91 0 27
6 42 20 52 22 15 18 47 -5 47 -7 0 -18 7 -25 15 -7 8 -21 15 -32 15 -26 0
-115 86 -133 129 -8 18 -28 49 -45 67 -35 40 -35 42 -14 65 12 13 14 28 9 58
-6 37 -11 43 -63 68 -31 15 -79 50 -107 79 -27 28 -60 54 -72 58 -15 5 -23 15
-23 30 0 13 -7 29 -15 36 -9 8 -15 29 -15 56 0 33 -5 46 -19 54 -11 5 -21 22
-23 37 -2 21 -8 28 -25 28 -11 0 -25 3 -29 8 -4 4 -20 7 -35 7 -21 0 -31 8
-43 32 -9 17 -16 39 -16 49 0 10 -5 30 -12 43 -9 22 -8 29 7 47 13 14 26 18
42 14 22 -5 23 -3 23 44 0 27 -4 53 -10 56 -5 3 -10 24 -10 46 0 21 5 39 10
39 6 0 10 18 10 40 0 22 -4 40 -10 40 -5 0 -10 7 -10 16 0 9 -9 18 -20 21 -11
3 -20 9 -20 14 0 4 -11 19 -25 33 -26 26 -35 89 -15 101 6 3 10 24 10 45 0 21
-4 42 -10 45 -5 3 -10 33 -10 65 0 32 5 62 10 65 6 3 10 17 10 29 0 13 7 29
15 36 9 8 15 30 15 57 0 37 -4 46 -21 50 -16 5 -19 11 -14 34 5 22 2 31 -14
41 -12 7 -21 19 -21 26 0 7 -5 21 -11 31 -9 14 -9 25 2 50 13 29 18 31 62 31
47 0 77 15 77 40 0 6 14 23 30 37 17 14 30 35 30 48 0 34 -29 108 -45 118 -20
11 -20 57 -1 57 8 0 18 -4 21 -10 3 -5 26 -10 51 -10 24 0 53 -5 64 -12 16
-10 23 -9 45 12 22 20 25 32 25 87 l0 64 42 -3 c36 -3 43 -7 48 -28z m6145
-250 c28 -16 57 -33 65 -36 24 -11 60 -46 60 -59 0 -6 14 -24 30 -40 17 -16
30 -34 30 -40 0 -5 18 -18 40 -28 23 -9 43 -25 47 -35 3 -9 29 -41 57 -69 41
-43 57 -53 83 -53 27 0 33 -4 33 -22 0 -27 28 -58 46 -51 25 9 44 -17 44 -60
0 -63 29 -87 102 -87 59 0 84 9 126 45 23 19 23 19 28 -1 3 -12 21 -27 39 -34
48 -19 129 -107 144 -156 8 -23 22 -44 34 -50 25 -11 36 -44 14 -44 -8 0 -20
-7 -27 -15 -7 -9 -33 -25 -56 -35 -24 -11 -46 -24 -49 -30 -11 -18 -39 -11
-60 14 -18 23 -29 25 -110 28 l-90 3 -15 -32 c-20 -43 -67 -63 -145 -63 -37 0
-65 -4 -65 -10 0 -5 -15 -10 -34 -10 -19 0 -38 -4 -41 -10 -3 -5 -17 -10 -30
-10 -13 0 -27 5 -30 10 -10 16 -72 11 -107 -8 -18 -10 -38 -17 -45 -15 -6 2
-14 -1 -18 -6 -3 -6 -36 -11 -72 -11 -56 0 -66 -3 -70 -20 -3 -11 -11 -20 -17
-20 -6 0 -27 -13 -46 -30 -31 -25 -43 -29 -98 -30 -70 0 -103 -13 -146 -59
-17 -17 -34 -31 -39 -31 -11 0 -57 -36 -131 -102 -29 -27 -57 -48 -63 -48 -5
0 -23 -16 -39 -35 -20 -24 -37 -35 -56 -35 -19 0 -34 -9 -50 -30 -12 -16 -30
-30 -39 -30 -10 0 -22 -7 -27 -16 -8 -15 -12 -15 -38 5 -26 19 -32 19 -66 8
-21 -7 -41 -16 -44 -20 -14 -14 -24 -7 -24 16 0 64 -185 143 -208 90 -22 -51
-48 -83 -69 -83 -18 0 -23 -6 -23 -28 0 -15 -6 -40 -12 -55 -12 -26 -16 -27
-89 -27 -63 0 -79 -3 -94 -20 -24 -27 -41 -25 -61 6 -20 30 -63 54 -99 54 -18
0 -28 7 -35 25 -5 14 -15 25 -22 26 -42 4 -75 -5 -89 -23 -11 -14 -18 -17 -23
-9 -4 6 -18 11 -31 11 -27 0 -61 41 -52 64 4 10 17 13 45 9 38 -5 41 -3 57 30
9 19 15 44 13 54 -1 10 5 29 15 43 9 13 17 32 17 42 0 16 11 18 95 18 90 0 95
1 95 21 0 14 10 24 30 32 26 10 30 16 30 49 0 27 -6 41 -20 50 -11 7 -20 23
-20 36 0 13 -15 47 -34 75 -60 92 -69 118 -51 153 8 17 26 41 40 54 14 13 25
32 25 42 0 11 16 36 36 56 33 34 35 40 30 82 -3 25 -6 73 -5 108 0 57 -2 65
-30 93 -24 23 -31 39 -31 67 1 40 28 82 54 82 9 0 16 5 16 10 0 6 20 10 44 10
25 0 48 5 51 10 3 6 14 10 23 10 9 0 49 16 87 36 53 27 82 36 120 36 35 0 56
6 70 18 11 10 48 24 83 30 57 10 66 9 96 -9 49 -31 96 -27 131 9 27 28 33 30
106 30 84 0 124 -14 143 -52 15 -31 81 -38 101 -11 13 17 14 16 24 -9 9 -24
16 -28 49 -28 46 0 89 19 122 55 13 14 29 25 35 25 17 0 53 45 57 71 2 18 47
56 68 58 3 0 28 -13 55 -29z m-1693 -1575 c9 -21 18 -25 53 -25 49 0 72 -15
77 -50 3 -22 9 -26 48 -30 39 -4 45 -8 48 -31 2 -19 -3 -28 -23 -37 -14 -7
-35 -12 -46 -12 -11 0 -22 -7 -26 -16 -3 -9 -26 -34 -50 -56 -55 -51 -59 -92
-13 -140 31 -32 38 -48 20 -48 -5 0 -10 -9 -10 -20 0 -11 -5 -20 -11 -20 -8 0
-10 -14 -6 -40 6 -44 0 -52 -66 -84 l-42 -21 -3 -84 c-2 -74 0 -86 18 -103 23
-21 26 -38 7 -38 -7 0 -26 -13 -42 -30 -16 -16 -34 -30 -40 -30 -14 0 -104
-91 -119 -121 -7 -16 -22 -25 -41 -27 -17 -1 -40 -8 -52 -14 -12 -6 -32 -8
-46 -5 -18 5 -31 -1 -58 -29 -19 -20 -52 -44 -74 -54 -22 -10 -53 -32 -69 -49
-17 -17 -35 -31 -41 -31 -7 0 -20 -9 -30 -20 -10 -11 -29 -20 -42 -20 -12 0
-23 -4 -23 -10 0 -5 -8 -10 -18 -10 -26 0 -75 -25 -97 -50 -10 -11 -24 -20
-31 -20 -7 0 -18 -9 -24 -20 -6 -12 -21 -20 -36 -20 -17 0 -40 -14 -67 -42
-23 -24 -64 -54 -92 -67 -52 -26 -115 -78 -115 -95 0 -14 -172 -186 -186 -186
-12 0 -118 -111 -147 -154 -10 -14 -27 -26 -38 -26 -19 0 -20 -5 -15 -47 2
-27 8 -64 11 -83 6 -30 2 -39 -24 -64 -17 -17 -31 -34 -31 -40 0 -6 -17 -27
-37 -48 -25 -26 -46 -38 -65 -38 -15 0 -28 -4 -28 -10 0 -5 -20 -10 -44 -10
-25 0 -48 -4 -51 -10 -3 -5 -19 -10 -35 -10 -16 0 -32 -4 -35 -10 -3 -5 -22
-10 -41 -10 -29 0 -43 9 -85 53 -48 50 -49 52 -25 55 13 2 31 11 39 20 14 16
13 21 -13 62 -16 25 -38 56 -50 70 -36 43 -40 53 -40 122 l0 68 -40 20 c-44
23 -102 26 -118 8 -5 -7 -12 -24 -14 -38 -3 -22 -9 -25 -47 -28 -36 -3 -49 1
-75 25 -50 45 -72 53 -147 53 -56 0 -70 -3 -66 -14 3 -8 -19 -38 -53 -71 -33
-33 -62 -71 -65 -87 -10 -43 -26 -45 -59 -6 -27 30 -76 111 -76 124 0 2 9 4
20 4 16 0 20 7 20 30 0 17 5 30 10 30 6 0 10 28 10 64 0 36 5 68 10 71 6 3 10
28 10 54 0 26 3 51 8 55 4 4 7 15 7 24 1 34 40 102 57 102 15 0 18 9 18 54 0
44 -4 56 -22 68 l-22 15 29 26 c17 14 41 29 54 32 39 10 51 30 51 84 0 48 1
51 26 51 16 0 28 7 31 18 2 10 14 22 26 27 32 14 33 43 2 75 l-27 28 34 12
c27 10 39 24 58 65 19 40 32 56 58 66 28 11 33 17 30 44 -3 28 -5 30 -41 27
-27 -3 -39 1 -43 13 -7 18 30 100 59 128 10 10 16 26 13 35 -2 9 -7 27 -11 40
-7 23 -6 23 68 21 49 -1 84 3 103 13 93 47 134 71 145 84 6 8 20 14 30 14 10
0 30 5 44 12 19 9 25 19 25 45 l0 33 55 0 c30 0 55 5 55 10 0 6 7 10 16 10 22
0 42 22 46 51 1 13 13 28 26 34 12 5 22 13 22 17 0 5 6 8 13 8 8 0 22 9 32 20
19 21 45 27 45 10 0 -18 45 -10 58 10 7 11 17 20 23 20 6 0 24 9 40 21 29 21
31 21 50 3 11 -10 29 -38 40 -61 l19 -43 90 0 c79 0 91 2 100 20 6 11 19 20
29 20 11 0 21 7 24 15 4 8 24 25 46 39 22 14 42 34 46 45 7 23 65 55 76 44 4
-5 9 -33 11 -63 2 -44 7 -55 22 -58 26 -5 62 16 113 67 l43 45 41 -22 c43 -23
103 -29 114 -12 3 6 26 10 51 10 24 0 44 5 44 10 0 6 22 10 48 10 62 0 100 18
104 50 3 21 8 24 41 23 21 0 44 -6 50 -12 6 -6 34 -11 62 -11 39 0 56 5 70 20
20 22 98 29 110 10 3 -5 24 -10 46 -10 32 0 39 3 39 20 0 28 18 25 32 -5z
m708 -240 c0 -19 -43 -40 -64 -32 -23 9 -20 26 7 37 34 14 57 12 57 -5z"/>
<path fill="252929" d="M11390 12190 c0 -6 7 -10 15 -10 8 0 15 2 15 4 0 2 -7 6 -15 10 -8 3
-15 1 -15 -4z"/>
<path d="M11473 12149 c14 -8 22 -8 30 0 8 8 3 11 -18 11 -26 -1 -28 -2 -12
-11z"/>
<path fill="252929"  d="M10070 11200 l0 -110 65 0 c52 0 69 4 85 20 24 24 26 57 5 87 -10 14
-12 24 -5 28 16 10 11 51 -8 68 -13 12 -37 17 -80 17 l-62 0 0 -110z m114 74
c9 -3 16 -14 16 -24 0 -21 -19 -30 -61 -30 -26 0 -29 4 -29 30 0 26 3 30 29
30 16 0 36 -3 45 -6z m0 -90 c9 -3 16 -16 16 -29 0 -25 -17 -35 -61 -35 -27 0
-29 3 -29 35 0 32 2 35 29 35 16 0 36 -3 45 -6z"/>
<path fill="252929" d="M10807 11293 c-4 -3 -7 -15 -7 -25 0 -10 -4 -18 -10 -18 -5 0 -10 -7
-10 -15 0 -8 4 -15 10 -15 5 0 10 -28 12 -62 3 -60 4 -63 31 -66 28 -3 38 15
12 24 -11 4 -15 21 -15 55 0 37 4 49 15 49 8 0 15 7 15 15 0 8 -7 15 -15 15
-9 0 -15 9 -15 25 0 24 -10 32 -23 18z"/>
<path d="M10278 11228 c-26 -26 -9 -37 27 -18 24 13 55 8 55 -8 0 -5 -21 -15
-47 -23 -37 -11 -49 -19 -51 -37 -6 -39 14 -51 81 -50 l62 1 -5 69 c-4 46 -10
72 -20 78 -27 17 -79 11 -102 -12z m82 -83 c0 -18 -48 -31 -62 -17 -16 16 0
32 33 32 19 0 29 -5 29 -15z"/>
<path d="M10430 11169 c0 -64 3 -79 15 -79 11 0 15 11 15 39 0 53 14 87 39 94
38 10 22 26 -24 25 l-45 -1 0 -78z"/>
<path d="M10530 11169 c0 -64 3 -79 15 -79 11 0 15 11 15 39 0 53 14 87 39 94
38 10 22 26 -24 25 l-45 -1 0 -78z"/>
<path d="M10640 11228 c-27 -29 -27 -91 0 -118 24 -24 82 -27 104 -4 31 30 14
45 -26 23 -15 -8 -27 -8 -44 0 -42 19 -27 31 37 31 l61 0 -7 28 c-3 15 -14 35
-22 45 -23 24 -77 22 -103 -5z m74 -14 c33 -13 17 -34 -24 -34 -42 0 -52 12
-22 29 20 12 25 13 46 5z"/>
<path d="M10890 11230 c-13 -13 -20 -33 -20 -60 0 -51 27 -80 74 -80 25 0 40
7 55 26 43 55 11 134 -55 134 -21 0 -42 -8 -54 -20z m86 -35 c15 -23 15 -27 0
-50 -18 -28 -28 -30 -57 -15 -25 14 -26 65 -1 79 27 16 40 13 58 -14z"/>
<path d="M11046 11228 c-21 -30 -2 -60 48 -72 20 -5 36 -13 36 -18 0 -16 -31
-21 -55 -8 -34 18 -49 10 -30 -18 24 -33 89 -31 112 4 22 34 9 55 -45 72 -52
17 -45 36 9 27 43 -7 47 -4 23 19 -24 24 -80 20 -98 -6z"/>
<path d="M6158 10548 c-9 -24 -27 -73 -41 -110 -20 -52 -23 -68 -12 -68 7 0
19 16 25 35 11 33 14 35 56 35 41 0 46 -3 61 -35 24 -50 49 -48 27 3 -8 20
-29 70 -46 110 -16 39 -35 72 -42 72 -6 0 -19 -19 -28 -42z m47 -34 c19 -46
20 -44 -15 -44 -16 0 -30 3 -30 7 0 9 23 73 27 73 1 0 10 -16 18 -36z"/>
<path d="M7130 10480 c0 -67 4 -110 10 -110 6 0 10 7 10 17 0 15 1 15 18 0 41
-38 92 -3 92 63 0 27 -7 47 -20 60 -21 21 -55 26 -65 10 -13 -22 -25 -8 -25
30 0 22 -4 40 -10 40 -6 0 -10 -43 -10 -110z m104 -2 c17 -28 -4 -72 -37 -76
-21 -3 -29 2 -39 22 -17 39 3 78 39 74 14 -2 31 -11 37 -20z"/>
<path d="M6898 10574 c-5 -4 -8 -16 -8 -26 0 -10 -4 -18 -10 -18 -5 0 -10 -7
-10 -15 0 -8 5 -15 10 -15 6 0 10 -26 10 -59 0 -57 8 -71 41 -71 15 0 10 27
-6 34 -10 4 -15 20 -15 51 0 33 4 45 15 45 8 0 15 7 15 15 0 8 -6 15 -14 15
-8 0 -16 12 -18 26 -2 14 -6 22 -10 18z"/>
<path d="M6310 10450 c0 -47 4 -80 10 -80 6 0 10 18 10 39 0 56 15 91 40 91
11 0 20 7 20 15 0 18 -31 20 -48 3 -9 -9 -12 -9 -12 0 0 7 -4 12 -10 12 -6 0
-10 -33 -10 -80z"/>
<path d="M6419 10509 c-26 -26 -17 -37 15 -20 29 16 61 11 61 -9 0 -9 -14 -17
-35 -20 -49 -8 -60 -17 -60 -46 0 -33 37 -50 79 -36 19 7 31 7 31 1 0 -5 6 -9
13 -9 18 0 7 138 -13 150 -25 16 -69 11 -91 -11z m81 -79 c0 -13 -9 -22 -25
-26 -52 -13 -76 23 -24 37 41 12 49 10 49 -11z"/>
<path d="M6590 10510 c-13 -13 -20 -33 -20 -60 0 -27 7 -47 20 -60 11 -11 20
-27 20 -35 0 -8 5 -15 10 -15 6 0 10 -4 10 -10 0 -5 -9 -10 -20 -10 -11 0 -20
-4 -20 -10 0 -13 30 -13 50 0 13 8 13 12 1 32 -11 17 -11 23 -1 26 17 6 50 40
50 52 0 16 -27 12 -34 -5 -7 -19 -40 -19 -55 -1 -32 38 9 103 49 78 25 -16 30
-15 30 3 0 16 -30 35 -54 35 -9 0 -25 -9 -36 -20z"/>
<path d="M6739 10511 c-13 -11 -21 -23 -17 -27 4 -4 14 -1 22 5 20 17 71 10
71 -9 0 -9 -14 -17 -38 -21 -48 -8 -71 -30 -62 -58 8 -26 48 -37 80 -23 15 7
26 8 30 2 4 -6 11 -10 17 -10 19 0 3 132 -18 147 -25 18 -58 16 -85 -6z m81
-75 c0 -20 -26 -38 -51 -34 -31 4 -35 26 -7 37 34 14 58 13 58 -3z"/>
<path d="M6970 10460 c0 -65 2 -71 25 -82 19 -9 29 -8 50 6 22 14 25 14 25 1
0 -8 5 -15 10 -15 6 0 10 33 10 80 0 47 -4 80 -10 80 -5 0 -10 -18 -10 -39 0
-64 -15 -93 -48 -89 -26 3 -27 6 -30 66 -4 85 -22 79 -22 -8z"/>
<path d="M7309 10509 c-26 -26 -17 -37 15 -20 29 16 61 11 61 -9 0 -9 -14 -17
-35 -20 -49 -8 -60 -17 -60 -46 0 -33 37 -50 79 -36 19 7 31 7 31 1 0 -5 6 -9
13 -9 18 0 7 138 -13 150 -25 16 -69 11 -91 -11z m81 -79 c0 -13 -9 -22 -25
-26 -52 -13 -76 23 -24 37 41 12 49 10 49 -11z"/>
<path d="M11890 10200 c0 -91 3 -110 15 -110 11 0 15 12 15 51 0 49 1 50 27
47 20 -2 38 -17 63 -50 20 -27 43 -48 53 -48 16 0 14 7 -16 49 l-36 49 25 16
c16 11 24 26 24 45 0 45 -27 61 -103 61 l-67 0 0 -110z m130 70 c28 -18 -2
-45 -54 -48 -45 -3 -46 -3 -46 27 0 30 2 31 43 31 23 0 49 -5 57 -10z"/>
<path d="M12100 10295 c0 -8 7 -15 15 -15 8 0 15 7 15 15 0 8 -7 15 -15 15 -8
0 -15 -7 -15 -15z"/>
<path d="M12160 10200 c0 -91 3 -110 15 -110 8 0 15 5 15 12 0 9 3 9 12 0 35
-35 98 12 98 74 0 57 -63 97 -98 62 -9 -9 -12 -3 -12 30 0 31 -4 42 -15 42
-12 0 -15 -19 -15 -110z m99 6 c31 -37 -9 -103 -46 -80 -37 23 -24 94 17 94
10 0 23 -6 29 -14z"/>
<path d="M12490 10295 c0 -8 7 -15 15 -15 8 0 15 7 15 15 0 8 -7 15 -15 15 -8
0 -15 -7 -15 -15z"/>
<path d="M12681 10287 c-20 -20 -12 -25 36 -23 34 1 49 5 51 16 2 12 -7 16
-36 17 -22 1 -44 -3 -51 -10z"/>
<path d="M12100 10170 c0 -64 3 -80 15 -80 12 0 15 16 15 80 0 64 -3 80 -15
80 -12 0 -15 -16 -15 -80z"/>
<path d="M12341 10224 c-43 -54 -11 -134 53 -134 20 0 40 8 51 20 22 24 12 39
-15 22 -25 -15 -53 -15 -68 0 -22 22 -13 28 43 28 52 0 55 1 55 25 0 61 -81
87 -119 39z m85 -21 c17 -17 16 -18 -25 -21 -50 -4 -59 1 -41 23 17 20 44 19
66 -2z"/>
<path d="M12490 10170 c0 -64 3 -80 15 -80 12 0 15 16 15 80 0 64 -3 80 -15
80 -12 0 -15 -16 -15 -80z"/>
<path d="M12560 10170 c0 -63 3 -80 15 -80 10 0 15 16 17 63 3 56 5 62 26 65
12 2 22 10 22 18 0 17 -31 19 -48 2 -9 -9 -12 -9 -12 0 0 7 -4 12 -10 12 -6 0
-10 -33 -10 -80z"/>
<path d="M12669 10229 c-27 -27 -18 -35 20 -19 30 12 71 6 71 -11 0 -5 -18
-12 -41 -15 -44 -7 -69 -26 -69 -53 0 -26 20 -41 55 -41 17 0 36 5 43 12 9 9
12 9 12 0 0 -7 7 -12 15 -12 24 0 21 121 -3 143 -26 24 -78 21 -103 -4z m85
-83 c-8 -21 -52 -32 -67 -17 -15 15 1 29 38 33 37 4 37 4 29 -16z"/>
<path d="M12839 10231 c-18 -14 -24 -29 -24 -61 0 -49 29 -80 76 -80 42 0 69
32 69 80 0 71 -67 105 -121 61z m79 -23 c7 -7 12 -24 12 -38 0 -30 -16 -50
-41 -50 -23 0 -49 27 -49 50 0 39 52 64 78 38z"/>
<path d="M12140 9840 c0 -91 3 -110 15 -110 11 0 15 12 15 45 l0 45 43 0 c57
0 87 22 87 64 0 49 -25 66 -98 66 l-62 0 0 -110z m114 74 c9 -3 16 -16 16 -29
0 -26 -17 -35 -66 -35 -32 0 -34 2 -34 35 0 33 2 35 34 35 19 0 41 -3 50 -6z"/>
<path d="M12607 9933 c-4 -3 -7 -15 -7 -25 0 -10 -4 -18 -10 -18 -5 0 -10 -7
-10 -15 0 -8 5 -15 10 -15 6 0 10 -27 10 -60 0 -63 9 -76 46 -68 16 3 17 4 1
20 -19 18 -24 108 -7 108 6 0 10 7 10 15 0 8 -4 15 -10 15 -5 0 -10 11 -10 25
0 24 -10 32 -23 18z"/>
<path d="M12330 9810 c0 -63 3 -80 15 -80 10 0 15 16 17 63 3 56 5 62 26 65
12 2 22 10 22 18 0 17 -31 19 -48 2 -9 -9 -12 -9 -12 0 0 7 -4 12 -10 12 -6 0
-10 -33 -10 -80z"/>
<path d="M12441 9864 c-43 -54 -11 -134 53 -134 20 0 40 8 51 20 22 24 12 39
-15 22 -25 -15 -53 -15 -68 0 -22 22 -13 28 43 28 52 0 55 1 55 25 0 61 -81
87 -119 39z m85 -21 c17 -17 16 -18 -25 -21 -50 -4 -59 1 -41 23 17 20 44 19
66 -2z"/>
<path d="M12689 9871 c-18 -14 -24 -29 -24 -61 0 -49 29 -80 76 -80 42 0 69
32 69 80 0 71 -67 105 -121 61z m79 -23 c7 -7 12 -24 12 -38 0 -30 -16 -50
-41 -50 -23 0 -49 27 -49 50 0 39 52 64 78 38z"/>
<path d="M4600 8890 c0 -91 3 -110 15 -110 11 0 15 12 15 45 l0 45 48 0 c57 0
82 20 82 67 0 46 -26 63 -98 63 l-62 0 0 -110z m114 74 c9 -3 16 -16 16 -29 0
-26 -17 -35 -66 -35 -32 0 -34 2 -34 35 0 33 2 35 34 35 19 0 41 -3 50 -6z"/>
<path d="M5200 8985 c0 -8 7 -15 15 -15 8 0 15 7 15 15 0 8 -7 15 -15 15 -8 0
-15 -7 -15 -15z"/>
<path d="M5370 8958 c0 -33 -3 -39 -12 -30 -36 36 -98 -5 -98 -66 0 -63 62
-106 98 -70 9 9 12 9 12 0 0 -7 7 -12 15 -12 12 0 15 19 15 110 0 91 -3 110
-15 110 -11 0 -15 -11 -15 -42z m-15 -64 c34 -35 -3 -103 -42 -78 -34 21 -24
94 13 94 7 0 20 -7 29 -16z"/>
<path d="M5767 8983 c-4 -3 -7 -15 -7 -25 0 -10 -4 -18 -10 -18 -5 0 -10 -7
-10 -15 0 -8 5 -15 10 -15 6 0 10 -24 10 -53 0 -55 12 -77 42 -77 22 0 24 26
3 34 -10 4 -15 20 -15 51 0 33 4 45 15 45 8 0 15 7 15 15 0 8 -7 15 -15 15 -9
0 -15 9 -15 25 0 24 -10 32 -23 18z"/>
<path d="M4790 8860 c0 -63 3 -80 15 -80 10 0 15 16 17 63 3 56 5 62 26 65 12
2 22 10 22 18 0 17 -31 19 -48 2 -9 -9 -12 -9 -12 0 0 7 -4 12 -10 12 -6 0
-10 -33 -10 -80z"/>
<path d="M4901 8914 c-43 -54 -11 -134 53 -134 20 0 40 8 51 20 23 26 12 37
-20 20 -19 -10 -30 -11 -50 -2 -42 19 -28 32 35 32 l60 0 -6 28 c-14 62 -86
83 -123 36z m85 -21 c17 -17 16 -18 -25 -21 -51 -4 -63 4 -37 24 26 19 41 18
62 -3z"/>
<path d="M5062 8928 c-16 -16 -15 -53 1 -67 8 -6 28 -14 46 -17 17 -4 34 -10
36 -15 10 -15 -36 -21 -66 -9 -37 16 -43 10 -23 -18 20 -29 76 -30 104 -2 11
11 20 24 20 28 0 18 -27 40 -62 52 -54 17 -49 34 7 26 49 -8 53 -5 29 18 -18
19 -75 21 -92 4z"/>
<path d="M5200 8860 c0 -64 3 -80 15 -80 12 0 15 16 15 80 0 64 -3 80 -15 80
-12 0 -15 -16 -15 -80z"/>
<path d="M5441 8914 c-43 -54 -11 -134 53 -134 20 0 40 8 51 20 23 26 12 37
-20 20 -19 -10 -30 -11 -50 -2 -42 19 -28 32 35 32 l60 0 -6 28 c-14 62 -86
83 -123 36z m85 -21 c17 -17 16 -18 -25 -21 -51 -4 -63 4 -37 24 26 19 41 18
62 -3z"/>
<path d="M5590 8860 c0 -64 3 -80 15 -80 11 0 15 12 15 48 0 55 18 86 46 80
16 -3 19 -13 22 -66 2 -46 7 -62 17 -62 12 0 15 15 15 68 0 74 -10 92 -50 92
-14 0 -31 -5 -38 -12 -9 -9 -12 -9 -12 0 0 7 -7 12 -15 12 -12 0 -15 -16 -15
-80z"/>
<path d="M5860 8922 c-17 -14 -23 -29 -23 -62 0 -33 6 -48 23 -62 30 -24 75
-23 101 3 27 27 18 35 -20 19 -33 -13 -66 -7 -75 15 -4 12 6 15 54 15 52 0 60
3 60 19 0 10 -9 30 -21 45 -24 31 -66 35 -99 8z m78 -24 c21 -21 13 -28 -28
-28 -28 0 -40 4 -40 14 0 25 48 34 68 14z"/>
<path d="M4760 8530 c0 -91 3 -110 15 -110 11 0 15 12 15 45 l0 45 48 0 c57 0
82 20 82 67 0 46 -26 63 -98 63 l-62 0 0 -110z m114 74 c9 -3 16 -16 16 -29 0
-26 -17 -35 -66 -35 -32 0 -34 2 -34 35 0 33 2 35 34 35 19 0 41 -3 50 -6z"/>
<path d="M5320 8598 c0 -33 -3 -39 -12 -30 -36 36 -98 -5 -98 -66 0 -63 62
-106 98 -70 9 9 12 9 12 0 0 -7 7 -12 15 -12 12 0 15 19 15 110 0 91 -3 110
-15 110 -11 0 -15 -11 -15 -42z m-15 -64 c34 -35 -3 -103 -42 -78 -34 21 -24
94 13 94 7 0 20 -7 29 -16z"/>
<path d="M5717 8623 c-4 -3 -7 -15 -7 -25 0 -10 -4 -18 -10 -18 -5 0 -10 -7
-10 -15 0 -8 5 -15 10 -15 6 0 10 -24 10 -53 0 -55 12 -77 42 -77 22 0 24 26
3 34 -10 4 -15 20 -15 51 0 33 4 45 15 45 8 0 15 7 15 15 0 8 -7 15 -15 15 -9
0 -15 9 -15 25 0 24 -10 32 -23 18z"/>
<path d="M4950 8499 c0 -64 3 -79 15 -79 11 0 15 12 15 44 0 58 8 76 36 87 39
14 28 28 -21 27 l-45 -1 0 -78z"/>
<path d="M5050 8522 c0 -36 6 -66 16 -80 17 -24 53 -29 72 -10 9 9 12 9 12 0
0 -7 7 -12 15 -12 12 0 15 16 15 80 0 64 -3 80 -15 80 -11 0 -15 -13 -15 -54
0 -60 -19 -88 -48 -69 -12 7 -18 27 -20 67 -2 41 -7 56 -17 56 -11 0 -15 -14
-15 -58z"/>
<path d="M5400 8562 c-17 -14 -23 -29 -23 -62 0 -33 6 -48 23 -62 30 -24 75
-23 101 3 27 27 18 35 -20 19 -33 -13 -66 -7 -75 15 -4 12 6 15 54 15 52 0 60
3 60 19 0 10 -9 30 -21 45 -24 31 -66 35 -99 8z m78 -24 c21 -21 13 -28 -28
-28 -28 0 -40 4 -40 14 0 25 48 34 68 14z"/>
<path d="M5550 8499 c0 -64 3 -79 15 -79 11 0 15 13 15 54 0 60 19 88 48 69
12 -7 18 -27 20 -67 2 -41 7 -56 17 -56 12 0 15 15 15 64 0 81 -13 96 -81 95
l-49 -2 0 -78z"/>
<path d="M5810 8562 c-17 -14 -23 -29 -23 -62 0 -33 6 -48 23 -62 30 -24 75
-23 101 3 27 27 18 35 -20 19 -33 -13 -66 -7 -75 15 -4 12 6 15 54 15 52 0 60
3 60 19 0 10 -9 30 -21 45 -24 31 -66 35 -99 8z m78 -24 c21 -21 13 -28 -28
-28 -28 0 -40 4 -40 14 0 25 48 34 68 14z"/>
<path d="M12875 7826 c-30 -30 -39 -65 -30 -112 10 -54 45 -84 99 -84 37 0 48
5 70 31 31 37 33 49 6 49 -11 0 -20 -4 -20 -10 0 -17 -48 -42 -69 -35 -35 11
-51 35 -51 75 0 65 52 97 101 61 15 -12 33 -21 39 -21 18 0 11 26 -13 48 -33
31 -100 30 -132 -2z"/>
<path d="M13640 7835 c0 -8 7 -15 15 -15 8 0 15 7 15 15 0 8 -7 15 -15 15 -8
0 -15 -7 -15 -15z"/>
<path d="M13076 7774 c-30 -30 -15 -45 25 -23 21 11 59 4 59 -12 0 -5 -6 -9
-12 -9 -7 0 -30 -5 -50 -10 -41 -12 -55 -38 -38 -70 9 -17 19 -20 76 -18 l66
2 -4 68 c-2 46 -9 72 -18 78 -24 15 -87 11 -104 -6z m84 -84 c0 -17 -49 -35
-61 -23 -6 6 -8 16 -5 22 9 14 66 14 66 1z"/>
<path d="M13220 7709 c0 -72 2 -79 20 -79 18 0 20 7 20 54 0 61 19 88 45 66
10 -8 15 -31 15 -66 0 -41 4 -54 15 -54 11 0 15 13 15 54 0 56 17 83 45 72 11
-4 15 -21 15 -66 0 -53 2 -60 20 -60 18 0 20 6 19 53 -2 83 -10 102 -48 105
-18 2 -38 -2 -46 -8 -9 -7 -15 -8 -19 -1 -4 6 -31 10 -61 10 l-55 -1 0 -79z"/>
<path d="M13470 7680 c0 -91 3 -110 15 -110 10 0 15 10 15 33 0 32 1 33 34 29
46 -5 76 24 76 76 0 49 -23 82 -59 82 -15 0 -32 -5 -39 -12 -9 -9 -12 -9 -12
0 0 7 -7 12 -15 12 -12 0 -15 -19 -15 -110z m94 64 c9 -8 16 -24 16 -34 0 -19
-25 -50 -40 -50 -14 0 -40 30 -40 47 0 17 28 53 41 53 4 0 15 -7 23 -16z"/>
<path d="M13640 7710 c0 -64 3 -80 15 -80 12 0 15 16 15 80 0 64 -3 80 -15 80
-12 0 -15 -16 -15 -80z"/>
<path d="M13700 7709 c0 -72 2 -79 20 -79 18 0 20 7 20 59 0 61 12 77 45 65
11 -5 15 -22 15 -65 0 -52 2 -59 20 -59 17 0 20 7 20 53 0 28 -6 63 -13 77
-11 22 -20 25 -70 27 l-57 1 0 -79z"/>
<path d="M13875 7768 c-19 -28 -4 -36 30 -18 25 13 55 8 55 -9 0 -6 -17 -13
-37 -17 -48 -8 -63 -20 -63 -49 0 -34 20 -44 85 -43 l60 1 -3 66 c-2 36 -8 72
-14 79 -6 6 -30 12 -54 12 -33 0 -46 -5 -59 -22z m85 -78 c0 -14 -37 -31 -54
-24 -32 12 -13 32 32 33 12 1 22 -3 22 -9z"/>
<path d="M14037 7769 c-24 -33 -10 -58 39 -71 24 -7 44 -16 44 -20 0 -15 -32
-21 -51 -10 -22 14 -49 16 -49 4 0 -39 94 -56 123 -24 33 37 11 71 -56 86 -43
10 -22 29 24 21 21 -4 39 -3 39 2 0 37 -89 46 -113 12z"/>
<path d="M9630 8310 l0 -110 63 0 c49 0 68 4 80 18 21 23 22 75 2 92 -12 10
-13 15 -4 20 18 12 14 62 -7 77 -10 7 -43 13 -76 13 l-58 0 0 -110z m120 65
c19 -23 -5 -45 -51 -45 -37 0 -39 2 -39 30 0 28 2 30 39 30 22 0 44 -6 51 -15z
m-6 -81 c9 -3 16 -16 16 -29 0 -26 -17 -35 -66 -35 -32 0 -34 2 -34 35 0 33 2
35 34 35 19 0 41 -3 50 -6z"/>
<path d="M9835 8340 c-23 -25 -12 -37 19 -21 27 15 57 12 63 -6 3 -8 -11 -15
-37 -19 -52 -8 -76 -38 -56 -69 11 -16 25 -20 73 -21 l60 -1 -5 66 c-2 36 -9
72 -15 79 -16 20 -81 15 -102 -8z m69 -97 c-23 -17 -49 -13 -49 7 0 17 58 31
64 16 2 -5 -5 -15 -15 -23z"/>
<path d="M9990 8292 c0 -74 10 -92 50 -92 14 0 31 5 38 12 9 9 12 9 12 0 0 -7
7 -12 15 -12 12 0 15 16 15 80 0 64 -3 80 -15 80 -11 0 -15 -12 -15 -49 0 -53
-20 -84 -49 -79 -12 2 -17 17 -19 66 -2 46 -7 62 -17 62 -12 0 -15 -15 -15
-68z"/>
<path d="M10150 8279 c0 -64 3 -79 15 -79 11 0 15 12 15 44 0 58 8 76 36 87
39 14 28 28 -21 27 l-45 -1 0 -78z"/>
<path d="M10250 8302 c0 -36 6 -66 16 -80 17 -24 53 -29 72 -10 9 9 12 9 12 0
0 -7 7 -12 15 -12 12 0 15 16 15 80 0 64 -3 80 -15 80 -11 0 -15 -13 -15 -54
0 -60 -19 -88 -48 -69 -12 7 -18 27 -20 67 -2 41 -7 56 -17 56 -11 0 -15 -14
-15 -58z"/>
<path d="M7240 7960 c0 -91 3 -110 15 -110 12 0 15 17 16 88 l0 87 31 -87 c17
-49 36 -88 43 -88 6 0 25 42 42 93 l31 92 1 -92 c1 -76 4 -93 16 -93 12 0 15
19 15 111 0 108 -1 110 -22 107 -17 -2 -27 -20 -51 -93 l-31 -90 -30 93 c-26
80 -33 92 -53 92 -23 0 -23 -2 -23 -110z"/>
<path d="M7830 7960 c0 -67 4 -110 10 -110 6 0 10 43 10 110 0 67 -4 110 -10
110 -6 0 -10 -43 -10 -110z"/>
<path d="M7900 8055 c0 -8 7 -15 15 -15 8 0 15 7 15 15 0 8 -7 15 -15 15 -8 0
-15 -7 -15 -15z"/>
<path d="M7766 8044 c-10 -27 3 -30 27 -6 l21 22 -21 0 c-11 0 -24 -7 -27 -16z"/>
<path d="M7499 7989 c-26 -26 -17 -37 15 -20 29 16 61 11 61 -9 0 -9 -14 -17
-35 -20 -48 -8 -60 -17 -60 -44 0 -38 25 -52 71 -39 21 6 39 6 39 2 0 -5 6 -9
13 -9 20 0 10 131 -11 148 -24 19 -70 14 -93 -9z m81 -73 c0 -21 -26 -38 -52
-34 -31 4 -29 30 2 39 39 11 50 10 50 -5z"/>
<path d="M7650 7930 c0 -63 3 -80 15 -80 10 0 15 16 17 63 3 56 5 62 26 65 12
2 22 10 22 18 0 17 -31 19 -48 2 -9 -9 -12 -9 -12 0 0 7 -4 12 -10 12 -6 0
-10 -33 -10 -80z"/>
<path d="M7760 7930 c0 -64 3 -80 15 -80 12 0 15 16 15 80 0 64 -3 80 -15 80
-12 0 -15 -16 -15 -80z"/>
<path d="M7900 7930 c0 -64 3 -80 15 -80 12 0 15 16 15 80 0 64 -3 80 -15 80
-12 0 -15 -16 -15 -80z"/>
<path d="M7979 7989 c-26 -26 -17 -37 15 -20 29 16 61 11 61 -9 0 -9 -14 -17
-35 -20 -48 -8 -60 -17 -60 -44 0 -38 25 -52 71 -39 21 6 39 6 39 2 0 -5 6 -9
13 -9 20 0 10 131 -11 148 -24 19 -70 14 -93 -9z m81 -73 c0 -21 -26 -38 -52
-34 -31 4 -29 30 2 39 39 11 50 10 50 -5z"/>
<path d="M11572 6280 c-27 -12 -36 -32 -28 -65 5 -19 18 -28 62 -41 58 -17 74
-34 54 -59 -23 -28 -100 -12 -100 20 0 8 -7 15 -15 15 -20 0 -19 -23 3 -50 10
-13 33 -23 59 -27 35 -5 45 -2 67 20 14 14 26 33 26 42 0 25 -35 52 -78 60
-23 3 -46 13 -53 21 -17 21 6 44 46 44 18 0 38 -7 45 -15 16 -19 30 -19 30 -1
0 32 -73 55 -118 36z"/>
<path d="M12470 6180 c0 -91 3 -110 15 -110 8 0 15 4 15 10 0 6 10 5 25 -2 48
-22 96 36 81 97 -9 37 -50 61 -81 47 -24 -11 -25 -10 -25 28 0 29 -4 40 -15
40 -12 0 -15 -19 -15 -110z m99 6 c31 -37 -9 -103 -46 -80 -37 23 -24 94 17
94 10 0 23 -6 29 -14z"/>
<path d="M11750 6210 c-45 -45 -14 -140 45 -140 36 0 75 42 75 80 0 64 -77
103 -120 60z m78 -22 c7 -7 12 -24 12 -38 0 -52 -61 -71 -82 -25 -23 51 32
101 70 63z"/>
<path d="M11890 6150 c0 -63 3 -80 15 -80 10 0 15 15 17 58 3 48 7 59 26 67
24 10 30 35 9 35 -7 0 -18 -5 -25 -12 -9 -9 -12 -9 -12 0 0 7 -7 12 -15 12
-12 0 -15 -16 -15 -80z"/>
<path d="M12010 6210 c-45 -45 -14 -140 45 -140 36 0 75 42 75 80 0 64 -77
103 -120 60z m78 -22 c7 -7 12 -24 12 -38 0 -52 -61 -71 -82 -25 -23 51 32
101 70 63z"/>
<path d="M12179 6211 c-18 -14 -24 -29 -24 -61 0 -74 72 -107 115 -53 24 31
10 45 -19 19 -36 -32 -75 -10 -69 40 4 38 30 52 62 34 33 -17 45 -6 21 20 -23
25 -56 26 -86 1z"/>
<path d="M12329 6211 c-13 -11 -21 -23 -17 -27 4 -4 14 -1 22 5 20 17 71 10
71 -9 0 -9 -14 -17 -38 -21 -48 -8 -71 -30 -62 -58 8 -26 48 -37 80 -23 15 7
26 8 30 2 15 -25 25 -5 25 50 0 47 -4 64 -20 80 -25 25 -61 26 -91 1z m81 -75
c0 -20 -26 -38 -51 -34 -31 4 -35 26 -7 37 34 14 58 13 58 -3z"/>
<path d="M12659 6211 c-13 -11 -21 -23 -17 -27 4 -4 14 -1 22 5 20 17 71 10
71 -9 0 -9 -14 -17 -38 -21 -48 -8 -71 -30 -62 -58 8 -26 48 -37 80 -23 15 7
26 8 30 2 15 -25 25 -5 25 50 0 47 -4 64 -20 80 -25 25 -61 26 -91 1z m81 -75
c0 -20 -26 -38 -51 -34 -31 4 -35 26 -7 37 34 14 58 13 58 -3z"/>
<path d="M10060 5130 c0 -91 3 -110 15 -110 12 0 15 19 15 110 0 91 -3 110
-15 110 -12 0 -15 -19 -15 -110z"/>
<path d="M10147 5223 c-4 -3 -7 -15 -7 -25 0 -10 -4 -18 -10 -18 -5 0 -10 -7
-10 -15 0 -8 4 -15 10 -15 5 0 10 -28 12 -62 3 -57 5 -63 26 -66 15 -2 22 2
22 12 0 9 -4 16 -10 16 -5 0 -10 23 -10 50 0 28 5 50 10 50 6 0 10 7 10 15 0
8 -4 15 -10 15 -5 0 -10 11 -10 25 0 24 -10 32 -23 18z"/>
<path d="M10239 5161 c-13 -11 -21 -23 -17 -27 4 -4 14 -1 22 5 20 17 71 10
71 -9 0 -9 -14 -17 -38 -21 -48 -8 -71 -30 -62 -58 8 -26 48 -37 80 -23 15 7
26 8 30 2 15 -25 25 -5 25 50 0 47 -4 64 -20 80 -25 25 -61 26 -91 1z m81 -75
c0 -20 -26 -38 -51 -34 -31 4 -35 26 -7 37 34 14 58 13 58 -3z"/>
<path d="M10380 5070 c0 -91 3 -110 15 -110 11 0 15 11 15 42 0 33 3 39 12 30
19 -19 47 -14 73 13 31 30 32 73 4 109 -23 29 -50 33 -73 10 -15 -14 -16 -14
-16 0 0 9 -7 16 -15 16 -12 0 -15 -19 -15 -110z m99 66 c31 -37 -9 -103 -46
-80 -37 23 -24 94 17 94 10 0 23 -6 29 -14z"/>
<path d="M10571 5163 c-12 -10 -24 -35 -27 -55 -12 -69 64 -113 117 -69 28 22
18 41 -11 23 -25 -15 -53 -15 -68 0 -22 22 -13 28 43 28 52 0 55 1 55 25 0 55
-66 83 -109 48z m79 -33 c10 -19 8 -20 -35 -20 -46 0 -54 7 -33 28 19 19 56
14 68 -8z"/>
<path d="M10728 5103 c18 -48 34 -78 43 -78 9 0 24 30 41 78 20 56 24 77 14
77 -7 0 -21 -27 -31 -60 -10 -32 -21 -57 -25 -55 -3 2 -15 29 -25 59 -11 31
-25 56 -32 56 -9 0 -4 -23 15 -77z"/>
<path d="M10879 5161 c-13 -11 -21 -23 -17 -27 4 -4 14 -1 22 5 20 17 71 10
71 -9 0 -9 -14 -17 -38 -21 -48 -8 -71 -30 -62 -58 8 -26 48 -37 80 -23 15 7
26 8 30 2 15 -25 25 -5 25 50 0 47 -4 64 -20 80 -25 25 -61 26 -91 1z m81 -75
c0 -20 -26 -38 -51 -34 -31 4 -35 26 -7 37 34 14 58 13 58 -3z"/>
<path d="M14330 5680 c-42 -42 -8 -91 70 -104 34 -5 40 -10 40 -31 0 -43 -78
-47 -100 -4 -10 17 -40 28 -40 14 0 -16 31 -63 45 -69 49 -18 111 0 124 37 14
39 -7 66 -66 83 -59 17 -70 28 -53 49 16 19 64 19 80 0 14 -17 40 -20 40 -5 0
24 -41 50 -80 50 -27 0 -47 -7 -60 -20z"/>
<path d="M14920 5590 c0 -91 3 -110 15 -110 11 0 15 12 15 45 l0 45 50 0 c57
0 90 24 90 65 0 45 -32 65 -105 65 l-65 0 0 -110z m128 68 c16 -16 15 -23 -4
-42 -9 -9 -32 -16 -55 -16 -38 0 -39 1 -39 35 0 35 1 35 43 35 24 0 48 -5 55
-12z"/>
<path d="M15450 5590 c0 -91 3 -110 15 -110 12 0 15 19 15 110 0 91 -3 110
-15 110 -12 0 -15 -19 -15 -110z"/>
<path d="M14531 5677 c-20 -20 -12 -25 36 -23 34 1 49 5 51 16 2 12 -7 16 -36
17 -22 1 -44 -3 -51 -10z"/>
<path d="M14518 5618 c-21 -21 -21 -23 -4 -26 10 -2 23 1 29 7 15 15 42 14 56
-3 9 -11 4 -15 -26 -21 -54 -10 -73 -23 -73 -48 0 -31 18 -47 55 -47 17 0 36
5 43 12 9 9 12 9 12 0 0 -7 7 -12 15 -12 22 0 21 122 -1 144 -23 24 -80 20
-106 -6z m86 -82 c-8 -21 -52 -32 -67 -17 -15 15 1 29 38 33 37 4 37 4 29 -16z"/>
<path d="M14689 5621 c-18 -14 -24 -29 -24 -59 0 -52 26 -82 72 -82 46 0 73
29 73 80 0 71 -67 105 -121 61z m79 -23 c7 -7 12 -24 12 -38 0 -30 -16 -50
-41 -50 -23 0 -49 27 -49 50 0 39 52 64 78 38z"/>
<path d="M15138 5629 c-10 -5 -18 -17 -18 -24 0 -17 26 -20 35 -5 9 15 41 12
55 -5 10 -12 10 -15 -1 -15 -8 0 -31 -5 -51 -11 -67 -18 -62 -89 6 -89 18 0
37 5 44 12 9 9 12 9 12 0 0 -7 7 -12 15 -12 22 0 21 122 -1 144 -17 18 -70 21
-96 5z m76 -93 c-8 -21 -52 -32 -67 -17 -15 15 1 29 38 33 37 4 37 4 29 -16z"/>
<path d="M15280 5582 c0 -36 6 -66 16 -80 17 -24 53 -29 72 -10 9 9 12 9 12 0
0 -7 7 -12 15 -12 12 0 15 16 15 80 0 64 -3 80 -15 80 -11 0 -15 -13 -15 -54
0 -60 -19 -88 -48 -69 -12 7 -18 27 -20 67 -2 41 -7 56 -17 56 -11 0 -15 -14
-15 -58z"/>
<path d="M15529 5621 c-18 -14 -24 -29 -24 -59 0 -52 26 -82 72 -82 46 0 73
29 73 80 0 71 -67 105 -121 61z m79 -23 c7 -7 12 -24 12 -38 0 -30 -16 -50
-41 -50 -23 0 -49 27 -49 50 0 39 52 64 78 38z"/>
<path d="M11980 3850 c0 -91 3 -110 15 -110 11 0 15 12 15 50 0 47 2 50 25 50
28 0 53 -21 81 -69 10 -17 26 -31 36 -31 24 0 23 4 -12 55 -30 43 -30 44 -10
55 28 15 36 55 16 85 -15 23 -23 25 -91 25 l-75 0 0 -110z m124 74 c9 -3 16
-14 16 -24 0 -22 -19 -30 -71 -30 -37 0 -39 2 -39 30 0 28 2 30 39 30 22 0 46
-3 55 -6z"/>
<path d="M12520 3945 c0 -8 7 -15 15 -15 8 0 15 7 15 15 0 8 -7 15 -15 15 -8
0 -15 -7 -15 -15z"/>
<path d="M12747 3943 c-4 -3 -7 -15 -7 -25 0 -10 -4 -18 -10 -18 -5 0 -10 -7
-10 -15 0 -8 4 -15 10 -15 5 0 10 -28 12 -62 3 -60 4 -63 31 -66 28 -3 38 15
12 24 -17 7 -22 104 -5 104 6 0 10 7 10 15 0 8 -4 15 -10 15 -5 0 -10 11 -10
25 0 24 -10 32 -23 18z"/>
<path d="M12210 3882 c-29 -23 -32 -93 -5 -122 24 -27 79 -26 106 1 27 27 18
35 -20 19 -34 -14 -71 -6 -71 16 0 10 14 14 55 14 51 0 55 2 55 23 0 31 -39
67 -72 67 -14 0 -36 -8 -48 -18z m78 -24 c21 -21 13 -28 -28 -28 -22 0 -40 4
-40 8 0 14 23 32 40 32 9 0 21 -5 28 -12z"/>
<path d="M12370 3880 c-28 -28 -27 -93 1 -121 15 -15 30 -20 55 -17 37 4 43
-2 18 -23 -12 -10 -22 -10 -50 0 -43 15 -54 8 -29 -19 24 -26 79 -26 105 0 17
17 20 33 20 109 l0 88 -50 2 c-38 0 -55 -4 -70 -19z m74 -26 c9 -8 16 -24 16
-34 0 -21 -25 -50 -44 -50 -20 0 -36 22 -36 50 0 46 34 64 64 34z"/>
<path d="M12520 3820 c0 -64 3 -80 15 -80 12 0 15 16 15 80 0 64 -3 80 -15 80
-12 0 -15 -16 -15 -80z"/>
<path d="M12596 3884 c-31 -30 -16 -60 40 -79 21 -7 39 -17 39 -22 0 -13 -46
-16 -58 -4 -13 13 -37 14 -37 2 0 -20 33 -41 65 -41 37 0 65 21 65 50 0 22
-31 44 -73 54 -43 10 -22 29 24 21 40 -7 49 1 27 23 -17 17 -74 15 -92 -4z"/>
<path d="M12820 3820 c0 -63 3 -80 15 -80 10 0 15 16 17 63 3 56 5 62 26 65
12 2 22 10 22 18 0 17 -31 19 -48 2 -9 -9 -12 -9 -12 0 0 7 -4 12 -10 12 -6 0
-10 -33 -10 -80z"/>
<path d="M12930 3880 c-13 -13 -20 -33 -20 -60 0 -51 27 -80 74 -80 25 0 40 7
55 26 43 55 11 134 -55 134 -21 0 -42 -8 -54 -20z m77 -18 c25 -16 20 -78 -7
-87 -31 -10 -60 12 -60 45 0 38 37 61 67 42z"/>
<path d="M8222 11760 c-27 -12 -36 -32 -28 -65 5 -19 18 -28 62 -41 58 -17 74
-34 54 -59 -23 -28 -100 -12 -100 20 0 8 -7 15 -15 15 -20 0 -19 -23 3 -50 10
-13 33 -23 59 -27 35 -5 45 -2 67 20 14 14 26 33 26 42 0 25 -35 52 -78 60
-23 3 -46 13 -53 21 -17 21 6 44 46 44 18 0 38 -7 45 -15 16 -19 30 -19 30 -1
0 32 -73 55 -118 36z"/>
<path d="M8868 11678 c-3 -89 -4 -93 -26 -96 -17 -3 -25 2 -29 17 -5 21 -18
27 -26 14 -3 -5 -1 -18 4 -30 11 -30 53 -40 84 -19 24 16 25 21 25 111 0 77
-3 95 -15 95 -11 0 -15 -19 -17 -92z"/>
<path d="M8401 11741 c-8 -14 -3 -17 37 -16 34 0 48 4 50 15 4 23 -75 23 -87
1z"/>
<path d="M9310 11740 c-6 -11 -7 -20 -2 -20 5 0 17 9 27 20 16 18 16 20 2 20
-9 0 -21 -9 -27 -20z"/>
<path d="M8403 11700 c-13 -5 -23 -16 -23 -25 0 -18 11 -20 27 -4 15 15 68 7
68 -11 0 -9 -14 -17 -38 -21 -48 -8 -71 -30 -62 -58 8 -26 48 -37 80 -23 15 7
26 8 30 2 15 -25 25 -5 25 50 0 87 -37 118 -107 90z m77 -84 c0 -20 -26 -38
-51 -34 -31 4 -35 26 -7 37 34 14 58 13 58 -3z"/>
<path d="M8560 11690 c-45 -45 -14 -140 45 -140 36 0 75 42 75 80 0 64 -77
103 -120 60z m78 -22 c7 -7 12 -24 12 -38 0 -52 -61 -71 -82 -25 -23 51 32
101 70 63z"/>
<path d="M8955 11685 c-16 -15 -25 -36 -25 -55 0 -38 39 -80 73 -80 43 0 68
30 69 80 0 34 -5 48 -22 62 -31 25 -66 23 -95 -7z m87 -30 c16 -35 -3 -75 -35
-75 -30 0 -47 18 -47 50 0 52 61 71 82 25z"/>
<path d="M9116 11697 c-32 -23 -17 -59 32 -77 24 -8 44 -19 43 -25 -1 -15 -50
-18 -67 -4 -17 14 -29 6 -21 -15 8 -21 54 -31 86 -20 19 7 27 17 29 41 3 30 0
33 -41 45 -54 16 -56 34 -4 31 40 -2 48 10 18 27 -27 14 -54 13 -75 -3z"/>
<path d="M9290 11703 c-26 -9 -40 -35 -40 -73 0 -48 17 -69 61 -76 30 -5 41
-2 60 17 16 16 19 24 10 27 -7 2 -18 -1 -24 -7 -18 -18 -65 -13 -77 9 -10 19
-8 20 50 20 54 0 60 2 60 20 0 44 -56 79 -100 63z m54 -29 c9 -3 16 -12 16
-20 0 -10 -13 -14 -45 -14 -50 0 -52 2 -29 24 16 17 33 20 58 10z"/>
<path d="M8700 11380 c0 -38 -12 -52 -25 -30 -10 16 -44 11 -65 -10 -56 -56
12 -182 69 -127 11 10 14 10 18 0 14 -38 23 0 23 97 0 67 -4 110 -10 110 -5 0
-10 -18 -10 -40z m-24 -58 c6 -4 14 -17 18 -29 17 -55 -52 -90 -76 -38 -21 47
19 93 58 67z"/>
<path d="M8775 11335 c-16 -15 -25 -36 -25 -55 0 -38 39 -80 73 -80 43 0 68
30 69 80 0 34 -5 48 -22 62 -31 25 -66 23 -95 -7z m87 -30 c16 -35 -3 -75 -35
-75 -30 0 -47 18 -47 50 0 52 61 71 82 25z"/>
<path d="M8190 10950 c0 -91 3 -110 15 -110 11 0 15 12 15 50 0 46 2 50 25 50
26 0 58 -28 81 -72 8 -16 21 -28 29 -28 21 0 19 6 -14 54 l-28 43 23 21 c29
25 31 55 4 82 -16 16 -33 20 -85 20 l-65 0 0 -110z m138 56 c5 -25 -14 -36
-65 -36 -41 0 -43 1 -43 31 l0 30 52 -3 c42 -2 54 -7 56 -22z"/>
<path d="M8400 11045 c0 -8 7 -15 15 -15 8 0 15 7 15 15 0 8 -7 15 -15 15 -8
0 -15 -7 -15 -15z"/>
<path d="M8710 10950 c0 -91 3 -110 15 -110 11 0 15 12 15 45 l0 45 41 0 c73
0 111 38 89 90 -13 32 -34 40 -107 40 l-53 0 0 -110z m131 64 c22 -26 -1 -49
-55 -52 l-46 -3 0 35 c0 36 0 36 44 36 28 0 48 -6 57 -16z"/>
<path d="M9180 11040 c-16 -10 -17 -109 -2 -165 9 -33 52 -50 52 -21 0 9 -7
16 -15 16 -11 0 -15 12 -15 50 0 38 4 50 15 50 8 0 15 7 15 15 0 8 -6 15 -14
15 -8 0 -16 11 -18 25 -2 19 -6 22 -18 15z"/>
<path d="M8400 10920 c0 -64 3 -80 15 -80 12 0 15 16 15 80 0 64 -3 80 -15 80
-12 0 -15 -16 -15 -80z"/>
<path d="M8480 10980 c-45 -45 -14 -140 45 -140 36 0 75 42 75 80 0 64 -77
103 -120 60z m78 -22 c7 -7 12 -24 12 -38 0 -52 -61 -71 -82 -25 -23 51 32
101 70 63z"/>
<path d="M8910 10920 c0 -63 3 -80 15 -80 10 0 15 16 17 63 3 56 5 62 26 65
12 2 22 10 22 18 0 17 -31 19 -48 2 -9 -9 -12 -9 -12 0 0 7 -4 12 -10 12 -6 0
-10 -33 -10 -80z"/>
<path d="M9020 10980 c-24 -24 -27 -87 -6 -115 20 -27 90 -27 110 0 16 22 2
35 -17 16 -18 -18 -65 -13 -77 9 -10 19 -8 20 51 20 l61 0 -6 28 c-14 57 -78
80 -116 42z m80 -25 c18 -22 9 -27 -41 -23 -41 3 -42 4 -25 21 22 21 49 22 66
2z"/>
<path d="M9270 10980 c-45 -45 -14 -140 45 -140 36 0 75 42 75 80 0 64 -77
103 -120 60z m78 -22 c7 -7 12 -24 12 -38 0 -52 -61 -71 -82 -25 -23 51 32
101 70 63z"/>
<path d="M17217 5183 c-25 -25 -37 -45 -37 -65 0 -15 -3 -28 -7 -28 -5 0 -19
-18 -31 -38 -13 -21 -39 -47 -58 -57 -19 -10 -34 -22 -34 -27 0 -4 -6 -8 -14
-8 -22 0 -76 -68 -76 -95 0 -14 11 -33 28 -45 25 -21 34 -22 144 -17 64 3 125
11 136 18 23 15 50 6 59 -18 19 -55 86 -82 119 -49 17 18 18 53 2 59 -10 3
-10 7 0 20 17 21 -6 58 -53 86 -27 16 -33 25 -32 48 2 25 7 28 40 31 l37 3 0
54 c0 61 -24 99 -91 141 -55 34 -88 31 -132 -13z"/>
<path d="M14233 4560 c-31 -13 -40 -55 -18 -80 10 -11 23 -20 29 -20 29 0 85
-22 90 -35 8 -21 -21 -45 -54 -45 -19 0 -35 9 -48 25 -24 30 -42 33 -35 5 10
-37 54 -62 96 -57 48 7 67 22 67 57 0 26 -26 60 -46 60 -5 0 -26 5 -46 11 -27
7 -38 16 -38 28 0 32 66 43 94 16 8 -8 19 -15 25 -15 19 0 12 18 -15 39 -28
22 -64 26 -101 11z"/>
<path d="M14825 4485 c-16 -15 -25 -36 -25 -55 0 -38 39 -80 73 -80 43 0 70
31 70 80 0 74 -68 106 -118 55z m79 -21 c30 -30 9 -84 -33 -84 -25 0 -41 20
-41 50 0 47 42 66 74 34z"/>
<path d="M14986 4497 c-32 -23 -17 -59 32 -77 24 -9 43 -21 43 -26 -1 -14 -50
-17 -67 -3 -17 14 -29 6 -21 -15 8 -21 54 -31 86 -20 19 7 27 17 29 41 3 28 0
32 -39 45 -63 21 -65 42 -3 34 l49 -7 -24 21 c-27 23 -59 26 -85 7z"/>
</g>
</svg>
